<svg width="134" height="76" viewBox="0 0 134 76" fill="none" xmlns="http://www.w3.org/2000/svg">
<path d="M38.088 75.248C31.24 75.248 24.968 73.584 19.272 70.256C13.576 66.864 9.064 62.32 5.736 56.624C2.472 50.864 0.84 44.624 0.84 37.904C0.84 31.376 2.504 25.264 5.832 19.568C9.224 13.872 13.768 9.36 19.464 6.032C25.224 2.64 31.432 0.943996 38.088 0.943996C44.808 0.943996 51.016 2.64 56.712 6.032C62.408 9.36 66.92 13.872 70.248 19.568C73.64 25.264 75.336 31.472 75.336 38.192C75.336 44.848 73.672 51.024 70.344 56.72C67.016 62.352 62.504 66.864 56.808 70.256C51.112 73.584 44.872 75.248 38.088 75.248ZM38.088 72.464C44.232 72.464 49.896 70.928 55.08 67.856C60.328 64.72 64.488 60.528 67.56 55.28C70.632 50.032 72.168 44.304 72.168 38.096C72.168 31.952 70.632 26.256 67.56 21.008C64.488 15.696 60.328 11.504 55.08 8.432C49.896 5.296 44.232 3.72799 38.088 3.72799C31.944 3.72799 26.248 5.296 21 8.432C15.816 11.504 11.688 15.696 8.616 21.008C5.544 26.256 4.008 31.952 4.008 38.096C4.008 44.304 5.544 50.032 8.616 55.28C11.688 60.528 15.816 64.72 21 67.856C26.248 70.928 31.944 72.464 38.088 72.464ZM113.971 52.784C119.603 49.264 123.731 45.552 126.355 41.648C129.043 37.68 130.387 33.104 130.387 27.92C130.387 23.568 129.427 19.568 127.507 15.92C125.587 12.272 122.867 9.35999 119.347 7.184C115.891 5.008 111.923 3.92 107.443 3.92C102.899 3.92 98.7388 5.072 94.9628 7.376C91.2508 9.68 88.3068 12.784 86.1308 16.688C83.9548 20.592 82.8668 24.912 82.8668 29.648H79.6987C79.6987 24.336 80.9147 19.504 83.3467 15.152C85.7787 10.8 89.1068 7.376 93.3307 4.88C97.5548 2.384 102.259 1.13599 107.443 1.13599C112.499 1.13599 117.011 2.352 120.979 4.784C124.947 7.216 128.019 10.48 130.195 14.576C132.435 18.672 133.555 23.152 133.555 28.016C133.555 38.448 127.891 47.28 116.563 54.512L90.4507 71.216H133.267V74H80.4668L113.971 52.784Z" fill="#FF9900"/>
</svg>
