<svg width="130" height="76" viewBox="0 0 130 76" fill="none" xmlns="http://www.w3.org/2000/svg">
<path d="M38.088 75.248C31.24 75.248 24.968 73.584 19.272 70.256C13.576 66.864 9.064 62.32 5.736 56.624C2.472 50.864 0.84 44.624 0.84 37.904C0.84 31.376 2.504 25.264 5.832 19.568C9.224 13.872 13.768 9.36 19.464 6.032C25.224 2.64 31.432 0.943996 38.088 0.943996C44.808 0.943996 51.016 2.64 56.712 6.032C62.408 9.36 66.92 13.872 70.248 19.568C73.64 25.264 75.336 31.472 75.336 38.192C75.336 44.848 73.672 51.024 70.344 56.72C67.016 62.352 62.504 66.864 56.808 70.256C51.112 73.584 44.872 75.248 38.088 75.248ZM38.088 72.464C44.232 72.464 49.896 70.928 55.08 67.856C60.328 64.72 64.488 60.528 67.56 55.28C70.632 50.032 72.168 44.304 72.168 38.096C72.168 31.952 70.632 26.256 67.56 21.008C64.488 15.696 60.328 11.504 55.08 8.432C49.896 5.296 44.232 3.72799 38.088 3.72799C31.944 3.72799 26.248 5.296 21 8.432C15.816 11.504 11.688 15.696 8.616 21.008C5.544 26.256 4.008 31.952 4.008 38.096C4.008 44.304 5.544 50.032 8.616 55.28C11.688 60.528 15.816 64.72 21 67.856C26.248 70.928 31.944 72.464 38.088 72.464ZM104.467 74.96C99.7948 74.96 95.5708 73.936 91.7948 71.888C88.0828 69.776 85.1707 66.96 83.0587 63.44C80.9467 59.92 79.8907 56.048 79.8907 51.824V49.808H82.8668V51.344C82.8668 55.184 83.7628 58.704 85.5547 61.904C87.3468 65.104 89.8748 67.632 93.1388 69.488C96.4668 71.344 100.211 72.272 104.371 72.272C108.595 72.272 112.339 71.44 115.603 69.776C118.931 68.048 121.491 65.68 123.283 62.672C125.139 59.664 126.067 56.272 126.067 52.496C126.067 46.928 124.787 42.288 122.227 38.576C119.667 34.8 115.827 32.24 110.707 30.896C113.395 29.232 115.411 27.216 116.755 24.848C118.099 22.416 118.771 19.888 118.771 17.264C118.771 14.832 118.195 12.592 117.043 10.544C115.955 8.432 114.355 6.768 112.243 5.55199C110.131 4.272 107.667 3.632 104.851 3.632C101.907 3.632 99.2828 4.304 96.9788 5.648C94.6748 6.992 92.8508 8.816 91.5068 11.12C90.2268 13.424 89.5228 15.984 89.3948 18.8H86.3228C86.4508 15.472 87.2828 12.464 88.8188 9.776C90.3547 7.024 92.4988 4.88 95.2508 3.34399C98.0668 1.744 101.267 0.943996 104.851 0.943996C108.243 0.943996 111.219 1.712 113.779 3.248C116.339 4.78399 118.323 6.832 119.731 9.392C121.139 11.888 121.843 14.512 121.843 17.264C121.843 19.76 121.299 22.128 120.211 24.368C119.123 26.608 117.491 28.528 115.315 30.128C119.923 31.92 123.379 34.736 125.683 38.576C128.051 42.416 129.235 47.216 129.235 52.976C129.235 57.008 128.179 60.72 126.067 64.112C123.955 67.44 121.011 70.096 117.235 72.08C113.459 74 109.203 74.96 104.467 74.96Z" fill="#FF9900"/>
</svg>
