<svg width="124" height="76" viewBox="0 0 124 76" fill="none" xmlns="http://www.w3.org/2000/svg">
<path d="M38.088 75.248C31.24 75.248 24.968 73.584 19.272 70.256C13.576 66.864 9.064 62.32 5.736 56.624C2.472 50.864 0.84 44.624 0.84 37.904C0.84 31.376 2.504 25.264 5.832 19.568C9.224 13.872 13.768 9.36 19.464 6.032C25.224 2.64 31.432 0.943996 38.088 0.943996C44.808 0.943996 51.016 2.64 56.712 6.032C62.408 9.36 66.92 13.872 70.248 19.568C73.64 25.264 75.336 31.472 75.336 38.192C75.336 44.848 73.672 51.024 70.344 56.72C67.016 62.352 62.504 66.864 56.808 70.256C51.112 73.584 44.872 75.248 38.088 75.248ZM38.088 72.464C44.232 72.464 49.896 70.928 55.08 67.856C60.328 64.72 64.488 60.528 67.56 55.28C70.632 50.032 72.168 44.304 72.168 38.096C72.168 31.952 70.632 26.256 67.56 21.008C64.488 15.696 60.328 11.504 55.08 8.432C49.896 5.296 44.232 3.72799 38.088 3.72799C31.944 3.72799 26.248 5.296 21 8.432C15.816 11.504 11.688 15.696 8.616 21.008C5.544 26.256 4.008 31.952 4.008 38.096C4.008 44.304 5.544 50.032 8.616 55.28C11.688 60.528 15.816 64.72 21 67.856C26.248 70.928 31.944 72.464 38.088 72.464ZM123.859 62.48V65.264H115.507V74H112.339V65.264H77.0107L115.507 1.04V62.48H123.859ZM112.339 62.48V12.08L81.8107 62.48H112.339Z" fill="#FF9900"/>
</svg>
