<svg width="215" height="216" viewBox="0 0 215 216" fill="none" xmlns="http://www.w3.org/2000/svg">
<path d="M212.328 108.675L210.298 108.628L210.277 109.518C210.273 109.674 210.27 109.805 210.268 109.909C210.268 110.016 210.269 110.13 210.272 110.253C210.277 110.378 210.284 110.48 210.292 110.558C210.301 110.639 210.313 110.725 210.329 110.817C210.345 110.908 210.366 110.982 210.391 111.037C210.415 111.095 210.445 111.153 210.48 111.211C210.518 111.269 210.561 111.316 210.61 111.351C210.659 111.386 210.715 111.417 210.78 111.444C210.844 111.475 210.915 111.496 210.993 111.508C211.074 111.523 211.162 111.531 211.258 111.534C211.365 111.536 211.462 111.528 211.548 111.509C211.637 111.493 211.713 111.469 211.776 111.436C211.842 111.406 211.9 111.363 211.951 111.307C212.004 111.254 212.049 111.199 212.084 111.142C212.119 111.088 212.149 111.019 212.175 110.933C212.203 110.851 212.223 110.773 212.235 110.7C212.249 110.63 212.262 110.541 212.272 110.432C212.282 110.325 212.289 110.231 212.29 110.151C212.295 110.073 212.298 109.972 212.301 109.85L212.328 108.675ZM209.88 108.622L207.447 108.566L207.418 109.792C207.415 109.941 207.413 110.066 207.414 110.167C207.417 110.269 207.424 110.388 207.437 110.523C207.452 110.662 207.474 110.777 207.503 110.869C207.535 110.961 207.578 111.057 207.633 111.157C207.691 111.257 207.761 111.338 207.842 111.4C207.924 111.462 208.027 111.512 208.152 111.552C208.278 111.594 208.421 111.617 208.58 111.62C208.71 111.623 208.827 111.614 208.932 111.593C209.039 111.575 209.134 111.55 209.215 111.518C209.297 111.486 209.368 111.439 209.429 111.378C209.493 111.317 209.547 111.257 209.59 111.198C209.633 111.139 209.67 111.063 209.701 110.97C209.734 110.877 209.759 110.79 209.777 110.71C209.794 110.632 209.808 110.535 209.819 110.418C209.829 110.301 209.837 110.197 209.842 110.106C209.846 110.018 209.85 109.907 209.853 109.774L209.88 108.622ZM207.042 107.986L212.759 108.118L212.72 109.832C212.716 110.015 212.706 110.18 212.693 110.328C212.681 110.479 212.661 110.635 212.631 110.795C212.601 110.956 212.563 111.097 212.516 111.219C212.469 111.343 212.407 111.461 212.332 111.574C212.256 111.687 212.168 111.779 212.068 111.849C211.967 111.922 211.844 111.979 211.7 112.02C211.559 112.061 211.401 112.08 211.226 112.076C210.555 112.06 210.166 111.699 210.06 110.99C209.969 111.397 209.793 111.7 209.531 111.9C209.268 112.1 208.944 112.195 208.559 112.186C208.239 112.179 207.976 112.123 207.77 112.02C207.564 111.916 207.402 111.752 207.285 111.528C207.17 111.304 207.092 111.036 207.049 110.725C207.009 110.415 206.995 110.026 207.006 109.56L207.042 107.986Z" fill="black"/>
<path d="M206.648 116.528L206.913 112.709L212.618 113.104L212.356 116.88L211.92 116.85L212.142 113.643L210.139 113.504L209.946 116.295L209.498 116.264L209.691 113.473L207.314 113.309L207.089 116.559L206.648 116.528Z" fill="black"/>
<path d="M206.162 120.961L206.55 117.494L212.233 118.129L212.17 118.696L206.925 118.11L206.601 121.01L206.162 120.961Z" fill="black"/>
<path d="M205.974 122.161L206.055 121.596L211.716 122.405L211.635 122.969L205.974 122.161Z" fill="black"/>
<path d="M205.123 127.239L205.793 123.471L211.424 124.473L210.76 128.199L210.33 128.123L210.893 124.958L208.916 124.606L208.426 127.359L207.984 127.281L208.474 124.527L206.128 124.109L205.557 127.317L205.123 127.239Z" fill="black"/>
<path d="M204.646 129.431L210.655 128.78L210.522 129.37L206.963 129.741C206.875 129.751 206.643 129.773 206.267 129.808C205.892 129.847 205.605 129.876 205.406 129.895C205.575 129.997 205.814 130.143 206.121 130.332C206.428 130.521 206.635 130.65 206.743 130.717L209.803 132.56L209.676 133.124L204.527 129.957L204.646 129.431Z" fill="black"/>
<path d="M202.822 136.525L203.847 132.836L209.357 134.367L208.344 138.014L207.922 137.897L208.783 134.8L206.848 134.262L206.1 136.957L205.667 136.837L206.416 134.142L204.12 133.504L203.248 136.643L202.822 136.525Z" fill="black"/>
<path d="M201.707 139.957L201.889 139.417L207.311 141.235L207.129 141.776L201.707 139.957Z" fill="black"/>
<path d="M201.269 141.307L206.611 143.347L206.384 143.942L200.59 145.505L202.024 146.053L205.125 147.237L204.946 147.708L199.603 145.668L199.787 145.186L205.791 143.59C205.791 143.59 205.286 143.397 204.276 143.012L201.084 141.792L201.269 141.307Z" fill="black"/>
<path d="M199.767 150.61L203.851 150.305L203.591 150.864L200.116 151.091L202.182 153.892L201.923 154.448L199.523 151.126L197.582 150.222L197.822 149.705L199.767 150.61Z" fill="black"/>
<path d="M200.376 157.654C200.197 157.989 199.992 158.258 199.76 158.459C199.527 158.662 199.26 158.803 198.959 158.881C198.657 158.959 198.314 158.955 197.928 158.87C197.543 158.788 197.123 158.625 196.666 158.381C195.747 157.89 195.173 157.354 194.943 156.773C194.713 156.193 194.784 155.554 195.156 154.859C195.336 154.521 195.542 154.252 195.774 154.051C196.005 153.85 196.274 153.712 196.579 153.639C196.884 153.566 197.231 153.573 197.621 153.661C198.01 153.751 198.44 153.921 198.911 154.173C199.37 154.419 199.741 154.678 200.024 154.95C200.308 155.226 200.501 155.509 200.605 155.801C200.711 156.094 200.744 156.392 200.703 156.695C200.663 157.001 200.554 157.321 200.376 157.654ZM199.975 157.435C200.103 157.196 200.182 156.968 200.212 156.751C200.241 156.537 200.227 156.337 200.169 156.153C200.112 155.972 200.012 155.795 199.867 155.624C199.723 155.452 199.55 155.292 199.349 155.143C199.149 154.998 198.911 154.851 198.633 154.702C197.859 154.288 197.229 154.105 196.743 154.152C196.259 154.201 195.865 154.51 195.561 155.079C195.255 155.651 195.215 156.151 195.441 156.579C195.667 157.007 196.169 157.429 196.948 157.845C197.225 157.994 197.482 158.11 197.717 158.195C197.952 158.282 198.181 158.336 198.405 158.359C198.628 158.383 198.831 158.368 199.014 158.312C199.2 158.258 199.375 158.158 199.538 158.012C199.701 157.869 199.846 157.676 199.975 157.435Z" fill="black"/>
<path d="M195.553 159.019L198.523 160.825L198.199 161.359L195.308 159.602C195.099 159.475 194.909 159.373 194.739 159.297C194.569 159.221 194.393 159.168 194.211 159.136C194.031 159.106 193.865 159.11 193.714 159.149C193.562 159.188 193.411 159.269 193.261 159.391C193.111 159.516 192.972 159.686 192.842 159.899C192.712 160.113 192.626 160.314 192.585 160.502C192.546 160.692 192.545 160.862 192.582 161.012C192.617 161.164 192.69 161.313 192.801 161.456C192.912 161.603 193.041 161.735 193.187 161.851C193.333 161.967 193.51 162.089 193.72 162.216L196.61 163.973L196.292 164.497L193.344 162.705C192.648 162.282 192.227 161.821 192.083 161.321C191.94 160.823 192.061 160.26 192.443 159.63C192.817 159.016 193.254 158.654 193.757 158.545C194.26 158.439 194.858 158.597 195.553 159.019Z" fill="black"/>
<path d="M191.568 168.792C191.246 168.571 191.041 168.308 190.954 168.002C190.868 167.7 190.897 167.344 191.041 166.935L188.051 166.495L188.396 165.992L191.298 166.409L192.307 164.937L190.139 163.451L190.459 162.983L195.176 166.217L194.007 167.922C193.587 168.534 193.183 168.905 192.793 169.036C192.406 169.168 191.997 169.087 191.568 168.792ZM194.507 166.446L192.671 165.187L191.896 166.318C191.79 166.472 191.702 166.611 191.634 166.735C191.563 166.86 191.505 166.998 191.458 167.149C191.41 167.303 191.391 167.441 191.401 167.565C191.409 167.691 191.453 167.818 191.531 167.948C191.612 168.079 191.731 168.199 191.89 168.308C192.054 168.42 192.209 168.49 192.357 168.519C192.507 168.549 192.638 168.548 192.752 168.515C192.867 168.486 192.983 168.423 193.102 168.324C193.22 168.228 193.32 168.131 193.401 168.032C193.482 167.932 193.575 167.807 193.679 167.654L194.507 166.446Z" fill="black"/>
<path d="M188.37 174.723L190.358 172.196L188.755 170.936L187.028 173.13L186.678 172.855L188.405 170.66L186.207 168.931L186.56 168.482L191.054 172.019L188.714 174.993L188.37 174.723Z" fill="black"/>
<path d="M185.253 173.733L187.864 176.028L187.451 176.498L184.911 174.264C184.727 174.102 184.558 173.969 184.403 173.865C184.249 173.76 184.085 173.677 183.911 173.614C183.739 173.553 183.575 173.529 183.419 173.541C183.263 173.552 183.101 173.605 182.931 173.699C182.762 173.797 182.595 173.939 182.43 174.127C182.265 174.315 182.146 174.498 182.072 174.676C182.001 174.856 181.97 175.023 181.98 175.177C181.988 175.334 182.034 175.492 182.119 175.653C182.203 175.817 182.307 175.969 182.43 176.109C182.554 176.249 182.707 176.399 182.891 176.561L185.432 178.795L185.027 179.255L182.436 176.978C181.824 176.44 181.49 175.912 181.435 175.395C181.382 174.88 181.598 174.346 182.085 173.792C182.559 173.253 183.053 172.973 183.567 172.953C184.081 172.936 184.643 173.196 185.253 173.733Z" fill="black"/>
<path d="M183.73 180.032L184.045 180.341L181.033 183.411L180.718 183.102L182.015 181.78L178.244 178.082L178.663 177.656L182.433 181.354L183.73 180.032Z" fill="black"/>
<path d="M177.802 181.714L180.157 184.271L179.698 184.695L177.406 182.206C177.24 182.026 177.086 181.876 176.944 181.756C176.801 181.636 176.647 181.535 176.481 181.455C176.316 181.376 176.156 181.335 175.999 181.33C175.843 181.325 175.675 181.361 175.497 181.436C175.319 181.516 175.138 181.64 174.954 181.809C174.77 181.979 174.632 182.148 174.54 182.318C174.45 182.489 174.402 182.652 174.396 182.806C174.387 182.963 174.417 183.125 174.483 183.294C174.55 183.466 174.637 183.628 174.745 183.78C174.853 183.932 174.99 184.098 175.156 184.278L177.448 186.767L176.996 187.182L174.66 184.645C174.108 184.045 173.831 183.485 173.831 182.966C173.832 182.448 174.103 181.939 174.646 181.44C175.174 180.953 175.695 180.727 176.208 180.761C176.72 180.799 177.252 181.116 177.802 181.714Z" fill="black"/>
<path d="M171.311 189.969C171.062 189.668 170.938 189.358 170.939 189.04C170.94 188.725 171.066 188.392 171.319 188.038L168.567 186.789L169.037 186.401L171.71 187.604L173.087 186.468L171.415 184.44L171.852 184.08L175.49 188.492L173.896 189.807C173.323 190.279 172.832 190.524 172.421 190.542C172.012 190.562 171.642 190.371 171.311 189.969ZM174.785 188.527L173.368 186.809L172.31 187.681C172.166 187.801 172.043 187.91 171.943 188.01C171.841 188.111 171.746 188.227 171.66 188.36C171.571 188.494 171.514 188.621 171.49 188.743C171.463 188.866 171.469 189.001 171.509 189.147C171.55 189.295 171.632 189.444 171.755 189.593C171.881 189.745 172.011 189.856 172.145 189.924C172.28 189.995 172.407 190.03 172.526 190.03C172.644 190.034 172.773 190.005 172.914 189.943C173.055 189.884 173.178 189.818 173.283 189.745C173.388 189.672 173.512 189.576 173.655 189.459L174.785 188.527Z" fill="black"/>
<path d="M165.032 189.432L168.098 187.139L171.523 191.718L168.492 193.985L168.23 193.635L170.804 191.71L169.602 190.102L167.362 191.777L167.093 191.417L169.332 189.742L167.905 187.834L165.296 189.785L165.032 189.432Z" fill="black"/>
<path d="M159.794 199.116L158.789 197.351L158.015 197.791C157.879 197.868 157.766 197.933 157.676 197.984C157.584 198.039 157.486 198.099 157.383 198.164C157.278 198.233 157.194 198.291 157.131 198.339C157.066 198.388 156.999 198.443 156.928 198.504C156.858 198.564 156.806 198.62 156.771 198.669C156.734 198.72 156.7 198.776 156.668 198.836C156.638 198.898 156.62 198.959 156.615 199.019C156.61 199.079 156.612 199.143 156.622 199.213C156.629 199.284 156.648 199.355 156.677 199.429C156.706 199.505 156.744 199.585 156.791 199.669C156.844 199.762 156.901 199.84 156.962 199.905C157.021 199.973 157.081 200.026 157.142 200.063C157.201 200.104 157.268 200.132 157.342 200.147C157.415 200.165 157.485 200.175 157.552 200.176C157.616 200.178 157.691 200.168 157.778 200.146C157.863 200.128 157.94 200.105 158.008 200.078C158.076 200.054 158.159 200.019 158.258 199.972C158.355 199.926 158.438 199.883 158.508 199.843C158.577 199.806 158.665 199.758 158.772 199.698L159.794 199.116ZM158.579 196.989L157.376 194.874L156.31 195.48C156.181 195.554 156.073 195.617 155.986 195.669C155.9 195.724 155.802 195.792 155.692 195.872C155.581 195.956 155.494 196.035 155.43 196.107C155.368 196.181 155.307 196.268 155.25 196.367C155.193 196.468 155.16 196.569 155.149 196.671C155.138 196.773 155.148 196.888 155.178 197.014C155.207 197.144 155.261 197.279 155.339 197.417C155.404 197.53 155.472 197.626 155.544 197.705C155.615 197.787 155.685 197.855 155.754 197.909C155.823 197.962 155.9 197.999 155.984 198.021C156.069 198.044 156.148 198.059 156.221 198.066C156.294 198.072 156.378 198.065 156.473 198.043C156.57 198.024 156.658 198.001 156.736 197.975C156.811 197.95 156.902 197.912 157.008 197.861C157.113 197.81 157.206 197.763 157.287 197.72C157.365 197.678 157.462 197.625 157.578 197.559L158.579 196.989ZM157.665 194.229L160.493 199.199L159.002 200.047C158.844 200.137 158.697 200.215 158.563 200.279C158.428 200.347 158.284 200.409 158.131 200.467C157.977 200.524 157.837 200.564 157.708 200.586C157.578 200.609 157.445 200.617 157.309 200.61C157.173 200.604 157.049 200.575 156.937 200.525C156.823 200.477 156.711 200.401 156.601 200.299C156.493 200.198 156.396 200.072 156.31 199.921C155.978 199.337 156.088 198.817 156.641 198.362C156.246 198.494 155.895 198.498 155.588 198.376C155.282 198.254 155.034 198.025 154.843 197.69C154.685 197.412 154.597 197.157 154.58 196.927C154.563 196.697 154.621 196.474 154.752 196.259C154.886 196.045 155.075 195.84 155.319 195.644C155.566 195.45 155.891 195.238 156.296 195.007L157.665 194.229Z" fill="black"/>
<path d="M150.011 198.327L153.425 196.597L156.01 201.698L152.634 203.409L152.436 203.019L155.304 201.565L154.396 199.774L151.901 201.039L151.698 200.638L154.193 199.374L153.116 197.248L150.21 198.721L150.011 198.327Z" fill="black"/>
<path d="M145.873 200.197L149.052 198.76L151.407 203.972L150.887 204.207L148.714 199.398L146.055 200.599L145.873 200.197Z" fill="black"/>
<path d="M144.886 200.581L145.412 200.362L147.61 205.642L147.083 205.861L144.886 200.581Z" fill="black"/>
<path d="M140.132 202.419L143.714 201.069L145.731 206.42L142.19 207.755L142.035 207.346L145.043 206.212L144.335 204.333L141.718 205.32L141.56 204.899L144.177 203.913L143.336 201.683L140.288 202.832L140.132 202.419Z" fill="black"/>
<path d="M137.799 203.184L141.414 208.028L140.838 208.214L138.709 205.337C138.656 205.267 138.519 205.078 138.298 204.772C138.074 204.469 137.904 204.237 137.786 204.075C137.784 204.273 137.779 204.552 137.772 204.912C137.765 205.273 137.76 205.517 137.757 205.644L137.725 209.216L137.175 209.393L137.286 203.35L137.799 203.184Z" fill="black"/>
<path d="M130.825 205.193L134.522 204.201L136.003 209.725L132.348 210.705L132.234 210.283L135.339 209.45L134.819 207.51L132.118 208.235L132.001 207.801L134.703 207.077L134.085 204.775L130.939 205.619L130.825 205.193Z" fill="black"/>
<path d="M127.267 205.974L127.825 205.856L129.009 211.45L128.451 211.568L127.267 205.974Z" fill="black"/>
<path d="M126.038 206.24L127.006 211.876L126.378 211.984L122.08 207.796L122.34 209.309L122.902 212.582L122.405 212.667L121.437 207.031L121.945 206.943L126.379 211.295C126.379 211.295 126.287 210.762 126.104 209.697L125.526 206.328L126.038 206.24Z" fill="black"/>
<path d="M117.151 209.679L119.487 213.043L118.873 213.103L116.913 210.224L115.549 213.426L114.938 213.485L116.583 209.73L116.376 207.599L116.943 207.544L117.151 209.679Z" fill="black"/>
<path d="M111.528 213.762C111.148 213.778 110.813 213.738 110.522 213.641C110.228 213.544 109.971 213.385 109.751 213.165C109.53 212.945 109.359 212.648 109.236 212.272C109.11 211.9 109.037 211.455 109.015 210.937C108.97 209.896 109.139 209.129 109.522 208.636C109.905 208.142 110.491 207.879 111.279 207.845C111.662 207.829 111.998 207.869 112.289 207.966C112.58 208.063 112.835 208.225 113.053 208.45C113.271 208.675 113.442 208.978 113.565 209.359C113.685 209.739 113.757 210.196 113.78 210.73C113.802 211.25 113.768 211.701 113.677 212.083C113.584 212.467 113.438 212.778 113.24 213.016C113.042 213.257 112.802 213.436 112.52 213.555C112.236 213.677 111.905 213.746 111.528 213.762ZM111.512 213.305C111.783 213.294 112.019 213.246 112.222 213.161C112.421 213.077 112.586 212.963 112.715 212.82C112.842 212.679 112.943 212.502 113.017 212.291C113.092 212.079 113.142 211.849 113.168 211.6C113.191 211.354 113.196 211.074 113.183 210.759C113.145 209.882 112.983 209.247 112.695 208.852C112.407 208.46 111.94 208.278 111.295 208.306C110.647 208.334 110.197 208.554 109.943 208.966C109.69 209.378 109.582 210.025 109.619 210.907C109.633 211.222 109.663 211.502 109.71 211.748C109.754 211.993 109.824 212.219 109.919 212.423C110.011 212.628 110.127 212.795 110.268 212.924C110.41 213.056 110.585 213.156 110.793 213.222C110.999 213.289 111.239 213.317 111.512 213.305Z" fill="black"/>
<path d="M107.361 210.3L107.293 213.776L106.668 213.764L106.734 210.382C106.739 210.137 106.731 209.922 106.711 209.737C106.691 209.552 106.649 209.372 106.585 209.199C106.521 209.029 106.433 208.888 106.324 208.776C106.214 208.665 106.068 208.575 105.887 208.506C105.704 208.44 105.487 208.404 105.237 208.399C104.987 208.395 104.77 208.422 104.587 208.481C104.403 208.542 104.256 208.627 104.144 208.734C104.03 208.841 103.939 208.979 103.871 209.147C103.8 209.317 103.751 209.495 103.724 209.679C103.697 209.863 103.681 210.078 103.676 210.323L103.61 213.705L102.997 213.693L103.064 210.244C103.08 209.429 103.267 208.834 103.626 208.458C103.985 208.085 104.533 207.905 105.27 207.92C105.988 207.934 106.521 208.13 106.868 208.509C107.212 208.891 107.376 209.488 107.361 210.3Z" fill="black"/>
<path d="M97.0093 211.779C97.038 211.389 97.1627 211.08 97.3832 210.851C97.601 210.624 97.9231 210.47 98.3495 210.389L97.2247 207.584L97.8325 207.629L98.9324 210.346L100.713 210.478L100.906 207.856L101.471 207.898L101.05 213.601L98.9894 213.449C98.2492 213.394 97.7246 213.231 97.4156 212.961C97.1064 212.692 96.9709 212.298 97.0093 211.779ZM100.516 213.138L100.68 210.918L99.3128 210.817C99.1259 210.803 98.9618 210.798 98.8206 210.8C98.6768 210.803 98.5278 210.822 98.3737 210.857C98.2171 210.893 98.0878 210.946 97.986 211.017C97.8815 211.087 97.7931 211.189 97.7206 211.322C97.6479 211.458 97.6045 211.622 97.5903 211.814C97.5757 212.011 97.5932 212.181 97.6428 212.323C97.6922 212.468 97.7596 212.581 97.8449 212.663C97.9274 212.748 98.0412 212.816 98.1862 212.869C98.3284 212.923 98.4627 212.961 98.5892 212.981C98.7157 213 98.8711 213.017 99.0555 213.031L100.516 213.138Z" fill="black"/>
<path d="M90.2163 211.994L93.4 212.441L93.6832 210.422L90.9173 210.034L90.9792 209.593L93.7451 209.981L94.1335 207.211L94.6983 207.29L93.904 212.953L90.1556 212.428L90.2163 211.994Z" fill="black"/>
<path d="M89.578 208.81L88.9105 212.221L88.2971 212.101L88.9466 208.782C88.9936 208.541 89.0234 208.328 89.0359 208.142C89.0484 207.956 89.0379 207.772 89.0045 207.591C88.9705 207.412 88.9091 207.258 88.8202 207.129C88.7313 207 88.6037 206.886 88.4373 206.787C88.2678 206.69 88.0604 206.618 87.8151 206.57C87.5697 206.522 87.3516 206.511 87.1607 206.537C86.9693 206.566 86.8094 206.624 86.6811 206.71C86.5502 206.796 86.4365 206.916 86.3401 207.07C86.2407 207.225 86.1617 207.391 86.1032 207.568C86.0447 207.745 85.992 207.954 85.945 208.194L85.2954 211.514L84.6936 211.396L85.3558 208.011C85.5123 207.211 85.7999 206.657 86.2184 206.349C86.6364 206.043 87.207 205.961 87.9303 206.103C88.6357 206.241 89.1264 206.527 89.4025 206.96C89.6755 207.396 89.734 208.012 89.578 208.81Z" fill="black"/>
<path d="M83.4334 210.67L83.3256 211.098L79.1551 210.047L79.263 209.619L81.0584 210.071L82.3486 204.95L82.9282 205.096L81.638 210.217L83.4334 210.67Z" fill="black"/>
<path d="M78.9327 206.381L77.8925 209.698L77.2961 209.511L78.3083 206.283C78.3815 206.049 78.4347 205.841 78.4676 205.658C78.5006 205.474 78.5105 205.29 78.4973 205.106C78.4833 204.924 78.4393 204.764 78.3652 204.627C78.291 204.489 78.1768 204.361 78.0223 204.245C77.8646 204.13 77.6664 204.035 77.4279 203.96C77.1893 203.885 76.9737 203.85 76.7811 203.855C76.5877 203.863 76.4224 203.903 76.2853 203.974C76.1458 204.045 76.0196 204.152 75.9068 204.294C75.7908 204.437 75.6939 204.594 75.6162 204.763C75.5385 204.933 75.4631 205.134 75.3898 205.368L74.3776 208.596L73.7925 208.412L74.8245 205.121C75.0684 204.343 75.4154 203.824 75.8654 203.564C76.3146 203.307 76.8908 203.288 77.594 203.509C78.2798 203.724 78.736 204.062 78.9625 204.523C79.1858 204.986 79.1758 205.605 78.9327 206.381Z" fill="black"/>
<path d="M68.5872 204.906C68.7237 204.54 68.9298 204.278 69.2056 204.119C69.4781 203.962 69.8303 203.905 70.2623 203.946L69.9661 200.939L70.5371 201.151L70.834 204.068L72.5068 204.691L73.425 202.228L73.9557 202.426L71.9583 207.784L70.022 207.063C69.3266 206.803 68.8684 206.5 68.6473 206.154C68.4253 205.81 68.4053 205.394 68.5872 204.906ZM71.5749 207.191L72.3526 205.105L71.0679 204.626C70.8922 204.56 70.7362 204.509 70.5998 204.472C70.4611 204.434 70.3128 204.411 70.1549 204.402C69.9945 204.393 69.8556 204.407 69.738 204.447C69.618 204.486 69.5046 204.559 69.3978 204.666C69.2901 204.776 69.2026 204.921 69.1353 205.102C69.0662 205.287 69.0356 205.455 69.0435 205.606C69.0505 205.758 69.0835 205.886 69.1426 205.989C69.1982 206.093 69.2884 206.19 69.4129 206.281C69.5341 206.373 69.6526 206.447 69.7686 206.501C69.8845 206.555 70.0291 206.615 70.2023 206.68L71.5749 207.191Z" fill="black"/>
<path d="M65.9042 199.193L69.4217 200.703L67.1651 205.958L63.6871 204.464L63.8597 204.062L66.8137 205.331L67.606 203.486L65.036 202.383L65.2133 201.97L67.7832 203.073L68.7235 200.884L65.73 199.598L65.9042 199.193Z" fill="black"/>
<path d="M54.9047 199.492L55.9351 197.741L55.1676 197.29C55.0329 197.21 54.9207 197.144 54.8309 197.091C54.7376 197.04 54.6369 196.985 54.5288 196.927C54.4171 196.871 54.3249 196.827 54.2523 196.796C54.1775 196.764 54.0961 196.733 54.0083 196.702C53.9205 196.672 53.8465 196.654 53.7861 196.649C53.7236 196.642 53.6583 196.64 53.5905 196.642C53.5213 196.647 53.4595 196.662 53.4053 196.687C53.351 196.713 53.2961 196.747 53.2407 196.79C53.1829 196.832 53.1298 196.883 53.0812 196.945C53.029 197.008 52.9785 197.081 52.9296 197.164C52.8754 197.256 52.8355 197.345 52.8099 197.429C52.7807 197.515 52.7648 197.593 52.7623 197.664C52.7562 197.736 52.7653 197.808 52.7896 197.88C52.8103 197.952 52.8367 198.018 52.8689 198.076C52.8989 198.133 52.9449 198.193 53.0071 198.257C53.0657 198.322 53.1238 198.377 53.1814 198.423C53.2353 198.47 53.3075 198.525 53.3978 198.587C53.4858 198.648 53.5646 198.699 53.6342 198.74C53.7002 198.781 53.786 198.833 53.8914 198.895L54.9047 199.492ZM56.1438 197.379L57.3783 195.282L56.3212 194.66C56.1933 194.584 56.0849 194.522 55.9961 194.473C55.9059 194.426 55.7985 194.375 55.6739 194.32C55.5457 194.265 55.4344 194.228 55.34 194.209C55.2443 194.192 55.1392 194.183 55.0249 194.182C54.9092 194.184 54.8045 194.205 54.7106 194.247C54.6167 194.288 54.5223 194.353 54.4275 194.443C54.3291 194.533 54.2396 194.646 54.159 194.783C54.093 194.895 54.0436 195.002 54.011 195.104C53.9748 195.207 53.9508 195.301 53.939 195.388C53.9272 195.475 53.9331 195.56 53.9566 195.643C53.9787 195.729 54.005 195.805 54.0355 195.871C54.066 195.937 54.1144 196.006 54.1806 196.079C54.2456 196.153 54.3089 196.218 54.3705 196.272C54.4299 196.325 54.5081 196.385 54.6052 196.451C54.7022 196.517 54.7893 196.574 54.8665 196.623C54.9415 196.67 55.0362 196.727 55.1507 196.795L56.1438 197.379ZM58.0818 195.211L55.1808 200.139L53.703 199.27C53.5459 199.177 53.406 199.089 53.2834 199.004C53.1572 198.921 53.0311 198.827 52.9052 198.723C52.7792 198.619 52.6748 198.516 52.5917 198.416C52.5065 198.314 52.433 198.203 52.3712 198.082C52.3095 197.961 52.2723 197.84 52.2596 197.717C52.2447 197.594 52.2545 197.459 52.289 197.313C52.3222 197.169 52.3831 197.022 52.4716 196.872C52.8124 196.293 53.318 196.13 53.9882 196.382C53.6768 196.105 53.4979 195.804 53.4514 195.477C53.4049 195.151 53.4794 194.821 53.6749 194.489C53.8374 194.213 54.0141 194.01 54.205 193.881C54.396 193.752 54.6179 193.69 54.8708 193.697C55.1223 193.706 55.3941 193.768 55.6863 193.883C55.9771 193.999 56.3234 194.176 56.7251 194.413L58.0818 195.211Z" fill="black"/>
<path d="M50.725 190.63L53.9273 192.728L50.7939 197.512L47.6275 195.438L47.8672 195.072L50.5565 196.833L51.6567 195.154L49.317 193.621L49.5631 193.245L51.9028 194.778L53.2084 192.784L50.4831 190.999L50.725 190.63Z" fill="black"/>
<path d="M47.0461 187.987L49.8772 190.025L46.5364 194.666L46.0735 194.333L49.1565 190.05L46.7882 188.345L47.0461 187.987Z" fill="black"/>
<path d="M46.2221 187.328L46.6751 187.675L43.1999 192.216L42.747 191.87L46.2221 187.328Z" fill="black"/>
<path d="M42.2692 184.147L45.2315 186.572L41.6091 190.997L38.6801 188.6L38.9572 188.261L41.4449 190.297L42.7167 188.744L40.5525 186.972L40.837 186.624L43.0013 188.396L44.5106 186.552L41.9896 184.489L42.2692 184.147Z" fill="black"/>
<path d="M40.3957 182.477L38.0019 188.027L37.5535 187.62L38.9845 184.34C39.0193 184.259 39.1141 184.046 39.2688 183.702C39.4198 183.357 39.5361 183.093 39.6176 182.91C39.4453 183.007 39.2011 183.143 38.8851 183.316C38.569 183.49 38.3553 183.608 38.244 183.668L35.1323 185.423L34.7042 185.035L39.9966 182.115L40.3957 182.477Z" fill="black"/>
<path d="M35.1805 177.466L37.8907 180.17L33.8518 184.219L31.1721 181.545L31.4811 181.236L33.757 183.506L35.1751 182.085L33.195 180.109L33.5122 179.791L35.4923 181.767L37.1752 180.08L34.8688 177.779L35.1805 177.466Z" fill="black"/>
<path d="M32.7594 174.837L33.1421 175.259L28.9027 179.098L28.5199 178.675L32.7594 174.837Z" fill="black"/>
<path d="M31.8791 173.882L27.4896 177.548L27.0815 177.059L28.5474 171.239L27.3691 172.223L24.8205 174.352L24.4976 173.965L28.887 170.299L29.2176 170.695L27.6783 176.713C27.6783 176.713 28.0931 176.367 28.9226 175.674L31.5461 173.483L31.8791 173.882Z" fill="black"/>
<path d="M24.4188 167.922L22.6828 171.631L22.3227 171.13L23.8282 167.99L20.3741 168.417L20.0163 167.919L24.0892 167.456L25.8278 166.207L26.1605 166.67L24.4188 167.922Z" fill="black"/>
<path d="M18.1067 165.204C17.901 164.885 17.7666 164.575 17.7036 164.275C17.6391 163.972 17.6462 163.671 17.7247 163.369C17.8033 163.068 17.9736 162.769 18.2355 162.474C18.4939 162.177 18.8409 161.889 19.2767 161.609C20.1527 161.045 20.9003 160.804 21.5195 160.885C22.1387 160.967 22.6617 161.34 23.0887 162.003C23.2959 162.325 23.431 162.636 23.494 162.936C23.5571 163.236 23.5464 163.537 23.462 163.839C23.3777 164.141 23.2023 164.441 22.936 164.74C22.6683 165.036 22.3099 165.328 21.861 165.617C21.423 165.899 21.0164 166.097 20.641 166.212C20.2621 166.326 19.9199 166.357 19.6145 166.306C19.3069 166.256 19.0306 166.14 18.7858 165.956C18.5374 165.773 18.3111 165.522 18.1067 165.204ZM18.4932 164.96C18.6397 165.188 18.8004 165.368 18.9753 165.5C19.1487 165.63 19.3301 165.715 19.5194 165.754C19.7052 165.792 19.9082 165.79 20.1285 165.747C20.3488 165.705 20.5728 165.632 20.8006 165.529C21.0247 165.425 21.2693 165.287 21.5343 165.117C22.2723 164.642 22.7388 164.181 22.9339 163.733C23.1268 163.287 23.0485 162.792 22.699 162.249C22.3481 161.704 21.9308 161.426 21.4469 161.415C20.9631 161.404 20.35 161.638 19.6077 162.116C19.3427 162.286 19.116 162.454 18.9277 162.618C18.738 162.781 18.5788 162.954 18.4501 163.139C18.32 163.322 18.2346 163.507 18.1941 163.694C18.1513 163.883 18.1538 164.084 18.2016 164.298C18.248 164.51 18.3452 164.73 18.4932 164.96Z" fill="black"/>
<path d="M19.1791 160.187L16.1502 161.893L15.8434 161.349L18.7906 159.688C19.0039 159.568 19.1853 159.452 19.3349 159.341C19.4845 159.23 19.6175 159.103 19.7341 158.959C19.8483 158.817 19.9256 158.671 19.9659 158.519C20.0062 158.368 20.01 158.197 19.9772 158.006C19.9409 157.814 19.8614 157.61 19.7387 157.392C19.616 157.174 19.4827 157.001 19.3387 156.873C19.1925 156.746 19.0449 156.662 18.896 156.62C18.7457 156.576 18.5808 156.568 18.4014 156.594C18.2184 156.619 18.0407 156.667 17.8681 156.738C17.6955 156.808 17.5025 156.903 17.2893 157.023L14.3421 158.684L14.041 158.15L17.0461 156.456C17.7562 156.056 18.3643 155.915 18.8704 156.034C19.3743 156.154 19.807 156.534 20.1688 157.176C20.5216 157.803 20.6227 158.361 20.4721 158.853C20.318 159.343 19.887 159.788 19.1791 160.187Z" fill="black"/>
<path d="M12.6876 152.115C13.0374 151.941 13.3671 151.89 13.6767 151.963C13.9828 152.035 14.2794 152.234 14.5663 152.559L16.4058 150.161L16.6772 150.707L14.9007 153.039L15.6956 154.637L18.0495 153.467L18.3017 153.974L13.1811 156.52L12.261 154.67C11.9305 154.005 11.803 153.471 11.8784 153.067C11.9515 152.664 12.2212 152.347 12.6876 152.115ZM13.3067 155.825L15.3003 154.834L14.6898 153.606C14.6063 153.438 14.5275 153.294 14.4532 153.174C14.3777 153.051 14.2854 152.933 14.1762 152.819C14.0658 152.702 13.9542 152.618 13.8413 152.566C13.7273 152.513 13.5946 152.488 13.4432 152.494C13.2894 152.501 13.1263 152.547 12.9537 152.633C12.7765 152.721 12.6395 152.822 12.5426 152.937C12.4433 153.054 12.3802 153.169 12.3531 153.285C12.3226 153.399 12.3217 153.531 12.3505 153.683C12.3758 153.833 12.4122 153.968 12.4597 154.087C12.5072 154.206 12.5721 154.348 12.6544 154.513L13.3067 155.825Z" fill="black"/>
<path d="M8.992 146.226L10.2171 149.198L12.1023 148.421L11.038 145.839L11.4497 145.669L12.514 148.251L15.0999 147.185L15.3172 147.713L10.03 149.892L8.58752 146.392L8.992 146.226Z" fill="black"/>
<path d="M11.4312 144.137L8.15215 145.292L7.94451 144.703L11.1352 143.579C11.3661 143.498 11.5648 143.415 11.7314 143.332C11.898 143.248 12.0511 143.146 12.1908 143.025C12.3279 142.905 12.4295 142.774 12.4954 142.632C12.5614 142.49 12.5948 142.322 12.5956 142.129C12.5932 141.933 12.5504 141.718 12.4673 141.482C12.3843 141.246 12.283 141.053 12.1635 140.902C12.0415 140.751 11.9108 140.643 11.7713 140.576C11.6309 140.507 11.4701 140.469 11.2888 140.464C11.1042 140.458 10.9208 140.474 10.7386 140.513C10.5565 140.552 10.3499 140.613 10.119 140.694L6.92837 141.818L6.72462 141.239L9.97792 140.094C10.7467 139.823 11.3701 139.79 11.8479 139.994C12.3233 140.199 12.6835 140.649 12.9283 141.345C13.1671 142.023 13.1697 142.59 12.9361 143.048C12.6992 143.504 12.1976 143.867 11.4312 144.137Z" fill="black"/>
<path d="M6.72032 139.85L6.29685 139.975L5.08329 135.849L5.50676 135.724L6.02922 137.5L11.0959 136.01L11.2645 136.584L6.19786 138.074L6.72032 139.85Z" fill="black"/>
<path d="M8.13727 133.849L4.75478 134.652L4.61037 134.044L7.90166 133.262C8.13982 133.206 8.34615 133.145 8.52063 133.079C8.6951 133.013 8.85813 132.928 9.00971 132.822C9.15876 132.717 9.27356 132.598 9.3541 132.464C9.43464 132.329 9.48553 132.166 9.50675 131.974C9.52484 131.779 9.50501 131.56 9.44725 131.317C9.38949 131.074 9.30914 130.871 9.20621 130.708C9.10075 130.546 8.98218 130.424 8.8505 130.343C8.71821 130.259 8.5622 130.205 8.38246 130.181C8.1996 130.155 8.01551 130.152 7.8302 130.172C7.64489 130.191 7.43315 130.23 7.19498 130.286L3.9037 131.068L3.76201 130.471L7.1179 129.674C7.91095 129.486 8.53431 129.519 8.988 129.772C9.43914 130.026 9.74986 130.512 9.92013 131.229C10.0862 131.928 10.029 132.493 9.74849 132.924C9.46486 133.353 8.92779 133.661 8.13727 133.849Z" fill="black"/>
<path d="M4.11668 124.218C4.501 124.148 4.83175 124.191 5.10895 124.347C5.38312 124.501 5.61282 124.774 5.79804 125.166L8.2313 123.374L8.34038 123.973L5.98607 125.72L6.30562 127.476L8.89206 127.005L8.99345 127.563L3.36706 128.586L2.99717 126.553C2.86432 125.823 2.89023 125.275 3.07489 124.907C3.257 124.541 3.60426 124.311 4.11668 124.218ZM3.68074 127.954L5.87134 127.555L5.62591 126.206C5.59235 126.022 5.55658 125.861 5.51859 125.725C5.48014 125.587 5.42434 125.447 5.35119 125.307C5.27757 125.164 5.1937 125.053 5.09959 124.972C5.00501 124.888 4.88424 124.828 4.73726 124.792C4.58772 124.755 4.41815 124.754 4.22855 124.789C4.03383 124.824 3.87394 124.884 3.74887 124.967C3.62123 125.052 3.52842 125.145 3.47044 125.248C3.40942 125.349 3.37171 125.477 3.35728 125.63C3.33983 125.782 3.3374 125.921 3.34999 126.048C3.36259 126.176 3.38543 126.331 3.41853 126.512L3.68074 127.954Z" fill="black"/>
<path d="M7.63656 118.88L8.13423 122.675L2.46402 123.419L1.97193 119.666L2.40572 119.609L2.82366 122.796L4.81443 122.535L4.45083 119.762L4.89624 119.704L5.25984 122.477L7.62243 122.167L7.1989 118.937L7.63656 118.88Z" fill="black"/>
<path d="M1.7166 107.226L3.74761 107.257L3.7613 106.367C3.7637 106.211 3.7657 106.08 3.7673 105.976C3.76634 105.87 3.76419 105.755 3.76086 105.632C3.75497 105.507 3.74742 105.406 3.73821 105.327C3.72903 105.246 3.71603 105.16 3.6992 105.069C3.68238 104.977 3.66136 104.904 3.63617 104.849C3.61101 104.791 3.58064 104.734 3.54507 104.676C3.50689 104.618 3.46332 104.572 3.41437 104.537C3.36542 104.503 3.30859 104.472 3.2439 104.445C3.17924 104.415 3.10794 104.394 3.02998 104.383C2.94946 104.368 2.86103 104.361 2.76469 104.359C2.65793 104.358 2.56142 104.366 2.47518 104.386C2.38637 104.403 2.31045 104.428 2.24744 104.461C2.18186 104.491 2.1239 104.534 2.07355 104.591C2.02063 104.645 1.9768 104.7 1.94207 104.757C1.90738 104.811 1.87766 104.881 1.85291 104.966C1.82559 105.049 1.80616 105.127 1.79462 105.2C1.78052 105.27 1.76873 105.36 1.75924 105.469C1.74978 105.575 1.74444 105.669 1.7432 105.75C1.73939 105.828 1.73655 105.928 1.73467 106.051L1.7166 107.226ZM4.16559 107.26L6.5989 107.297L6.61775 106.071C6.62003 105.922 6.62065 105.797 6.6196 105.696C6.61596 105.594 6.60736 105.476 6.59382 105.34C6.57771 105.202 6.55474 105.087 6.52489 104.995C6.49244 104.903 6.44833 104.808 6.39257 104.708C6.3342 104.608 6.26381 104.528 6.18141 104.466C6.09901 104.405 5.99559 104.355 5.87117 104.317C5.74418 104.276 5.60127 104.254 5.44243 104.252C5.31224 104.25 5.19489 104.26 5.09037 104.282C4.98329 104.301 4.88913 104.327 4.80789 104.359C4.72665 104.392 4.65561 104.439 4.59476 104.501C4.53131 104.562 4.47829 104.622 4.43571 104.682C4.39313 104.741 4.35679 104.817 4.32671 104.911C4.29402 105.004 4.26925 105.091 4.25238 105.171C4.23556 105.249 4.22234 105.347 4.21273 105.464C4.20312 105.581 4.19631 105.685 4.19231 105.776C4.18834 105.864 4.18534 105.975 4.1833 106.108L4.16559 107.26ZM7.00806 107.874L1.28998 107.786L1.31633 106.071C1.31913 105.889 1.32688 105.724 1.33958 105.576C1.34971 105.425 1.36903 105.269 1.39755 105.108C1.42607 104.947 1.46341 104.805 1.50955 104.684C1.55574 104.559 1.61617 104.44 1.69083 104.327C1.7655 104.214 1.85287 104.121 1.95294 104.05C2.05304 103.976 2.17504 103.918 2.31894 103.876C2.46023 103.834 2.6181 103.814 2.79256 103.817C3.46435 103.827 3.85602 104.186 3.96756 104.893C4.05456 104.486 4.22853 104.181 4.48948 103.979C4.75042 103.778 5.07358 103.68 5.45895 103.686C5.77922 103.691 6.04275 103.744 6.24954 103.846C6.45633 103.948 6.61921 104.111 6.73819 104.334C6.85457 104.557 6.93511 104.824 6.97983 105.135C7.02193 105.446 7.03941 105.834 7.03224 106.3L7.00806 107.874Z" fill="black"/>
<path d="M7.3677 98.9408L7.11802 102.761L1.41144 102.388L1.65833 98.6107L2.0949 98.6392L1.88521 101.847L3.88875 101.978L4.07117 99.1873L4.51943 99.2166L4.33701 102.007L6.71475 102.163L6.92724 98.912L7.3677 98.9408Z" fill="black"/>
<path d="M7.83265 94.533L7.45865 98.0012L1.77286 97.388L1.83401 96.821L7.08093 97.3868L7.39379 94.4857L7.83265 94.533Z" fill="black"/>
<path d="M7.96086 93.726L7.88456 94.2911L2.21722 93.526L2.29353 92.9608L7.96086 93.726Z" fill="black"/>
<path d="M8.77324 88.6295L8.13109 92.4034L2.49337 91.4441L3.12832 87.7125L3.55962 87.7859L3.02034 90.9552L4.9997 91.292L5.46887 88.5348L5.91172 88.6101L5.44256 91.3674L7.79161 91.7671L8.33809 88.5554L8.77324 88.6295Z" fill="black"/>
<path d="M9.30043 86.1079L3.29378 86.7819L3.42472 86.1907L6.98263 85.8065C7.07018 85.7966 7.30207 85.7733 7.67828 85.7366C8.05252 85.6968 8.33919 85.6669 8.53832 85.647C8.36877 85.5454 8.13013 85.4006 7.8224 85.2124C7.51467 85.0242 7.30683 84.8968 7.19889 84.8302L4.1318 82.9986L4.25682 82.4341L9.41701 85.5816L9.30043 86.1079Z" fill="black"/>
<path d="M11.0976 78.9862L10.0869 82.6785L4.57104 81.1686L5.57043 77.5178L5.9924 77.6333L5.1436 80.734L7.08016 81.2642L7.81861 78.5665L8.25189 78.6851L7.51344 81.3828L9.8117 82.0119L10.6718 78.8697L11.0976 78.9862Z" fill="black"/>
<path d="M12.1768 75.6022L11.9974 76.1436L6.56882 74.3451L6.74818 73.8038L12.1768 75.6022Z" fill="black"/>
<path d="M12.4899 74.5817L7.13252 72.5812L7.35525 71.9847L13.1379 70.3787L11.6997 69.8417L8.58918 68.6802L8.76546 68.2081L14.1229 70.2087L13.9425 70.6917L7.951 72.3322C7.951 72.3322 8.45722 72.5213 9.46967 72.8993L12.6717 74.095L12.4899 74.5817Z" fill="black"/>
<path d="M14.0572 64.9471L9.97398 65.2675L10.2323 64.707L13.7063 64.4671L11.6302 61.6737L11.8869 61.1168L14.2994 64.4308L16.2435 65.3267L16.0048 65.8447L14.0572 64.9471Z" fill="black"/>
<path d="M13.2414 58.2307C13.4182 57.8941 13.6216 57.6244 13.8516 57.4217C14.0829 57.2166 14.349 57.074 14.6499 56.9938C14.9509 56.9137 15.2945 56.9147 15.6808 56.997C16.0659 57.0757 16.4879 57.2356 16.9467 57.4765C17.8689 57.9609 18.4471 58.4926 18.6813 59.0715C18.9155 59.6505 18.8492 60.2892 18.4823 60.9878C18.3043 61.3267 18.1003 61.5975 17.8702 61.8003C17.6402 62.003 17.373 62.1421 17.0686 62.2176C16.7643 62.2931 16.4167 62.2884 16.0258 62.2037C15.6361 62.1168 15.205 61.9491 14.7324 61.7009C14.2713 61.4587 13.8984 61.2026 13.6137 60.9325C13.328 60.6588 13.1321 60.3765 13.0261 60.0855C12.9178 59.7933 12.883 59.4956 12.9216 59.1923C12.9592 58.8856 13.0658 58.565 13.2414 58.2307ZM13.6442 58.4467C13.5182 58.6865 13.4409 58.915 13.4121 59.1322C13.3845 59.3472 13.4003 59.5467 13.4595 59.7308C13.5177 59.9113 13.6196 60.0869 13.7653 60.2575C13.9109 60.4282 14.0848 60.5872 14.2869 60.7345C14.4879 60.8783 14.7278 61.0235 15.0068 61.17C15.7838 61.578 16.415 61.7567 16.9006 61.7058C17.3839 61.6537 17.7757 61.3418 18.076 60.77C18.3776 60.1959 18.4138 59.6958 18.1846 59.2695C17.9555 58.8433 17.4502 58.4249 16.6686 58.0144C16.3896 57.8679 16.1322 57.7532 15.8962 57.6705C15.6614 57.5854 15.4319 57.5325 15.2075 57.5117C14.9843 57.4886 14.7812 57.5055 14.5984 57.5624C14.4132 57.6181 14.2394 57.7195 14.0769 57.8665C13.9156 58.0112 13.7713 58.2046 13.6442 58.4467Z" fill="black"/>
<path d="M18.1729 56.5987L15.1954 54.8039L15.5181 54.2687L18.4153 56.0151C18.6249 56.1414 18.815 56.2423 18.9854 56.3177C19.1559 56.3931 19.3322 56.4461 19.5143 56.4769C19.6942 56.5063 19.8599 56.5013 20.0114 56.4618C20.1629 56.4224 20.3136 56.3414 20.4634 56.2189C20.6124 56.0928 20.7515 55.9227 20.8805 55.7086C21.0096 55.4945 21.0944 55.2933 21.135 55.1049C21.1733 54.9151 21.1739 54.7452 21.1367 54.5951C21.1008 54.4427 21.0272 54.295 20.9159 54.1518C20.8036 54.0051 20.6744 53.874 20.5281 53.7584C20.3819 53.6429 20.2039 53.522 19.9943 53.3956L17.0971 51.6492L17.4137 51.1239L20.3678 52.9046C21.0659 53.3254 21.4881 53.7852 21.6344 54.2839C21.7786 54.7813 21.6604 55.3456 21.2799 55.9767C20.9088 56.5923 20.4724 56.9556 19.9707 57.0667C19.468 57.1742 18.8687 57.0182 18.1729 56.5987Z" fill="black"/>
<path d="M21.8788 47.1312C22.2026 47.3497 22.4091 47.6117 22.4984 47.917C22.5869 48.2187 22.5603 48.5746 22.4186 48.9848L25.4118 49.4028L25.0709 49.9079L22.1664 49.512L21.1676 50.9917L23.3466 52.4624L23.0297 52.9319L18.2897 49.7325L19.4458 48.0197C19.861 47.4046 20.2629 47.0302 20.6516 46.8967C21.038 46.7616 21.4471 46.8398 21.8788 47.1312ZM18.9563 49.4991L20.8018 50.7447L21.5688 49.6083C21.6737 49.4529 21.7601 49.3133 21.828 49.1894C21.8973 49.0634 21.9548 48.9247 22.0005 48.7733C22.0476 48.6197 22.0657 48.4811 22.0549 48.3576C22.0455 48.2318 22.0011 48.1045 21.9216 47.9754C21.8401 47.845 21.7194 47.7258 21.5597 47.618C21.3956 47.5073 21.2396 47.4381 21.0917 47.4106C20.9417 47.3815 20.8098 47.3837 20.6963 47.417C20.582 47.4466 20.466 47.5113 20.3484 47.6111C20.2302 47.7072 20.131 47.8052 20.051 47.9051C19.971 48.0051 19.8792 48.1317 19.7758 48.2849L18.9563 49.4991Z" fill="black"/>
<path d="M25.2473 40.8825L23.2685 43.4162L24.8756 44.6713L26.5946 42.47L26.9456 42.7441L25.2265 44.9453L27.4308 46.6668L27.0798 47.1163L22.5727 43.5964L24.9024 40.6132L25.2473 40.8825Z" fill="black"/>
<path d="M28.0868 42.1735L25.4592 39.897L25.8685 39.4246L28.4252 41.6398C28.6102 41.8001 28.7802 41.9319 28.9353 42.0353C29.0904 42.1386 29.2551 42.221 29.4293 42.2824C29.6016 42.342 29.7657 42.3654 29.9217 42.3523C30.0777 42.3393 30.24 42.2853 30.4085 42.1901C30.5769 42.0913 30.7429 41.9474 30.9066 41.7585C31.0703 41.5695 31.1882 41.3857 31.2603 41.207C31.3305 41.0266 31.3601 40.8593 31.349 40.705C31.3397 40.5487 31.2924 40.3906 31.2071 40.2305C31.1215 40.0668 31.0165 39.9155 30.8921 39.7768C30.7677 39.638 30.613 39.4884 30.428 39.3281L27.8713 37.113L28.2729 36.6495L30.8798 38.9081C31.4958 39.4419 31.8334 39.9669 31.8925 40.4833C31.9497 40.998 31.7369 41.5338 31.2544 42.0908C30.7837 42.634 30.2917 42.9175 29.7783 42.9414C29.2647 42.9615 28.7008 42.7056 28.0868 42.1735Z" fill="black"/>
<path d="M29.6953 35.7018L29.3779 35.395L32.367 32.3027L32.6844 32.6095L31.3975 33.9408L35.1947 37.6114L34.7793 38.0411L30.9821 34.3705L29.6953 35.7018Z" fill="black"/>
<path d="M35.8388 33.7413L33.4746 31.1924L33.9328 30.7674L36.2333 33.2475C36.3998 33.427 36.5545 33.5766 36.6974 33.6962C36.8403 33.8158 36.995 33.9156 37.1616 33.9956C37.3263 34.0736 37.4869 34.1147 37.6434 34.1187C37.7999 34.1227 37.9671 34.0866 38.145 34.0104C38.3231 33.9305 38.5038 33.8055 38.687 33.6355C38.8703 33.4655 39.0076 33.2956 39.0987 33.1258C39.1881 32.9541 39.2357 32.791 39.2415 32.6364C39.2492 32.48 39.2194 32.3177 39.152 32.1493C39.0847 31.9772 38.9968 31.8155 38.8883 31.664C38.7797 31.5125 38.6422 31.347 38.4757 31.1675L36.1752 28.6874L36.6248 28.2703L38.9705 30.7991C39.5248 31.3967 39.8033 31.9554 39.8059 32.4752C39.8067 32.993 39.5369 33.5025 38.9966 34.0037C38.4697 34.4925 37.9497 34.7208 37.4368 34.6886C36.924 34.6528 36.3914 34.337 35.8388 33.7413Z" fill="black"/>
<path d="M41.9576 25.7244C42.2083 26.0239 42.3343 26.3327 42.3357 26.6508C42.3374 26.9653 42.2134 27.3 41.9637 27.6549L44.7247 28.8843L44.2574 29.2755L41.5756 28.0919L40.2067 29.2377L41.894 31.2536L41.4596 31.6172L37.7891 27.2318L39.3737 25.9055C39.9429 25.4291 40.4326 25.1805 40.843 25.1596C41.2518 25.1367 41.6233 25.325 41.9576 25.7244ZM38.4942 27.1918L39.9233 28.8992L40.9747 28.0192C41.1185 27.8988 41.2402 27.7885 41.3396 27.6883C41.4411 27.5864 41.5347 27.469 41.6205 27.3361C41.7082 27.2015 41.7639 27.0734 41.7877 26.9516C41.8134 26.8282 41.806 26.6935 41.7653 26.5475C41.723 26.3996 41.64 26.2517 41.5163 26.1039C41.3892 25.9522 41.2585 25.8426 41.124 25.7752C40.9878 25.7058 40.8605 25.6714 40.7421 25.672C40.6241 25.6689 40.4948 25.699 40.3542 25.7624C40.214 25.822 40.0916 25.8888 39.987 25.9627C39.8825 26.0366 39.7593 26.1329 39.6175 26.2516L38.4942 27.1918Z" fill="black"/>
<path d="M48.1122 26.2985L45.0634 28.6136L41.6049 24.0592L44.6194 21.77L44.884 22.1185L42.3237 24.0627L43.538 25.6617L45.7654 23.9703L46.0371 24.328L43.8096 26.0195L45.2507 27.9172L47.8452 25.9469L48.1122 26.2985Z" fill="black"/>
<path d="M53.6509 16.2999L54.6618 18.0618L55.4343 17.6185C55.5699 17.5407 55.6828 17.4759 55.7731 17.4241C55.8645 17.3687 55.9619 17.3083 56.0655 17.2428C56.17 17.1739 56.2535 17.1154 56.3161 17.0675C56.381 17.0183 56.4484 16.9631 56.5184 16.9019C56.5883 16.8407 56.6406 16.7852 56.675 16.7354C56.7118 16.6843 56.7459 16.6287 56.7775 16.5686C56.8077 16.5062 56.8252 16.4451 56.8299 16.3853C56.8347 16.3256 56.8321 16.261 56.8223 16.1915C56.8148 16.1208 56.7961 16.049 56.7662 15.976C56.7373 15.8995 56.6989 15.8195 56.651 15.7359C56.5978 15.6433 56.5408 15.5649 56.48 15.5008C56.4201 15.433 56.3599 15.3805 56.2995 15.3431C56.24 15.3022 56.173 15.2746 56.0987 15.2602C56.0254 15.2422 55.9554 15.2328 55.8889 15.2319C55.8246 15.2298 55.7494 15.24 55.6632 15.2624C55.5779 15.2813 55.5011 15.3044 55.4327 15.3316C55.3652 15.3553 55.2821 15.391 55.1833 15.4386C55.0868 15.485 55.0036 15.5283 54.9335 15.5685C54.8645 15.6051 54.7769 15.6539 54.6707 15.7148L53.6509 16.2999ZM54.8733 18.4223L56.0844 20.5331L57.1483 19.9227C57.277 19.8488 57.3848 19.7855 57.4716 19.7326C57.5571 19.6776 57.6547 19.6096 57.7644 19.5286C57.875 19.4441 57.9621 19.3656 58.0256 19.2932C58.0878 19.2184 58.1476 19.1316 58.2049 19.0327C58.2609 18.9315 58.2942 18.8298 58.3046 18.7277C58.3151 18.6256 58.305 18.5113 58.2745 18.3847C58.2448 18.2546 58.1905 18.1207 58.1114 17.9829C58.0466 17.87 57.9781 17.7742 57.906 17.6955C57.8348 17.6132 57.7644 17.5455 57.6948 17.4923C57.6253 17.4392 57.5485 17.4022 57.4645 17.3813C57.3792 17.3582 57.3002 17.3435 57.2275 17.3372C57.1548 17.3308 57.0707 17.3386 56.9751 17.3604C56.8782 17.38 56.7909 17.403 56.7131 17.4297C56.6376 17.455 56.547 17.4934 56.4415 17.545C56.336 17.5965 56.243 17.6439 56.1627 17.687C56.0846 17.7288 55.9879 17.7827 55.8727 17.8488L54.8733 18.4223ZM55.7978 21.1795L52.9516 16.2193L54.439 15.3659C54.5971 15.2751 54.7431 15.1973 54.877 15.1325C55.0119 15.0641 55.1559 15.001 55.3089 14.9433C55.4619 14.8855 55.6025 14.8453 55.7307 14.8228C55.8611 14.799 55.9942 14.7902 56.1299 14.7964C56.2656 14.8026 56.3896 14.8305 56.5021 14.8801C56.6169 14.9283 56.7291 15.0035 56.8388 15.1057C56.9472 15.2057 57.0448 15.3313 57.1316 15.4826C57.466 16.0654 57.3576 16.5855 56.8064 17.0429C57.2012 16.9094 57.552 16.9033 57.8587 17.0245C58.1655 17.1457 58.4148 17.3735 58.6066 17.7078C58.766 17.9856 58.8546 18.2395 58.8725 18.4694C58.8904 18.6994 58.8337 18.9225 58.7027 19.1389C58.5703 19.3529 58.382 19.5585 58.1379 19.7557C57.8924 19.9506 57.5675 20.164 57.1632 20.396L55.7978 21.1795Z" fill="black"/>
<path d="M63.3292 17.0902L59.921 18.8334L57.3169 13.742L60.6868 12.0184L60.8861 12.4079L58.0239 13.8718L58.9381 15.6593L61.4282 14.3858L61.6328 14.7857L59.1427 16.0593L60.2277 18.1807L63.1282 16.6973L63.3292 17.0902Z" fill="black"/>
<path d="M67.5662 15.1361L64.3927 16.5842L62.0188 11.3815L62.5376 11.1447L64.7283 15.9459L67.383 14.7346L67.5662 15.1361Z" fill="black"/>
<path d="M67.9769 14.9816L67.452 15.2047L65.2151 9.94159L65.74 9.71851L67.9769 14.9816Z" fill="black"/>
<path d="M73.2963 12.8731L69.7195 14.2371L67.6818 8.89374L71.2185 7.54501L71.3744 7.9538L68.3705 9.09931L69.086 10.9753L71.6993 9.97875L71.8593 10.3985L69.246 11.3951L70.0951 13.6215L73.1391 12.4607L73.2963 12.8731Z" fill="black"/>
<path d="M75.6194 12.0862L71.9858 7.25607L72.5614 7.06835L74.7008 9.93703C74.7538 10.0074 74.8918 10.1952 75.1146 10.5005C75.3391 10.8026 75.5106 11.0343 75.6289 11.1957C75.6302 10.998 75.6337 10.7189 75.6393 10.3582C75.645 9.99753 75.649 9.75379 75.6515 9.62698L75.6698 6.05464L76.2194 5.8754L76.1319 11.9191L75.6194 12.0862Z" fill="black"/>
<path d="M82.6287 10.0253L78.9351 11.0311L77.4325 5.51329L81.0847 4.51877L81.1997 4.9409L78.0978 5.78558L78.6253 7.72285L81.3239 6.98799L81.4419 7.42143L78.7433 8.15628L79.3694 10.4554L82.5127 9.59941L82.6287 10.0253Z" fill="black"/>
<path d="M86.0802 9.23918L85.5227 9.35939L84.3173 3.76913L84.8748 3.64892L86.0802 9.23918Z" fill="black"/>
<path d="M87.1421 8.98416L86.152 3.35176L86.7792 3.24153L91.0938 7.41303L90.828 5.90105L90.2532 2.63088L90.7495 2.54364L91.7396 8.17604L91.2317 8.26531L86.7814 3.93124C86.7814 3.93124 86.8749 4.46345 87.062 5.52786L87.6538 8.89422L87.1421 8.98416Z" fill="black"/>
<path d="M96.0265 5.47384L93.6773 2.11886L94.2913 2.05679L96.2619 4.92787L97.6142 1.72094L98.2244 1.65927L96.5944 5.42037L96.8096 7.55015L96.2422 7.6075L96.0265 5.47384Z" fill="black"/>
<path d="M101.828 1.33391C102.208 1.31622 102.543 1.35535 102.835 1.45128C103.128 1.54709 103.386 1.70455 103.607 1.92365C103.829 2.14276 104.002 2.43973 104.126 2.81456C104.253 3.18667 104.328 3.63156 104.352 4.14922C104.401 5.18976 104.234 5.95744 103.853 6.45227C103.472 6.94709 102.888 7.21285 102.1 7.24956C101.717 7.26736 101.38 7.2283 101.089 7.13237C100.798 7.03644 100.543 6.87626 100.324 6.65183C100.105 6.42739 99.9329 6.12516 99.8084 5.74513C99.6864 5.36498 99.613 4.90826 99.5881 4.37498C99.5639 3.85471 99.5963 3.4035 99.6854 3.02134C99.777 2.63645 99.9215 2.32471 100.119 2.0861C100.316 1.84489 100.556 1.66429 100.837 1.54431C101.12 1.42161 101.451 1.35147 101.828 1.33391ZM101.845 1.79063C101.575 1.80323 101.339 1.85203 101.137 1.93704C100.937 2.02193 100.773 2.13645 100.644 2.28062C100.518 2.42207 100.418 2.59879 100.344 2.81077C100.271 3.02276 100.222 3.25316 100.197 3.50199C100.174 3.74809 100.17 4.02852 100.185 4.34328C100.226 5.21994 100.391 5.85487 100.68 6.24808C100.97 6.63869 101.437 6.81898 102.082 6.78894C102.73 6.75877 103.18 6.53709 103.431 6.12388C103.683 5.71068 103.789 5.06315 103.748 4.18129C103.733 3.86653 103.702 3.58643 103.654 3.341C103.608 3.09544 103.538 2.87061 103.443 2.6665C103.35 2.46227 103.232 2.29567 103.091 2.1667C102.949 2.03513 102.774 1.9364 102.565 1.87054C102.358 1.80454 102.119 1.77791 101.845 1.79063Z" fill="black"/>
<path d="M105.334 4.76308L105.375 1.28675L106 1.29403L105.96 4.67661C105.957 4.92139 105.967 5.13635 105.988 5.32151C106.009 5.50666 106.053 5.68557 106.118 5.85822C106.184 6.02827 106.272 6.16862 106.383 6.27929C106.494 6.38997 106.64 6.47891 106.821 6.54613C107.006 6.61078 107.223 6.64456 107.473 6.64747C107.723 6.65038 107.939 6.62164 108.122 6.56127C108.305 6.49829 108.452 6.41275 108.563 6.30466C108.676 6.19659 108.766 6.05831 108.833 5.88981C108.903 5.71873 108.95 5.54089 108.976 5.35628C109.002 5.17167 109.016 4.95698 109.019 4.7122L109.058 1.32962L109.671 1.33675L109.631 4.78574C109.622 5.60079 109.439 6.19766 109.083 6.57636C108.727 6.95245 108.181 7.13621 107.444 7.12763C106.725 7.11927 106.191 6.92684 105.841 6.55035C105.494 6.17128 105.325 5.57553 105.334 4.76308Z" fill="black"/>
<path d="M115.955 3.19294C115.929 3.58272 115.807 3.89305 115.588 4.12393C115.372 4.35239 115.051 4.50868 114.625 4.5928L115.772 7.38922L115.164 7.34909L114.043 4.64048L112.261 4.52292L112.088 7.14612L111.523 7.10881L111.9 1.40248L113.962 1.53856C114.702 1.58744 115.228 1.74611 115.539 2.01458C115.85 2.28045 115.989 2.67324 115.955 3.19294ZM112.437 1.86074L112.29 4.08247L113.659 4.17276C113.846 4.18511 114.01 4.18942 114.151 4.18569C114.295 4.18213 114.444 4.16193 114.597 4.12511C114.754 4.08845 114.883 4.03432 114.984 3.96271C115.088 3.89127 115.175 3.78875 115.247 3.65515C115.319 3.51894 115.361 3.3547 115.373 3.16241C115.386 2.96492 115.368 2.79534 115.317 2.65368C115.266 2.50941 115.198 2.3966 115.112 2.31524C115.029 2.23145 114.915 2.16389 114.769 2.11253C114.627 2.05876 114.492 2.02247 114.365 2.00367C114.239 1.98487 114.083 1.96938 113.899 1.95721L112.437 1.86074Z" fill="black"/>
<path d="M123.079 2.95837L119.894 2.52414L119.619 4.54451L122.386 4.92176L122.326 5.36299L119.558 4.98574L119.181 7.75699L118.616 7.67996L119.388 2.01361L123.139 2.52488L123.079 2.95837Z" fill="black"/>
<path d="M123.757 6.126L124.411 2.71158L125.025 2.82923L124.388 6.15157C124.342 6.39198 124.313 6.60519 124.302 6.7912C124.29 6.9772 124.301 7.16097 124.335 7.34252C124.37 7.52151 124.432 7.67526 124.521 7.80375C124.611 7.93225 124.739 8.04563 124.905 8.14388C125.075 8.24007 125.283 8.31169 125.528 8.35875C125.774 8.40581 125.992 8.41581 126.183 8.38874C126.374 8.35911 126.534 8.30088 126.662 8.21405C126.792 8.12771 126.906 8.00754 127.001 7.85355C127.1 7.6975 127.179 7.53088 127.236 7.3537C127.294 7.17652 127.346 6.96772 127.392 6.72731L128.029 3.40497L128.631 3.52041L127.982 6.90797C127.829 7.7085 127.543 8.26367 127.126 8.57346C126.709 8.88069 126.139 8.96495 125.415 8.82622C124.709 8.69092 124.217 8.40707 123.94 7.97467C123.665 7.5402 123.604 6.92397 123.757 6.126Z" fill="black"/>
<path d="M129.838 4.20944L129.944 3.781L134.119 4.81574L134.012 5.24418L132.215 4.79871L130.945 9.92482L130.364 9.78103L131.635 4.65491L129.838 4.20944Z" fill="black"/>
<path d="M134.218 8.42663L135.233 5.10154L135.831 5.28402L134.843 8.51944C134.772 8.75357 134.721 8.96247 134.689 9.14615C134.657 9.32984 134.649 9.51376 134.663 9.69791C134.679 9.87957 134.724 10.0391 134.799 10.1764C134.874 10.3137 134.99 10.4401 135.145 10.5556C135.304 10.6693 135.502 10.7627 135.742 10.8357C135.981 10.9087 136.196 10.9419 136.389 10.9353C136.582 10.9263 136.747 10.8854 136.884 10.8128C137.023 10.7408 137.148 10.6334 137.26 10.4906C137.375 10.3459 137.471 10.1886 137.547 10.0186C137.623 9.84864 137.697 9.64658 137.769 9.41245L138.756 6.17703L139.343 6.35609L138.336 9.65502C138.098 10.4346 137.755 10.9561 137.307 11.2196C136.86 11.4806 136.284 11.5035 135.579 11.2884C134.891 11.0785 134.433 10.7438 134.203 10.2842C133.976 9.82293 133.981 9.20373 134.218 8.42663Z" fill="black"/>
<path d="M144.395 9.74762C144.262 10.1147 144.058 10.3784 143.783 10.5389C143.512 10.6979 143.16 10.7582 142.728 10.72L143.047 13.7254L142.474 13.5169L142.155 10.6029L140.478 9.99202L139.578 12.4622L139.046 12.2684L141.003 6.8949L142.944 7.60202C143.642 7.85599 144.102 8.15535 144.326 8.50009C144.55 8.84239 144.574 9.25823 144.395 9.74762ZM141.391 7.48512L140.629 9.57726L141.917 10.0465C142.093 10.1106 142.25 10.1606 142.386 10.1965C142.525 10.2333 142.674 10.2555 142.832 10.2632C142.992 10.2717 143.131 10.2557 143.248 10.2153C143.368 10.1758 143.481 10.1018 143.587 9.99353C143.694 9.88278 143.78 9.73687 143.846 9.5558C143.914 9.36983 143.943 9.20175 143.934 9.05157C143.926 8.89894 143.892 8.77154 143.832 8.66939C143.775 8.56569 143.685 8.46886 143.559 8.37891C143.438 8.28741 143.318 8.21493 143.202 8.16148C143.086 8.10802 142.941 8.04966 142.767 7.98639L141.391 7.48512Z" fill="black"/>
<path d="M147.11 15.4162L143.581 13.932L145.798 8.66055L149.287 10.1281L149.118 10.5313L146.154 9.28494L145.376 11.1357L147.954 12.2201L147.78 12.6341L145.202 11.5498L144.278 13.7462L147.281 15.0093L147.11 15.4162Z" fill="black"/>
<path d="M158.08 14.9624L157.063 16.7205L157.834 17.1666C157.969 17.2449 158.082 17.3101 158.172 17.3623C158.266 17.4135 158.367 17.4675 158.475 17.5243C158.587 17.5802 158.68 17.6231 158.753 17.6533C158.828 17.6847 158.909 17.7153 158.997 17.7452C159.085 17.7751 159.16 17.7924 159.22 17.7973C159.283 17.8035 159.348 17.8051 159.416 17.8023C159.485 17.7971 159.546 17.7817 159.6 17.7558C159.655 17.7299 159.709 17.6953 159.764 17.652C159.822 17.61 159.875 17.5578 159.923 17.4954C159.974 17.4321 160.024 17.3587 160.073 17.2753C160.126 17.1829 160.165 17.0943 160.19 17.0095C160.219 16.9237 160.234 16.8453 160.236 16.7742C160.242 16.7022 160.232 16.6305 160.207 16.559C160.186 16.4865 160.159 16.4213 160.127 16.3633C160.096 16.3066 160.05 16.2466 159.987 16.1832C159.928 16.1189 159.869 16.064 159.812 16.0185C159.757 15.972 159.685 15.918 159.594 15.8564C159.505 15.7962 159.426 15.7459 159.356 15.7054C159.29 15.664 159.204 15.6127 159.098 15.5514L158.08 14.9624ZM156.857 17.0842L155.638 19.1905L156.7 19.8049C156.828 19.8792 156.937 19.9407 157.026 19.9893C157.117 20.0357 157.224 20.086 157.349 20.1403C157.478 20.1937 157.59 20.2297 157.684 20.2483C157.78 20.2646 157.885 20.2728 157.999 20.2728C158.115 20.2705 158.22 20.2483 158.313 20.2062C158.407 20.1641 158.501 20.098 158.595 20.0081C158.693 19.9172 158.781 19.8031 158.861 19.6656C158.926 19.5529 158.975 19.4456 159.006 19.3437C159.042 19.2408 159.065 19.146 159.076 19.0592C159.088 18.9723 159.081 18.8874 159.057 18.8042C159.034 18.7188 159.007 18.6431 158.976 18.577C158.945 18.5109 158.896 18.442 158.83 18.3703C158.764 18.2963 158.7 18.2323 158.638 18.1783C158.579 18.1257 158.5 18.0666 158.402 18.0012C158.305 17.9357 158.217 17.879 158.14 17.8311C158.064 17.7845 157.969 17.7279 157.854 17.6614L156.857 17.0842ZM154.935 19.2666L157.8 14.317L159.284 15.1759C159.442 15.2672 159.582 15.3546 159.705 15.4379C159.832 15.5204 159.959 15.6133 160.086 15.7167C160.212 15.8201 160.317 15.9216 160.401 16.0212C160.487 16.1222 160.562 16.2329 160.624 16.3534C160.687 16.4739 160.725 16.5952 160.739 16.7174C160.754 16.8409 160.745 16.9757 160.712 17.1218C160.68 17.2657 160.62 17.4132 160.533 17.5642C160.196 18.1457 159.692 18.3127 159.02 18.0651C159.333 18.3398 159.514 18.6402 159.563 18.9664C159.612 19.2926 159.54 19.6225 159.347 19.956C159.187 20.2333 159.011 20.4373 158.821 20.568C158.631 20.6988 158.41 20.7617 158.157 20.7567C157.906 20.7495 157.633 20.6897 157.34 20.5773C157.049 20.4627 156.701 20.2886 156.298 20.0551L154.935 19.2666Z" fill="black"/>
<path d="M162.82 24.0962L159.61 22.0104L162.726 17.215L165.9 19.2774L165.662 19.6442L162.966 17.8926L161.872 19.5763L164.217 21.1001L163.973 21.4768L161.627 19.9529L160.329 21.951L163.061 23.726L162.82 24.0962Z" fill="black"/>
<path d="M166.029 26.3627L163.183 24.3457L166.49 19.6799L166.955 20.0097L163.903 24.3153L166.284 26.0026L166.029 26.3627Z" fill="black"/>
<path d="M166.905 27.034L166.45 26.6907L169.892 22.1237L170.347 22.467L166.905 27.034Z" fill="black"/>
<path d="M171.288 30.5058L168.317 28.0918L171.923 23.6534L174.861 26.0403L174.585 26.3798L172.09 24.3526L170.824 25.9109L172.994 27.6746L172.711 28.0232L170.54 26.2595L169.038 28.1088L171.566 30.1632L171.288 30.5058Z" fill="black"/>
<path d="M173.018 32.019L175.371 26.4516L175.823 26.8552L174.415 30.1456C174.381 30.2268 174.288 30.4404 174.136 30.7864C173.987 31.1322 173.873 31.3968 173.793 31.5801C173.964 31.482 174.208 31.3449 174.522 31.1687C174.837 30.9926 175.05 30.8737 175.161 30.8122L178.26 29.0348L178.691 29.4201L173.42 32.3783L173.018 32.019Z" fill="black"/>
<path d="M178.183 36.8986L175.453 34.2147L179.462 30.1368L182.161 32.7905L181.855 33.1025L179.562 30.8486L178.155 32.2803L180.149 34.2412L179.834 34.5615L177.84 32.6007L176.169 34.2998L178.492 36.5838L178.183 36.8986Z" fill="black"/>
<path d="M180.865 39.7576L180.481 39.3362L184.706 35.4827L185.091 35.9041L180.865 39.7576Z" fill="black"/>
<path d="M181.492 40.4024L185.855 36.705L186.267 37.1907L184.843 43.0209L186.014 42.0284L188.547 39.8816L188.873 40.2661L184.51 43.9635L184.177 43.5701L185.672 37.5408C185.672 37.5408 185.26 37.8901 184.436 38.5889L181.828 40.7987L181.492 40.4024Z" fill="black"/>
<path d="M189.072 46.3768L190.781 42.6546L191.145 43.1532L189.662 46.3041L193.113 45.8514L193.474 46.3469L189.405 46.8398L187.676 48.1014L187.339 47.6406L189.072 46.3768Z" fill="black"/>
<path d="M195.631 49.3764C195.838 49.6954 195.973 50.0048 196.037 50.3047C196.103 50.6067 196.097 50.9086 196.019 51.2102C195.942 51.5119 195.773 51.811 195.512 52.1075C195.255 52.4047 194.909 52.6944 194.474 52.9764C193.6 53.5433 192.853 53.7871 192.234 53.7078C191.614 53.6285 191.09 53.2579 190.66 52.5959C190.452 52.2748 190.316 51.9643 190.252 51.6644C190.188 51.3646 190.197 51.0635 190.28 50.7611C190.364 50.4588 190.538 50.158 190.803 49.8587C191.07 49.5615 191.427 49.2677 191.875 48.9772C192.312 48.6937 192.718 48.494 193.093 48.3781C193.471 48.263 193.813 48.2304 194.119 48.2805C194.427 48.3291 194.703 48.4446 194.949 48.6268C195.198 48.8098 195.425 49.0596 195.631 49.3764ZM195.245 49.6219C195.098 49.3947 194.936 49.2153 194.761 49.0838C194.587 48.9545 194.405 48.8706 194.216 48.8321C194.03 48.7944 193.827 48.7972 193.607 48.8407C193.387 48.8842 193.163 48.9579 192.936 49.062C192.712 49.1668 192.468 49.305 192.203 49.4764C191.467 49.954 191.002 50.417 190.809 50.8653C190.618 51.3122 190.698 51.8065 191.049 52.3484C191.402 52.8924 191.82 53.1688 192.304 53.1778C192.788 53.1868 193.4 52.951 194.141 52.4706C194.405 52.2991 194.631 52.1307 194.819 51.9655C195.008 51.8025 195.167 51.6282 195.295 51.4428C195.424 51.2595 195.509 51.0742 195.549 50.8869C195.591 50.6981 195.588 50.4969 195.539 50.2832C195.492 50.0717 195.394 49.8513 195.245 49.6219Z" fill="black"/>
<path d="M194.344 53.9869L197.36 52.2581L197.671 52.8003L194.736 54.4825C194.524 54.6042 194.343 54.7212 194.194 54.8335C194.046 54.9458 193.914 55.074 193.798 55.2182C193.685 55.3611 193.609 55.5084 193.569 55.6599C193.53 55.8114 193.528 55.9825 193.562 56.173C193.6 56.3645 193.681 56.5687 193.805 56.7856C193.929 57.0025 194.064 57.1745 194.209 57.3016C194.356 57.4273 194.504 57.5105 194.653 57.551C194.804 57.5938 194.969 57.6013 195.148 57.5736C195.331 57.5469 195.508 57.4977 195.68 57.4261C195.852 57.3545 196.045 57.2578 196.257 57.1361L199.192 55.454L199.497 55.986L196.504 57.7012C195.797 58.1065 195.19 58.2519 194.683 58.1372C194.178 58.0213 193.743 57.6436 193.376 57.0042C193.019 56.3806 192.914 55.8226 193.061 55.3301C193.211 54.8386 193.639 54.3909 194.344 53.9869Z" fill="black"/>
<path d="M201.096 62.3965C200.747 62.5717 200.418 62.6235 200.108 62.5517C199.801 62.4812 199.504 62.2836 199.216 61.9591L197.385 64.3639L197.112 63.8193L198.88 61.481L198.079 59.8855L195.729 61.0648L195.475 60.5585L200.586 57.9933L201.513 59.8401C201.846 60.5035 201.976 61.0372 201.902 61.4415C201.83 61.8445 201.562 62.1629 201.096 62.3965ZM200.463 58.6887L198.473 59.6875L199.088 60.9129C199.173 61.0805 199.252 61.2242 199.327 61.3441C199.403 61.4662 199.495 61.5843 199.605 61.6983C199.716 61.8146 199.828 61.8982 199.941 61.9493C200.055 62.0027 200.188 62.0264 200.339 62.0203C200.493 62.0131 200.656 61.9663 200.828 61.8798C201.005 61.7911 201.142 61.6889 201.238 61.5735C201.337 61.4569 201.4 61.3409 201.426 61.2256C201.456 61.1114 201.457 60.9786 201.427 60.8273C201.402 60.6771 201.365 60.5426 201.317 60.4239C201.269 60.3052 201.203 60.1632 201.12 59.9979L200.463 58.6887Z" fill="black"/>
<path d="M204.718 67.9867L203.471 65.0236L201.592 65.8147L202.675 68.3889L202.265 68.5617L201.181 65.9874L198.604 67.0725L198.382 66.5469L203.653 64.3283L205.122 67.8169L204.718 67.9867Z" fill="black"/>
<path d="M202.281 70.0325L205.551 68.853L205.763 69.4409L202.581 70.5886C202.351 70.6717 202.153 70.7556 201.987 70.8404C201.821 70.9252 201.668 71.0286 201.53 71.1506C201.393 71.2717 201.293 71.4035 201.228 71.5459C201.163 71.6884 201.131 71.8564 201.131 72.0499C201.135 72.2451 201.18 72.4602 201.264 72.6954C201.349 72.9306 201.452 73.1233 201.573 73.2736C201.696 73.423 201.827 73.5305 201.967 73.5963C202.108 73.6645 202.269 73.7006 202.451 73.7044C202.635 73.7098 202.819 73.6921 203 73.6514C203.182 73.6107 203.388 73.5489 203.619 73.4658L206.801 72.3181L207.009 72.895L203.764 74.0652C202.997 74.3418 202.374 74.3797 201.895 74.1788C201.418 73.9771 201.055 73.5296 200.805 72.8364C200.561 72.1602 200.554 71.5924 200.784 71.1329C201.017 70.675 201.516 70.3082 202.281 70.0325Z" fill="black"/>
<path d="M207.181 74.7441L207.604 74.618L208.833 78.7394L208.41 78.8655L207.881 77.0912L202.82 78.6005L202.649 78.0278L207.71 76.5185L207.181 74.7441Z" fill="black"/>
<path d="M205.79 80.7435L209.17 79.9275L209.316 80.535L206.028 81.329C205.79 81.3865 205.584 81.4483 205.41 81.5145C205.235 81.5807 205.073 81.6669 204.922 81.773C204.773 81.8786 204.659 81.9986 204.579 82.1331C204.499 82.2677 204.448 82.4312 204.428 82.6236C204.41 82.818 204.431 83.0367 204.49 83.2798C204.548 83.5228 204.63 83.7255 204.733 83.8881C204.839 84.05 204.958 84.1713 205.09 84.2519C205.223 84.3351 205.379 84.3885 205.559 84.412C205.742 84.4375 205.926 84.4399 206.111 84.4193C206.296 84.3987 206.508 84.3596 206.746 84.3022L210.034 83.5081L210.178 84.1043L206.825 84.9139C206.033 85.1052 205.41 85.075 204.955 84.8231C204.503 84.5706 204.19 84.0861 204.017 83.3698C203.849 82.6711 203.904 82.1059 204.182 81.6742C204.464 81.2445 205 80.9342 205.79 80.7435Z" fill="black"/>
<path d="M209.856 90.3758C209.472 90.4472 209.141 90.4054 208.863 90.2504C208.589 90.0976 208.358 89.8252 208.171 89.4335L205.745 91.2354L205.633 90.6363L207.981 88.8808L207.655 87.1257L205.07 87.6061L204.967 87.0493L210.589 86.0042L210.967 88.0358C211.102 88.7655 211.079 89.3142 210.895 89.682C210.715 90.0494 210.368 90.2806 209.856 90.3758ZM210.278 86.6382L208.089 87.045L208.339 88.3931C208.374 88.5774 208.41 88.7375 208.449 88.8734C208.487 89.0118 208.544 89.151 208.618 89.2909C208.692 89.4334 208.776 89.5449 208.87 89.6254C208.965 89.7084 209.086 89.768 209.233 89.8042C209.383 89.84 209.553 89.8402 209.742 89.805C209.937 89.7688 210.096 89.7087 210.221 89.6246C210.348 89.54 210.441 89.446 210.498 89.3426C210.559 89.2413 210.596 89.1138 210.61 88.9603C210.627 88.8088 210.629 88.6694 210.616 88.542C210.603 88.4147 210.579 88.2601 210.546 88.0783L210.278 86.6382Z" fill="black"/>
<path d="M206.315 95.345L205.788 91.5533L211.453 90.7665L211.973 94.5156L211.54 94.5758L211.098 91.3916L209.109 91.6678L209.494 94.4381L209.049 94.4999L208.664 91.7296L206.304 92.0574L206.752 95.2842L206.315 95.345Z" fill="black"/>
</svg>
