<svg width="425" height="427" viewBox="0 0 425 427" fill="none" xmlns="http://www.w3.org/2000/svg">
<path d="M422.324 215.707L417.247 215.59L417.196 217.816C417.187 218.207 417.18 218.532 417.174 218.792C417.174 219.059 417.177 219.346 417.183 219.652C417.196 219.965 417.213 220.22 417.234 220.415C417.255 220.618 417.286 220.833 417.327 221.062C417.367 221.291 417.418 221.475 417.48 221.613C417.542 221.757 417.617 221.902 417.704 222.048C417.799 222.193 417.907 222.31 418.029 222.397C418.15 222.485 418.292 222.563 418.453 222.632C418.614 222.707 418.792 222.76 418.987 222.79C419.188 222.828 419.408 222.849 419.649 222.854C419.916 222.861 420.158 222.84 420.374 222.793C420.596 222.752 420.786 222.692 420.944 222.611C421.109 222.536 421.255 222.429 421.382 222.289C421.515 222.155 421.625 222.018 421.713 221.876C421.801 221.742 421.877 221.567 421.94 221.354C422.01 221.147 422.06 220.953 422.09 220.771C422.127 220.596 422.158 220.372 422.184 220.1C422.21 219.833 422.225 219.599 422.23 219.397C422.241 219.202 422.25 218.952 422.257 218.646L422.324 215.707ZM416.203 215.576L410.12 215.436L410.05 218.501C410.041 218.872 410.037 219.185 410.038 219.439C410.045 219.693 410.064 219.99 410.096 220.329C410.133 220.675 410.188 220.963 410.261 221.193C410.341 221.422 410.449 221.663 410.587 221.913C410.731 222.164 410.905 222.367 411.11 222.521C411.315 222.676 411.572 222.802 411.883 222.9C412.199 223.005 412.556 223.062 412.953 223.071C413.279 223.079 413.572 223.056 413.834 223.004C414.102 222.958 414.338 222.895 414.541 222.815C414.745 222.735 414.924 222.619 415.077 222.466C415.237 222.313 415.37 222.163 415.478 222.016C415.586 221.869 415.678 221.679 415.755 221.446C415.838 221.214 415.902 220.997 415.946 220.796C415.989 220.602 416.024 220.358 416.05 220.066C416.077 219.773 416.096 219.513 416.107 219.286C416.119 219.064 416.129 218.788 416.136 218.456L416.203 215.576ZM409.108 213.986L423.401 214.315L423.303 218.601C423.292 219.057 423.27 219.47 423.235 219.84C423.207 220.218 423.156 220.607 423.081 221.009C423.007 221.411 422.911 221.764 422.793 222.067C422.675 222.377 422.522 222.673 422.333 222.955C422.144 223.237 421.924 223.467 421.673 223.643C421.421 223.826 421.115 223.969 420.754 224.072C420.4 224.174 420.005 224.22 419.569 224.21C417.89 224.172 416.918 223.267 416.652 221.496C416.427 222.513 415.986 223.272 415.33 223.771C414.674 224.27 413.864 224.509 412.901 224.487C412.1 224.468 411.443 224.329 410.928 224.07C410.413 223.811 410.009 223.401 409.715 222.841C409.429 222.281 409.232 221.612 409.127 220.834C409.027 220.057 408.991 219.086 409.018 217.921L409.108 213.986Z" fill="black"/>
<path d="M408.068 234.448L408.765 224.904L423.024 225.944L422.335 235.382L421.244 235.302L421.829 227.286L416.823 226.921L416.314 233.895L415.194 233.813L415.703 226.839L409.761 226.406L409.169 234.529L408.068 234.448Z" fill="black"/>
<path d="M407.055 242.427L408.055 233.764L422.258 235.403L422.094 236.819L408.988 235.306L408.152 242.553L407.055 242.427Z" fill="black"/>
<path d="M406.81 243.478L407.017 242.067L421.162 244.139L420.956 245.55L406.81 243.478Z" fill="black"/>
<path d="M404.703 255.544L406.414 246.128L420.48 248.684L418.789 257.994L417.713 257.799L419.149 249.891L414.211 248.994L412.961 255.874L411.856 255.673L413.106 248.793L407.245 247.728L405.789 255.742L404.703 255.544Z" fill="black"/>
<path d="M403.942 258.475L418.97 256.9L418.632 258.375L409.73 259.271C409.511 259.294 408.931 259.348 407.99 259.433C407.054 259.525 406.337 259.595 405.838 259.641C406.26 259.898 406.854 260.265 407.62 260.741C408.386 261.217 408.903 261.539 409.172 261.707L416.806 266.342L416.483 267.751L403.641 259.789L403.942 258.475Z" fill="black"/>
<path d="M400.115 272.961L402.673 263.739L416.45 267.561L413.92 276.68L412.866 276.387L415.015 268.643L410.178 267.301L408.309 274.039L407.226 273.738L409.096 267.001L403.355 265.408L401.178 273.256L400.115 272.961Z" fill="black"/>
<path d="M398.461 277.694L398.914 276.342L412.47 280.884L412.017 282.236L398.461 277.694Z" fill="black"/>
<path d="M397.735 279.949L411.094 285.044L410.526 286.531L396.042 290.445L399.628 291.812L407.383 294.771L406.935 295.948L393.576 290.853L394.036 289.648L409.043 285.652C409.043 285.652 407.781 285.171 405.256 284.208L397.273 281.162L397.735 279.949Z" fill="black"/>
<path d="M394.948 300.622L405.161 299.892L404.506 301.288L395.817 301.828L400.959 308.847L400.308 310.235L394.334 301.909L389.489 299.635L390.095 298.345L394.948 300.622Z" fill="black"/>
<path d="M397.933 315.078C397.486 315.916 396.972 316.587 396.394 317.09C395.812 317.599 395.145 317.951 394.391 318.146C393.637 318.341 392.778 318.333 391.814 318.121C390.852 317.917 389.8 317.51 388.657 316.9C386.36 315.674 384.924 314.335 384.348 312.883C383.772 311.432 383.949 309.836 384.878 308.096C385.329 307.252 385.844 306.578 386.422 306.075C387.001 305.572 387.671 305.229 388.433 305.046C389.195 304.862 390.064 304.88 391.04 305.098C392.013 305.322 393.088 305.749 394.265 306.377C395.414 306.991 396.341 307.637 397.048 308.317C397.758 309.006 398.243 309.715 398.503 310.445C398.769 311.177 398.851 311.922 398.749 312.679C398.65 313.446 398.378 314.245 397.933 315.078ZM396.93 314.531C397.249 313.934 397.446 313.364 397.522 312.821C397.594 312.284 397.558 311.785 397.413 311.324C397.271 310.872 397.019 310.431 396.658 310.002C396.297 309.573 395.865 309.173 395.362 308.801C394.862 308.438 394.265 308.071 393.57 307.7C391.634 306.667 390.059 306.209 388.844 306.328C387.635 306.45 386.651 307.223 385.89 308.648C385.127 310.078 385.028 311.327 385.593 312.397C386.159 313.466 387.415 314.521 389.362 315.56C390.057 315.931 390.698 316.222 391.287 316.433C391.872 316.65 392.445 316.786 393.006 316.842C393.563 316.904 394.071 316.865 394.529 316.726C394.993 316.589 395.43 316.339 395.838 315.974C396.244 315.615 396.608 315.134 396.93 314.531Z" fill="black"/>
<path d="M387.195 315.995L394.624 320.505L393.814 321.84L386.584 317.452C386.061 317.135 385.587 316.881 385.161 316.691C384.736 316.501 384.295 316.367 383.84 316.289C383.39 316.214 382.976 316.226 382.597 316.323C382.218 316.42 381.841 316.622 381.465 316.927C381.092 317.241 380.743 317.665 380.419 318.199C380.094 318.734 379.881 319.236 379.778 319.707C379.68 320.181 379.678 320.606 379.77 320.981C379.858 321.362 380.041 321.732 380.318 322.091C380.598 322.459 380.92 322.788 381.285 323.078C381.649 323.367 382.093 323.671 382.616 323.989L389.846 328.377L389.05 329.688L381.679 325.213C379.937 324.156 378.885 323.003 378.523 321.755C378.166 320.511 378.466 319.101 379.422 317.526C380.355 315.99 381.448 315.085 382.704 314.811C383.961 314.546 385.458 314.941 387.195 315.995Z" fill="black"/>
<path d="M379.407 336.964C378.601 336.412 378.089 335.754 377.871 334.989C377.655 334.234 377.727 333.344 378.088 332.321L370.612 331.226L371.473 329.969L378.728 331.007L381.249 327.325L375.826 323.612L376.626 322.443L388.423 330.521L385.504 334.783C384.456 336.314 383.445 337.243 382.471 337.571C381.502 337.902 380.481 337.7 379.407 336.964ZM386.752 331.093L382.16 327.948L380.223 330.777C379.958 331.163 379.74 331.511 379.568 331.819C379.393 332.133 379.246 332.479 379.13 332.857C379.01 333.24 378.962 333.586 378.987 333.895C379.008 334.21 379.117 334.529 379.314 334.853C379.515 335.18 379.815 335.48 380.213 335.752C380.621 336.032 381.01 336.207 381.379 336.279C381.754 336.354 382.083 336.351 382.368 336.269C382.654 336.197 382.945 336.037 383.24 335.79C383.538 335.552 383.787 335.308 383.989 335.06C384.191 334.811 384.422 334.496 384.683 334.115L386.752 331.093Z" fill="black"/>
<path d="M372.587 350.025L377.576 343.724L373.579 340.559L369.245 346.034L368.372 345.343L372.706 339.868L367.224 335.528L368.109 334.41L379.318 343.285L373.444 350.704L372.587 350.025Z" fill="black"/>
<path d="M366.968 344.804L373.52 350.515L372.493 351.693L366.118 346.136C365.656 345.734 365.232 345.403 364.845 345.143C364.458 344.884 364.047 344.677 363.612 344.522C363.182 344.372 362.772 344.312 362.382 344.343C361.992 344.375 361.586 344.509 361.163 344.745C360.742 344.991 360.326 345.35 359.915 345.821C359.504 346.292 359.208 346.751 359.027 347.197C358.85 347.647 358.775 348.065 358.801 348.451C358.823 348.842 358.941 349.238 359.153 349.638C359.365 350.048 359.627 350.427 359.937 350.775C360.247 351.123 360.632 351.498 361.093 351.9L367.469 357.457L366.461 358.613L359.961 352.947C358.425 351.608 357.585 350.293 357.441 349.001C357.302 347.714 357.838 346.376 359.048 344.987C360.229 343.633 361.461 342.928 362.744 342.872C364.029 342.825 365.436 343.469 366.968 344.804Z" fill="black"/>
<path d="M365.877 357.534L366.671 358.3L359.203 366.036L358.409 365.27L361.624 361.939L352.125 352.769L353.163 351.694L362.662 360.864L365.877 357.534Z" fill="black"/>
<path d="M353.263 359.588L359.224 365.913L358.087 366.984L352.286 360.83C351.867 360.385 351.477 360.014 351.117 359.718C350.757 359.421 350.369 359.175 349.951 358.978C349.537 358.787 349.135 358.687 348.744 358.68C348.353 358.673 347.935 358.767 347.492 358.961C347.048 359.164 346.599 359.48 346.144 359.909C345.69 360.337 345.35 360.765 345.125 361.191C344.905 361.622 344.79 362.031 344.778 362.418C344.762 362.809 344.84 363.214 345.012 363.633C345.183 364.062 345.406 364.465 345.68 364.841C345.955 365.218 346.302 365.629 346.722 366.074L352.522 372.229L351.406 373.28L345.492 367.005C344.094 365.522 343.387 364.131 343.37 362.832C343.358 361.537 344.022 360.258 345.363 358.995C346.671 357.762 347.966 357.181 349.249 357.251C350.532 357.331 351.869 358.11 353.263 359.588Z" fill="black"/>
<path d="M340.219 377.672C339.589 376.925 339.27 376.155 339.264 375.359C339.256 374.573 339.562 373.735 340.183 372.845L333.267 369.801L334.431 368.819L341.148 371.749L344.558 368.869L340.318 363.848L341.4 362.934L350.624 373.858L346.677 377.191C345.259 378.388 344.037 379.015 343.011 379.071C341.99 379.133 341.059 378.666 340.219 377.672ZM348.861 373.966L345.27 369.713L342.651 371.924C342.293 372.226 341.99 372.503 341.743 372.755C341.49 373.011 341.257 373.306 341.044 373.639C340.826 373.976 340.688 374.297 340.63 374.602C340.567 374.91 340.588 375.247 340.691 375.612C340.798 375.981 341.007 376.35 341.318 376.718C341.637 377.096 341.965 377.368 342.302 377.535C342.644 377.708 342.962 377.792 343.258 377.789C343.553 377.796 343.876 377.719 344.227 377.559C344.577 377.409 344.882 377.24 345.143 377.054C345.403 376.869 345.71 376.627 346.063 376.328L348.861 373.966Z" fill="black"/>
<path d="M325.534 375.56L333.152 369.767L341.806 381.147L334.273 386.875L333.611 386.004L340.009 381.14L336.971 377.144L331.405 381.376L330.725 380.482L336.291 376.25L332.685 371.508L326.202 376.438L325.534 375.56Z" fill="black"/>
<path d="M317.668 396.292L315.154 391.88L313.22 392.982C312.88 393.175 312.598 393.336 312.371 393.465C312.143 393.603 311.898 393.753 311.639 393.916C311.377 394.088 311.168 394.233 311.011 394.352C310.849 394.475 310.68 394.612 310.504 394.765C310.329 394.917 310.198 395.055 310.111 395.18C310.019 395.307 309.933 395.446 309.854 395.596C309.778 395.752 309.733 395.904 309.721 396.054C309.709 396.203 309.715 396.365 309.739 396.538C309.757 396.715 309.803 396.895 309.877 397.077C309.949 397.269 310.044 397.469 310.164 397.679C310.296 397.911 310.438 398.107 310.589 398.268C310.738 398.438 310.888 398.569 311.039 398.663C311.188 398.766 311.355 398.836 311.54 398.872C311.724 398.918 311.898 398.942 312.065 398.945C312.226 398.95 312.414 398.926 312.629 398.87C312.843 398.824 313.035 398.767 313.206 398.699C313.375 398.64 313.583 398.552 313.83 398.433C314.072 398.318 314.28 398.211 314.456 398.111C314.629 398.02 314.848 397.898 315.114 397.747L317.668 396.292ZM314.629 390.977L311.617 385.69L308.953 387.208C308.63 387.392 308.36 387.549 308.143 387.681C307.929 387.818 307.684 387.987 307.41 388.188C307.132 388.399 306.914 388.594 306.755 388.775C306.599 388.961 306.449 389.178 306.304 389.425C306.164 389.677 306.08 389.931 306.053 390.186C306.026 390.441 306.05 390.727 306.125 391.044C306.199 391.37 306.333 391.705 306.53 392.05C306.691 392.333 306.862 392.573 307.041 392.77C307.219 392.976 307.394 393.146 307.568 393.279C307.741 393.413 307.933 393.506 308.143 393.559C308.356 393.617 308.553 393.655 308.735 393.671C308.916 393.687 309.127 393.669 309.366 393.615C309.608 393.567 309.827 393.51 310.021 393.444C310.21 393.381 310.437 393.286 310.701 393.158C310.966 393.03 311.198 392.912 311.399 392.805C311.595 392.701 311.837 392.567 312.126 392.403L314.629 390.977ZM312.339 384.076L319.416 396.499L315.691 398.621C315.295 398.847 314.929 399.04 314.594 399.201C314.256 399.371 313.895 399.528 313.513 399.671C313.13 399.814 312.778 399.913 312.457 399.969C312.131 400.027 311.798 400.048 311.459 400.031C311.12 400.015 310.81 399.944 310.529 399.819C310.242 399.698 309.962 399.509 309.689 399.253C309.419 399.002 309.176 398.687 308.96 398.308C308.129 396.849 308.404 395.549 309.785 394.41C308.797 394.741 307.92 394.753 307.154 394.448C306.388 394.142 305.767 393.571 305.29 392.734C304.893 392.038 304.674 391.403 304.631 390.828C304.588 390.253 304.731 389.695 305.061 389.155C305.393 388.621 305.866 388.109 306.478 387.618C307.093 387.132 307.907 386.601 308.919 386.025L312.339 384.076Z" fill="black"/>
<path d="M294.539 393.575L303.074 389.244L309.543 401.993L301.105 406.275L300.61 405.3L307.777 401.663L305.505 397.187L299.27 400.351L298.762 399.349L304.997 396.185L302.302 390.873L295.039 394.559L294.539 393.575Z" fill="black"/>
<path d="M287.058 396.838L295.003 393.244L300.896 406.27L299.597 406.857L294.159 394.837L287.513 397.844L287.058 396.838Z" fill="black"/>
<path d="M286.032 397.156L287.348 396.607L292.848 409.804L291.532 410.353L286.032 397.156Z" fill="black"/>
<path d="M274.827 401.455L283.78 398.075L288.83 411.45L279.977 414.793L279.591 413.77L287.11 410.931L285.337 406.235L278.795 408.705L278.399 407.654L284.94 405.184L282.836 399.611L275.217 402.488L274.827 401.455Z" fill="black"/>
<path d="M271.964 402.274L281.053 414.346L279.614 414.815L274.263 407.646C274.13 407.47 273.785 407.001 273.228 406.237C272.666 405.483 272.237 404.903 271.941 404.5C271.938 404.994 271.93 405.692 271.916 406.594C271.902 407.496 271.893 408.105 271.886 408.422L271.844 417.353L270.47 417.801L270.683 402.692L271.964 402.274Z" fill="black"/>
<path d="M257.567 406.42L266.79 403.868L270.604 417.646L261.484 420.171L261.192 419.116L268.938 416.973L267.599 412.135L260.86 414L260.561 412.918L267.3 411.053L265.711 405.311L257.861 407.484L257.567 406.42Z" fill="black"/>
<path d="M252.521 407.421L253.915 407.12L256.932 421.095L255.539 421.396L252.521 407.421Z" fill="black"/>
<path d="M250.211 407.949L252.635 422.038L251.066 422.308L240.318 411.841L240.968 415.623L242.376 423.804L241.134 424.017L238.71 409.927L239.98 409.709L251.067 420.584C251.067 420.584 250.838 419.253 250.38 416.59L248.931 408.169L250.211 407.949Z" fill="black"/>
<path d="M231.042 416.08L236.884 424.49L235.348 424.639L230.449 417.443L227.038 425.448L225.512 425.596L229.622 416.209L229.104 410.882L230.523 410.744L231.042 416.08Z" fill="black"/>
<path d="M220.183 426.017C219.234 426.061 218.395 425.963 217.667 425.724C216.932 425.484 216.288 425.09 215.735 424.543C215.182 423.995 214.749 423.253 214.438 422.316C214.121 421.385 213.933 420.273 213.872 418.979C213.751 416.378 214.167 414.458 215.119 413.221C216.072 411.984 217.533 411.32 219.504 411.228C220.46 411.183 221.302 411.281 222.03 411.521C222.758 411.76 223.396 412.161 223.943 412.722C224.491 413.283 224.92 414.038 225.232 414.988C225.537 415.939 225.721 417.081 225.783 418.414C225.843 419.714 225.762 420.843 225.54 421.798C225.311 422.76 224.95 423.54 224.456 424.136C223.963 424.739 223.365 425.191 222.662 425.491C221.953 425.797 221.126 425.973 220.183 426.017ZM220.14 424.875C220.816 424.844 221.407 424.721 221.912 424.509C222.41 424.297 222.821 424.01 223.143 423.65C223.459 423.296 223.709 422.854 223.892 422.324C224.076 421.794 224.199 421.218 224.262 420.596C224.318 419.981 224.327 419.28 224.291 418.493C224.188 416.302 223.776 414.714 223.052 413.731C222.329 412.755 221.16 412.304 219.548 412.379C217.928 412.455 216.804 413.009 216.174 414.042C215.544 415.075 215.281 416.694 215.384 418.899C215.421 419.686 215.499 420.386 215.619 420.999C215.732 421.613 215.908 422.175 216.147 422.686C216.379 423.196 216.673 423.613 217.026 423.935C217.381 424.264 217.819 424.511 218.342 424.675C218.858 424.84 219.457 424.907 220.14 424.875Z" fill="black"/>
<path d="M213.082 417.251L212.947 425.941L211.384 425.917L211.516 417.461C211.525 416.849 211.504 416.312 211.453 415.849C211.401 415.386 211.294 414.938 211.132 414.506C210.969 414.08 210.75 413.728 210.474 413.45C210.199 413.173 209.834 412.949 209.381 412.779C208.921 412.616 208.379 412.529 207.754 412.519C207.129 412.51 206.588 412.579 206.13 412.728C205.671 412.884 205.303 413.096 205.026 413.366C204.742 413.635 204.515 413.98 204.346 414.4C204.17 414.827 204.049 415.271 203.983 415.733C203.917 416.194 203.88 416.73 203.87 417.342L203.739 425.798L202.206 425.775L202.34 417.152C202.371 415.115 202.834 413.625 203.728 412.681C204.621 411.745 205.989 411.291 207.831 411.319C209.628 411.347 210.962 411.833 211.833 412.778C212.697 413.729 213.113 415.22 213.082 417.251Z" fill="black"/>
<path d="M191.221 421.181C191.286 420.207 191.591 419.431 192.138 418.854C192.678 418.283 193.481 417.892 194.545 417.682L191.68 410.69L193.2 410.791L196.001 417.563L200.455 417.857L200.888 411.299L202.301 411.392L201.358 425.658L196.203 425.318C194.352 425.195 193.037 424.798 192.26 424.127C191.481 423.462 191.135 422.48 191.221 421.181ZM200.015 424.512L200.382 418.958L196.962 418.732C196.494 418.701 196.083 418.69 195.731 418.7C195.371 418.709 194.999 418.759 194.615 418.851C194.224 418.943 193.901 419.078 193.648 419.257C193.388 419.435 193.169 419.692 192.991 420.026C192.812 420.366 192.706 420.777 192.674 421.258C192.642 421.751 192.689 422.175 192.815 422.529C192.942 422.89 193.112 423.172 193.327 423.376C193.535 423.585 193.821 423.754 194.184 423.882C194.541 424.017 194.877 424.108 195.194 424.155C195.51 424.202 195.899 424.24 196.361 424.271L200.015 424.512Z" fill="black"/>
<path d="M176.458 421.885L184.417 423.003L185.126 417.955L178.212 416.984L178.367 415.881L185.281 416.852L186.254 409.928L187.666 410.126L185.677 424.284L176.306 422.968L176.458 421.885Z" fill="black"/>
<path d="M177.998 414.388L176.36 422.924L174.826 422.629L176.42 414.324C176.535 413.723 176.607 413.19 176.637 412.725C176.667 412.26 176.639 411.8 176.553 411.347C176.467 410.899 176.312 410.515 176.089 410.193C175.865 409.872 175.545 409.589 175.128 409.343C174.704 409.102 174.185 408.923 173.571 408.805C172.957 408.687 172.412 408.662 171.935 408.73C171.456 408.804 171.057 408.949 170.737 409.166C170.411 409.382 170.128 409.682 169.888 410.067C169.641 410.457 169.445 410.874 169.3 411.317C169.156 411.76 169.026 412.282 168.91 412.883L167.316 421.188L165.81 420.899L167.436 412.431C167.82 410.429 168.534 409.042 169.577 408.268C170.619 407.5 172.045 407.289 173.855 407.637C175.619 407.975 176.849 408.685 177.543 409.766C178.229 410.853 178.381 412.393 177.998 414.388Z" fill="black"/>
<path d="M166.58 419.893L166.318 420.965L155.873 418.415L156.135 417.343L160.632 418.44L163.763 405.614L165.215 405.968L162.083 418.795L166.58 419.893Z" fill="black"/>
<path d="M158.359 410.015L155.881 418.346L154.383 417.901L156.794 409.794C156.969 409.208 157.094 408.685 157.169 408.225C157.245 407.765 157.263 407.305 157.223 406.845C157.181 406.391 157.065 405.993 156.875 405.651C156.684 405.31 156.394 404.996 156.004 404.71C155.605 404.428 155.106 404.198 154.507 404.02C153.908 403.842 153.368 403.763 152.887 403.783C152.403 403.809 151.992 403.914 151.652 404.098C151.305 404.28 150.994 404.551 150.717 404.91C150.433 405.274 150.196 405.669 150.008 406.095C149.82 406.522 149.639 407.028 149.465 407.615L147.054 415.721L145.585 415.284L148.043 407.019C148.623 405.065 149.471 403.755 150.587 403.089C151.7 402.428 153.14 402.36 154.906 402.886C156.628 403.398 157.781 404.226 158.364 405.371C158.939 406.52 158.938 408.068 158.359 410.015Z" fill="black"/>
<path d="M136.268 407.865C136.595 406.946 137.101 406.282 137.785 405.876C138.46 405.474 139.339 405.317 140.42 405.405L139.569 397.897L141.004 398.408L141.854 405.687L146.058 407.185L148.263 400.993L149.597 401.468L144.8 414.937L139.934 413.204C138.186 412.581 137.029 411.841 136.464 410.983C135.896 410.131 135.831 409.092 136.268 407.865ZM143.82 413.468L145.688 408.224L142.458 407.074C142.017 406.917 141.625 406.795 141.283 406.707C140.935 406.618 140.563 406.565 140.168 406.549C139.767 406.53 139.42 406.573 139.128 406.676C138.829 406.777 138.548 406.964 138.285 407.236C138.02 407.515 137.807 407.881 137.645 408.335C137.479 408.801 137.409 409.222 137.434 409.597C137.457 409.979 137.544 410.297 137.696 410.551C137.839 410.809 138.068 411.05 138.382 411.272C138.688 411.499 138.988 411.678 139.279 411.809C139.571 411.941 139.935 412.084 140.37 412.239L143.82 413.468Z" fill="black"/>
<path d="M130.774 394.117L139.608 397.798L134.108 410.995L125.374 407.355L125.794 406.345L133.213 409.437L135.144 404.804L128.69 402.114L129.122 401.077L135.576 403.767L137.867 398.269L130.35 395.136L130.774 394.117Z" fill="black"/>
<path d="M108.996 397.759L111.542 393.365L109.615 392.249C109.277 392.053 108.996 391.89 108.77 391.759C108.536 391.631 108.283 391.496 108.012 391.354C107.732 391.214 107.501 391.106 107.319 391.031C107.131 390.952 106.927 390.875 106.707 390.801C106.487 390.726 106.302 390.682 106.151 390.67C105.994 390.655 105.831 390.65 105.662 390.657C105.489 390.67 105.335 390.709 105.199 390.773C105.064 390.838 104.928 390.924 104.79 391.032C104.646 391.137 104.514 391.268 104.394 391.424C104.264 391.582 104.139 391.765 104.018 391.974C103.884 392.205 103.786 392.426 103.724 392.638C103.652 392.853 103.614 393.049 103.609 393.226C103.595 393.406 103.618 393.586 103.68 393.765C103.733 393.946 103.801 394.109 103.882 394.254C103.958 394.396 104.074 394.546 104.231 394.704C104.378 394.865 104.524 395.002 104.669 395.116C104.805 395.233 104.986 395.368 105.213 395.522C105.434 395.672 105.632 395.798 105.807 395.9C105.972 396.003 106.188 396.132 106.452 396.285L108.996 397.759ZM112.057 392.456L115.108 387.192L112.455 385.655C112.134 385.469 111.862 385.315 111.639 385.193C111.412 385.077 111.143 384.951 110.831 384.815C110.509 384.682 110.23 384.592 109.994 384.545C109.754 384.504 109.492 384.483 109.206 384.483C108.917 384.489 108.655 384.544 108.421 384.649C108.187 384.754 107.952 384.919 107.717 385.144C107.472 385.371 107.25 385.656 107.051 386C106.888 386.282 106.767 386.55 106.687 386.804C106.598 387.062 106.54 387.299 106.512 387.516C106.484 387.733 106.5 387.945 106.56 388.153C106.617 388.367 106.684 388.556 106.761 388.721C106.838 388.886 106.96 389.059 107.127 389.238C107.291 389.423 107.45 389.583 107.605 389.718C107.755 389.85 107.951 389.998 108.195 390.162C108.439 390.325 108.657 390.467 108.851 390.587C109.04 390.704 109.277 390.845 109.565 391.012L112.057 392.456ZM116.865 387.003L109.697 399.373L105.987 397.223C105.593 396.995 105.242 396.776 104.934 396.568C104.617 396.362 104.3 396.129 103.984 395.87C103.667 395.612 103.404 395.358 103.195 395.109C102.98 394.856 102.794 394.579 102.638 394.278C102.482 393.976 102.386 393.673 102.353 393.368C102.313 393.059 102.336 392.722 102.419 392.357C102.5 391.997 102.65 391.628 102.868 391.251C103.711 389.798 104.972 389.381 106.652 390.001C105.868 389.314 105.416 388.562 105.294 387.747C105.172 386.931 105.353 386.107 105.836 385.273C106.237 384.58 106.676 384.071 107.151 383.744C107.626 383.417 108.18 383.26 108.812 383.273C109.441 383.291 110.122 383.441 110.854 383.723C111.583 384.01 112.452 384.446 113.46 385.03L116.865 387.003Z" fill="black"/>
<path d="M99.6738 376.339L107.696 381.559L99.8986 393.542L91.9668 388.382L92.5633 387.465L99.3 391.848L102.037 387.641L96.1766 383.827L96.7891 382.886L102.65 386.699L105.899 381.706L99.0719 377.264L99.6738 376.339Z" fill="black"/>
<path d="M93.0997 371.516L100.193 376.589L91.876 388.218L90.7163 387.389L98.3913 376.658L92.4578 372.414L93.0997 371.516Z" fill="black"/>
<path d="M92.3452 370.823L93.4802 371.686L84.8265 383.067L83.6915 382.204L92.3452 370.823Z" fill="black"/>
<path d="M83.0117 363.313L90.4353 369.353L81.4125 380.443L74.0721 374.471L74.7624 373.622L80.9968 378.695L84.1646 374.801L78.7408 370.388L79.4496 369.517L84.8734 373.93L88.6329 369.309L82.3152 364.169L83.0117 363.313Z" fill="black"/>
<path d="M80.801 361.202L74.9081 375.117L73.7805 374.107L77.3038 365.883C77.3894 365.681 77.6228 365.147 78.0039 364.282C78.3758 363.418 78.6621 362.756 78.8628 362.298C78.4337 362.543 77.8255 362.886 77.0383 363.325C76.2511 363.765 75.7188 364.062 75.4414 364.216L67.6914 368.654L66.6147 367.69L79.7971 360.303L80.801 361.202Z" fill="black"/>
<path d="M70.0306 350.91L76.8748 357.599L66.8817 367.824L60.1143 361.21L60.8788 360.427L66.6265 366.045L70.1351 362.455L65.1346 357.568L65.9196 356.765L70.92 361.652L75.0838 357.392L69.2593 351.699L70.0306 350.91Z" fill="black"/>
<path d="M66.5661 347.033L67.53 348.083L56.9948 357.748L56.0309 356.698L66.5661 347.033Z" fill="black"/>
<path d="M64.9915 345.354L54.0786 354.59L53.0502 353.375L56.6188 338.802L53.6893 341.281L47.3533 346.644L46.5394 345.682L57.4524 336.446L58.2851 337.43L54.5365 352.501C54.5365 352.501 55.5677 351.628 57.63 349.883L64.1524 344.362L64.9915 345.354Z" fill="black"/>
<path d="M48.3227 333.044L44.0444 342.347L43.1359 341.1L46.8473 333.225L38.2195 334.351L37.3167 333.112L47.491 331.886L51.8165 328.735L52.656 329.887L48.3227 333.044Z" fill="black"/>
<path d="M34.2692 328.772C33.7495 327.976 33.4084 327.203 33.2457 326.454C33.0796 325.7 33.0922 324.945 33.2835 324.19C33.4749 323.436 33.8955 322.687 34.5454 321.943C35.1863 321.198 36.0492 320.472 37.1339 319.763C39.3144 318.339 41.1792 317.724 42.7285 317.918C44.2778 318.111 45.5918 319.034 46.6703 320.685C47.1936 321.487 47.5366 322.262 47.6992 323.011C47.8618 323.76 47.8402 324.513 47.6344 325.269C47.4285 326.026 46.9952 326.779 46.3344 327.53C45.67 328.274 44.7791 329.012 43.6616 329.741C42.5714 330.453 41.5581 330.956 40.6218 331.248C39.6764 331.539 38.8215 331.623 38.057 331.5C37.2871 331.381 36.5946 331.094 35.9796 330.641C35.3555 330.185 34.7854 329.562 34.2692 328.772ZM35.2312 328.155C35.6014 328.722 36.0062 329.169 36.4455 329.497C36.8812 329.819 37.3361 330.027 37.8101 330.122C38.2751 330.215 38.7826 330.206 39.3326 330.096C39.8826 329.985 40.4414 329.799 41.0091 329.537C41.5678 329.274 42.1769 328.926 42.8365 328.496C44.6735 327.296 45.8321 326.135 46.3123 325.013C46.787 323.894 46.583 322.659 45.7002 321.307C44.8138 319.95 43.7658 319.262 42.5561 319.243C41.3465 319.224 39.8177 319.818 37.9697 321.025C37.3102 321.456 36.7464 321.878 36.2783 322.293C35.8068 322.702 35.4117 323.139 35.093 323.604C34.7709 324.063 34.5606 324.527 34.4622 324.995C34.3584 325.467 34.3681 325.97 34.4912 326.504C34.6108 327.033 34.8575 327.583 35.2312 328.155Z" fill="black"/>
<path d="M38.6714 318.962L31.1442 323.307L30.363 321.954L37.6873 317.726C38.2173 317.42 38.6678 317.126 39.0388 316.844C39.4099 316.563 39.7391 316.241 40.0267 315.88C40.3085 315.521 40.4979 315.153 40.5947 314.774C40.6916 314.394 40.6966 313.967 40.6097 313.491C40.5139 313.012 40.3098 312.502 39.9973 311.961C39.6849 311.42 39.3471 310.991 38.9839 310.674C38.6151 310.361 38.2439 310.154 37.8704 310.054C37.4937 309.949 37.0813 309.931 36.6335 310.002C36.1767 310.07 35.7335 310.194 35.3039 310.374C34.8743 310.555 34.3945 310.798 33.8645 311.104L26.5402 315.332L25.7737 314.004L33.2417 309.693C35.0065 308.674 36.5231 308.306 37.7913 308.589C39.0539 308.875 40.1458 309.816 41.0669 311.411C41.9653 312.968 42.2326 314.362 41.869 315.594C41.4965 316.824 40.4306 317.947 38.6714 318.962Z" fill="black"/>
<path d="M24.0389 302.041C24.9103 301.6 25.7337 301.468 26.509 301.645C27.2756 301.819 28.0203 302.311 28.7432 303.12L33.3009 297.093L33.9885 298.453L29.5873 304.313L31.6018 308.295L37.4665 305.328L38.1056 306.592L25.3481 313.045L23.0162 308.435C22.1787 306.78 21.8508 305.446 22.0324 304.435C22.2082 303.427 22.877 302.629 24.0389 302.041ZM25.65 311.306L30.6171 308.793L29.0699 305.734C28.8583 305.316 28.6587 304.957 28.4709 304.658C28.2802 304.354 28.0474 304.059 27.7724 303.775C27.4944 303.485 27.2139 303.277 26.9309 303.15C26.645 303.018 26.3128 302.959 25.9344 302.976C25.5501 302.995 25.143 303.113 24.7132 303.331C24.2716 303.554 23.9307 303.811 23.6904 304.1C23.4443 304.392 23.2884 304.683 23.2228 304.971C23.1484 305.257 23.1485 305.589 23.2231 305.967C23.2889 306.342 23.3822 306.678 23.5029 306.975C23.6237 307.271 23.7884 307.625 23.997 308.038L25.65 311.306Z" fill="black"/>
<path d="M15.8669 289.726L18.9814 297.135L23.6808 295.16L20.975 288.723L22.0013 288.292L24.7071 294.729L31.1529 292.019L31.7054 293.333L18.5256 298.874L14.8587 290.15L15.8669 289.726Z" fill="black"/>
<path d="M23.1576 287.356L14.9915 290.332L14.4566 288.864L22.4024 285.968C22.9774 285.759 23.472 285.547 23.8863 285.334C24.3005 285.121 24.6805 284.861 25.0263 284.555C25.3659 284.251 25.6163 283.92 25.7773 283.564C25.9384 283.207 26.0173 282.787 26.0142 282.303C26.0028 281.815 25.89 281.278 25.676 280.69C25.462 280.103 25.2036 279.622 24.9008 279.248C24.5918 278.875 24.2621 278.607 23.9115 278.444C23.5588 278.275 23.1557 278.186 22.7024 278.178C22.2407 278.166 21.7827 278.212 21.3284 278.315C20.874 278.418 20.3593 278.574 19.7843 278.784L11.8385 281.679L11.3135 280.239L19.4154 277.286C21.3299 276.589 22.8873 276.489 24.0874 276.987C25.2814 277.487 26.1938 278.603 26.8247 280.334C27.4399 282.022 27.4617 283.442 26.8902 284.593C26.3103 285.739 25.0661 286.661 23.1576 287.356Z" fill="black"/>
<path d="M12.6248 280.524L11.5708 280.851L8.38581 270.582L9.43979 270.255L10.811 274.676L23.4215 270.765L23.8641 272.192L11.2536 276.103L12.6248 280.524Z" fill="black"/>
<path d="M16.7381 267.942L8.31258 270.075L7.92908 268.56L16.1274 266.485C16.7207 266.334 17.2342 266.174 17.6679 266.004C18.1016 265.834 18.506 265.614 18.881 265.344C19.2497 265.076 19.5322 264.773 19.7285 264.435C19.9249 264.096 20.046 263.686 20.092 263.204C20.13 262.718 20.0723 262.172 19.9189 261.566C19.7655 260.96 19.5571 260.455 19.2938 260.052C19.0242 259.65 18.7233 259.35 18.3911 259.152C18.0573 258.948 17.6653 258.819 17.2151 258.765C16.757 258.706 16.2968 258.705 15.8343 258.762C15.3718 258.818 14.8439 258.922 14.2507 259.072L6.05232 261.148L5.676 259.662L14.0353 257.545C16.0107 257.045 17.5702 257.103 18.7136 257.721C19.8508 258.339 20.6455 259.542 21.0977 261.328C21.5387 263.07 21.4167 264.484 20.7315 265.571C20.0384 266.653 18.7072 267.443 16.7381 267.942Z" fill="black"/>
<path d="M7.27748 247.937C8.23554 247.748 9.06395 247.844 9.76271 248.223C10.4538 248.598 11.0382 249.272 11.5159 250.246L17.5313 245.674L17.8264 247.169L12.0066 251.622L12.8711 256.001L19.3189 254.728L19.5932 256.117L5.56707 258.886L4.5664 253.818C4.20699 251.998 4.25123 250.625 4.69911 249.701C5.1406 248.777 6.00005 248.19 7.27748 247.937ZM6.3275 257.293L11.7885 256.215L11.1245 252.852C11.0337 252.392 10.9383 251.993 10.8383 251.654C10.737 251.309 10.5923 250.963 10.4042 250.615C10.2148 250.261 10.001 249.984 9.76269 249.786C9.52316 249.581 9.219 249.435 8.85022 249.349C8.47504 249.264 8.05114 249.268 7.57849 249.361C7.09307 249.457 6.6956 249.612 6.38609 249.826C6.07019 250.041 5.8417 250.278 5.70061 250.538C5.55187 250.793 5.46235 251.113 5.43204 251.497C5.39408 251.876 5.39322 252.225 5.42947 252.543C5.46571 252.861 5.5286 253.247 5.61814 253.7L6.3275 257.293Z" fill="black"/>
<path d="M16.2263 236.169L17.6135 245.638L3.46765 247.71L2.09602 238.347L3.17822 238.189L4.34319 246.141L9.30971 245.413L8.2962 238.495L9.40739 238.332L10.4209 245.251L16.315 244.387L15.1345 236.329L16.2263 236.169Z" fill="black"/>
<path d="M1.76995 214.278L6.84792 214.317L6.86501 212.091C6.86801 211.7 6.8705 211.374 6.8725 211.114C6.86804 210.847 6.86047 210.561 6.8498 210.255C6.83267 209.942 6.81183 209.688 6.78729 209.492C6.76279 209.29 6.72864 209.075 6.68481 208.847C6.64099 208.619 6.58705 208.436 6.523 208.299C6.45899 208.155 6.38197 208.011 6.29193 207.867C6.19537 207.723 6.08557 207.609 5.96253 207.523C5.83948 207.437 5.69683 207.361 5.53458 207.295C5.37237 207.222 5.19371 207.172 4.99861 207.145C4.79704 207.11 4.57582 207.092 4.33494 207.091C4.06802 207.089 3.82694 207.113 3.6117 207.163C3.39001 207.207 3.20071 207.271 3.04382 207.354C2.88046 207.431 2.73639 207.541 2.61159 207.683C2.48034 207.819 2.37185 207.958 2.28611 208.1C2.20043 208.236 2.12747 208.412 2.06723 208.626C2.00053 208.834 1.95346 209.029 1.92602 209.211C1.89212 209.386 1.86436 209.611 1.84273 209.884C1.82115 210.151 1.80959 210.385 1.80804 210.587C1.80003 210.782 1.79485 211.033 1.7925 211.339L1.76995 214.278ZM7.89289 214.315L13.9767 214.362L14.0002 211.296C14.0031 210.925 14.0022 210.612 13.9977 210.358C13.9866 210.104 13.9628 209.808 13.9263 209.469C13.8834 209.124 13.8238 208.837 13.7474 208.608C13.6645 208.38 13.5524 208.141 13.4111 207.893C13.2632 207.644 13.0857 207.444 12.8786 207.293C12.6714 207.142 12.4119 207.019 12.1001 206.926C11.7819 206.825 11.4242 206.774 11.027 206.771C10.7015 206.768 10.4083 206.795 10.1475 206.852C9.88017 206.902 9.64528 206.969 9.44281 207.052C9.24034 207.135 9.06364 207.254 8.91271 207.409C8.75526 207.564 8.62389 207.716 8.51857 207.865C8.41326 208.014 8.3239 208.205 8.25049 208.439C8.17057 208.673 8.1103 208.89 8.06969 209.092C8.02913 209.287 7.99796 209.531 7.97618 209.824C7.95441 210.116 7.93939 210.377 7.93113 210.605C7.92292 210.826 7.91754 211.103 7.91499 211.435L7.89289 214.315ZM15.0106 215.796L0.714194 215.686L0.747087 211.399C0.750584 210.943 0.766776 210.53 0.795664 210.159C0.818092 209.782 0.863406 209.391 0.931605 208.988C0.999804 208.585 1.09041 208.231 1.20344 207.926C1.31651 207.614 1.46529 207.316 1.64977 207.031C1.83425 206.746 2.05089 206.513 2.29968 206.333C2.54851 206.146 2.85239 205.998 3.2113 205.891C3.5637 205.783 3.95799 205.73 4.39418 205.734C6.07382 205.746 7.05986 206.636 7.3523 208.403C7.56196 207.382 7.99102 206.617 8.63948 206.108C9.28794 205.599 10.0939 205.348 11.0574 205.355C11.8582 205.361 12.518 205.49 13.037 205.741C13.5559 205.993 13.9662 206.396 14.2679 206.952C14.5632 207.508 14.7696 208.173 14.8874 208.949C14.9986 209.725 15.0498 210.695 15.0408 211.86L15.0106 215.796Z" fill="black"/>
<path d="M15.6691 196.106L15.1556 205.662L0.87928 204.895L1.38708 195.446L2.47925 195.505L2.04796 203.53L7.06026 203.8L7.43548 196.817L8.55691 196.878L8.18169 203.86L14.1301 204.18L14.5672 196.047L15.6691 196.106Z" fill="black"/>
<path d="M16.6253 187.316L15.7579 195.993L1.53188 194.571L1.67369 193.153L14.8016 194.465L15.5272 187.206L16.6253 187.316Z" fill="black"/>
<path d="M16.8527 186.268L16.6676 187.682L2.49173 185.825L2.67684 184.412L16.8527 186.268Z" fill="black"/>
<path d="M18.6231 174.938L17.0917 184.385L2.97905 182.097L4.49323 172.756L5.57289 172.931L4.28685 180.865L9.2417 181.668L10.3605 174.766L11.4691 174.945L10.3503 181.847L16.2306 182.801L17.5338 174.761L18.6231 174.938Z" fill="black"/>
<path d="M19.3234 171.972L4.32745 173.832L4.63755 172.351L13.5205 171.286C13.7391 171.259 14.3181 171.194 15.2575 171.091C16.1918 170.981 16.9076 170.898 17.4048 170.842C16.978 170.593 16.3772 170.238 15.6025 169.777C14.8277 169.315 14.3045 169.003 14.0327 168.839L6.31206 164.35L6.60815 162.935L19.5995 170.653L19.3234 171.972Z" fill="black"/>
<path d="M22.8708 157.415L20.4868 166.683L6.6406 163.122L8.99783 153.957L10.0571 154.23L8.05504 162.014L12.9163 163.264L14.6581 156.492L15.7458 156.772L14.004 163.544L19.7732 165.028L21.8021 157.14L22.8708 157.415Z" fill="black"/>
<path d="M24.3856 152.777L23.9581 154.137L10.3189 149.85L10.7464 148.49L24.3856 152.777Z" fill="black"/>
<path d="M25.0446 150.541L11.5937 145.696L12.1331 144.198L26.5419 140.015L22.9311 138.715L15.1214 135.902L15.5483 134.716L28.9993 139.561L28.5625 140.774L13.6325 145.05C13.6325 145.05 14.9035 145.508 17.4454 146.423L25.4848 149.319L25.0446 150.541Z" fill="black"/>
<path d="M27.4089 129.836L17.211 130.756L17.8404 129.347L26.5179 128.647L21.2467 121.724L21.8722 120.324L27.9995 128.539L32.8855 130.722L32.3038 132.024L27.4089 129.836Z" fill="black"/>
<path d="M24.1378 115.416C24.5699 114.57 25.0706 113.89 25.6398 113.376C26.2119 112.857 26.873 112.492 27.623 112.283C28.373 112.074 29.232 112.067 30.2 112.261C31.1651 112.447 32.2246 112.834 33.3785 113.423C35.698 114.607 37.1588 115.919 37.7611 117.36C38.3635 118.8 38.2162 120.399 37.3193 122.156C36.8841 123.009 36.382 123.691 35.8128 124.205C35.2437 124.719 34.5798 125.074 33.8211 125.271C33.0624 125.469 32.1933 125.468 31.2137 125.267C30.2371 125.061 29.1545 124.655 27.9658 124.048C26.8061 123.456 25.8665 122.826 25.1471 122.159C24.4248 121.484 23.927 120.783 23.6535 120.059C23.3742 119.332 23.2785 118.588 23.3664 117.829C23.4514 117.061 23.7086 116.257 24.1378 115.416ZM25.151 115.944C24.8431 116.547 24.6564 117.121 24.5907 117.665C24.5279 118.203 24.5733 118.701 24.7267 119.16C24.8772 119.609 25.1371 120.045 25.5063 120.468C25.8754 120.89 26.3147 121.282 26.8241 121.645C27.3307 121.998 27.9348 122.354 28.6364 122.712C30.5906 123.71 32.1738 124.138 33.3862 123.997C34.5929 123.853 35.5632 123.062 36.2974 121.623C37.0344 120.18 37.1104 118.928 36.5253 117.869C35.9401 116.81 34.6647 115.779 32.699 114.776C31.9974 114.418 31.3504 114.139 30.7581 113.938C30.1688 113.733 29.5933 113.607 29.0317 113.562C28.4731 113.51 27.9661 113.558 27.5107 113.706C27.0494 113.851 26.6178 114.109 26.2158 114.481C25.8167 114.848 25.4618 115.336 25.151 115.944Z" fill="black"/>
<path d="M34.7789 114.391L27.2677 110.018L28.0538 108.667L35.3625 112.922C35.8914 113.23 36.3703 113.475 36.7992 113.657C37.2282 113.839 37.6709 113.965 38.1274 114.035C38.5783 114.102 38.9923 114.083 39.3695 113.978C39.7466 113.874 40.1202 113.666 40.4901 113.354C40.8577 113.033 41.1988 112.602 41.5132 112.062C41.8277 111.522 42.032 111.016 42.1263 110.543C42.2149 110.068 42.2098 109.643 42.1111 109.269C42.0156 108.889 41.826 108.523 41.5422 108.169C41.256 107.807 40.9279 107.484 40.5579 107.201C40.1879 106.918 39.7385 106.622 39.2096 106.314L31.9009 102.059L32.6723 100.734L40.1244 105.073C41.8855 106.098 42.9585 107.231 43.3434 108.472C43.7226 109.71 43.4488 111.125 42.5218 112.717C41.6178 114.27 40.5407 115.195 39.2907 115.492C38.0383 115.78 36.5343 115.413 34.7789 114.391Z" fill="black"/>
<path d="M42.3208 93.0159C43.1365 93.5529 43.6603 94.2017 43.8923 94.9623C44.1224 95.7139 44.0662 96.6045 43.7237 97.6339L51.2185 98.5922L50.3809 99.8647L43.1085 98.9593L40.6548 102.687L46.1445 106.301L45.3659 107.483L33.424 99.6227L36.2643 95.3076C37.2845 93.7578 38.2784 92.8103 39.2461 92.4652C40.2083 92.1164 41.2332 92.3 42.3208 93.0159ZM35.0835 99.0198L39.733 102.08L41.6176 99.2172C41.8754 98.8257 42.0873 98.4741 42.2534 98.1626C42.4231 97.8456 42.5628 97.4972 42.6725 97.1173C42.7858 96.7321 42.8271 96.3851 42.7964 96.0765C42.7693 95.7625 42.6546 95.4454 42.4523 95.1251C42.2445 94.8013 41.9395 94.507 41.5371 94.2421C41.1238 93.97 40.7318 93.8017 40.3613 93.7371C39.9853 93.6688 39.6558 93.678 39.3728 93.7645C39.088 93.842 38.8 94.0071 38.509 94.2598C38.2161 94.5035 37.9711 94.7514 37.7739 95.0036C37.5768 95.2557 37.3511 95.5748 37.097 95.9609L35.0835 99.0198Z" fill="black"/>
<path d="M48.8037 79.9319L43.9305 86.323L47.9842 89.4139L52.2179 83.8615L53.1032 84.5365L48.8695 90.089L54.4297 94.3286L53.5652 95.4624L42.1962 86.7936L47.934 79.2687L48.8037 79.9319Z" fill="black"/>
<path d="M54.9342 84.5L48.3 78.885L49.3094 77.6924L55.7648 83.1559C56.2319 83.5512 56.6608 83.8759 57.0515 84.1298C57.4422 84.3837 57.8562 84.5848 58.2935 84.7332C58.7259 84.8774 59.1369 84.9309 59.5264 84.8939C59.916 84.8569 60.3201 84.717 60.7388 84.4743C61.1567 84.2224 61.5675 83.8579 61.9713 83.3808C62.375 82.9038 62.6645 82.4408 62.8396 81.992C63.0098 81.539 63.0789 81.1198 63.0468 80.7345C63.0189 80.3441 62.8961 79.9501 62.6782 79.5525C62.4596 79.1457 62.1928 78.7706 61.8778 78.4273C61.5628 78.0839 61.1718 77.7146 60.7046 77.3192L54.2493 71.8557L55.2398 70.6854L61.8219 76.2562C63.3773 77.5726 64.2364 78.8754 64.3991 80.1646C64.5568 81.4495 64.0406 82.7952 62.8503 84.2016C61.6894 85.5731 60.4677 86.2961 59.1851 86.3705C57.9017 86.4357 56.4847 85.8122 54.9342 84.5Z" fill="black"/>
<path d="M55.2628 72.3582L54.4551 71.6063L61.781 63.7364L62.5887 64.4883L59.4348 67.8764L69.0989 76.8724L68.0808 77.966L58.4167 68.9701L55.2628 72.3582Z" fill="black"/>
<path d="M68.2821 69.5846L62.2296 63.3469L63.351 62.2588L69.2402 68.3283C69.6664 68.7675 70.0614 69.1326 70.4254 69.4235C70.7893 69.7144 71.1816 69.9552 71.6023 70.1457C72.0185 70.3315 72.4223 70.4251 72.8136 70.4263C73.2049 70.4276 73.6208 70.328 74.0612 70.1275C74.5018 69.9177 74.9463 69.5952 75.3949 69.16C75.8434 68.7248 76.1768 68.2924 76.3951 67.8629C76.6088 67.4287 76.7186 67.0183 76.7244 66.6317C76.7349 66.2405 76.6512 65.8364 76.4733 65.4193C76.2956 64.9931 76.0668 64.5937 75.787 64.2211C75.5071 63.8486 75.1541 63.4427 74.728 63.0035L68.8388 56.934L69.9391 55.8663L75.9439 62.055C77.363 63.5174 78.0903 64.8981 78.126 66.197C78.1571 67.4912 77.5116 68.7798 76.1893 70.0629C74.8997 71.3141 73.613 71.914 72.3292 71.8624C71.0456 71.8016 69.6966 71.0423 68.2821 69.5846Z" fill="black"/>
<path d="M80.2787 51.9229C80.9222 52.6575 81.2546 53.4222 81.2758 54.2172C81.2977 55.0029 81.0067 55.8465 80.4027 56.7477L87.3726 59.665L86.2266 60.6689L79.4571 57.8617L76.1002 60.8025L80.4309 65.7461L79.3658 66.6792L69.945 55.9251L73.8309 52.521C75.2265 51.2984 76.4367 50.6494 77.4612 50.5741C78.4815 50.4939 79.4207 50.9435 80.2787 51.9229ZM71.7051 55.7854L75.373 59.9724L77.9514 57.7137C78.304 57.4049 78.6017 57.1224 78.8447 56.8662C79.0926 56.6058 79.32 56.3071 79.5268 55.9701C79.7385 55.6288 79.8706 55.3054 79.9231 54.9998C79.9805 54.6898 79.9543 54.3536 79.8444 53.9911C79.7303 53.6237 79.5145 53.2588 79.197 52.8964C78.871 52.5242 78.538 52.2577 78.198 52.0968C77.8537 51.9311 77.5336 51.8522 77.2378 51.8604C76.9426 51.8593 76.6211 51.9419 76.2734 52.1081C75.9262 52.265 75.6241 52.4389 75.3669 52.6295C75.1098 52.8201 74.8074 53.0677 74.4597 53.3723L71.7051 55.7854Z" fill="black"/>
<path d="M95.364 53.4243L87.853 59.3552L78.9929 48.1347L86.4196 42.2703L87.0974 43.1287L80.7897 48.1095L83.9004 52.0489L89.388 47.7157L90.084 48.5971L84.5964 52.9303L88.2881 57.6055L94.6801 52.5582L95.364 53.4243Z" fill="black"/>
<path d="M102.741 32.5631L105.336 36.9283L107.25 35.7906C107.586 35.591 107.866 35.4246 108.09 35.2916C108.316 35.1496 108.557 34.9948 108.813 34.8273C109.072 34.6508 109.279 34.5015 109.433 34.3793C109.593 34.2538 109.76 34.1133 109.932 33.9577C110.105 33.8021 110.233 33.6613 110.318 33.5355C110.407 33.4064 110.491 33.266 110.567 33.1145C110.64 32.9574 110.682 32.804 110.691 32.6544C110.701 32.5049 110.692 32.3435 110.665 32.1703C110.643 31.9938 110.594 31.815 110.516 31.6338C110.441 31.4436 110.342 31.245 110.219 31.038C110.083 30.8085 109.937 30.6148 109.783 30.4567C109.63 30.2897 109.478 30.1607 109.325 30.0696C109.175 29.9696 109.007 29.9031 108.82 29.8699C108.636 29.8278 108.461 29.807 108.295 29.8074C108.134 29.8046 107.946 29.8328 107.732 29.8922C107.519 29.9427 107.328 30.0033 107.158 30.0741C106.99 30.1359 106.784 30.2283 106.539 30.3512C106.3 30.4708 106.093 30.5822 105.92 30.6853C105.748 30.7795 105.531 30.9048 105.268 31.0611L102.741 32.5631ZM105.878 37.8215L108.987 43.0513L111.623 41.4845C111.942 41.2949 112.209 41.1324 112.424 40.9971C112.636 40.8562 112.877 40.6824 113.148 40.4759C113.421 40.2604 113.636 40.0608 113.792 39.8772C113.944 39.6881 114.091 39.4687 114.23 39.2192C114.366 38.9641 114.445 38.7087 114.468 38.4531C114.49 38.1975 114.46 37.9121 114.379 37.5969C114.3 37.2728 114.159 36.94 113.956 36.5987C113.79 36.3188 113.615 36.082 113.431 35.8881C113.25 35.6852 113.072 35.5187 112.896 35.3884C112.72 35.2582 112.527 35.1686 112.316 35.1197C112.102 35.0653 111.904 35.0315 111.722 35.0185C111.54 35.0055 111.33 35.028 111.092 35.0862C110.85 35.1388 110.633 35.1999 110.439 35.2694C110.252 35.3357 110.027 35.4352 109.765 35.5681C109.503 35.701 109.273 35.8229 109.073 35.9337C108.88 36.0412 108.64 36.1798 108.355 36.3495L105.878 37.8215ZM108.295 44.678L100.99 32.3884L104.676 30.1978C105.067 29.965 105.429 29.7649 105.762 29.5977C106.096 29.4216 106.454 29.2583 106.834 29.1081C107.214 28.9578 107.564 28.852 107.884 28.7908C108.209 28.7263 108.541 28.6992 108.88 28.7095C109.22 28.7198 109.531 28.7848 109.814 28.9043C110.103 29.0205 110.386 29.2042 110.664 29.4555C110.939 29.7011 111.188 30.0114 111.411 30.3864C112.269 31.8302 112.018 33.1344 110.658 34.299C111.64 33.9502 112.516 33.9214 113.288 34.2127C114.059 34.5039 114.691 35.0637 115.183 35.8919C115.592 36.5803 115.824 37.2115 115.877 37.7856C115.931 38.3598 115.798 38.9197 115.478 39.4655C115.156 40.0057 114.693 40.5269 114.09 41.0291C113.484 41.5257 112.68 42.0717 111.678 42.6671L108.295 44.678Z" fill="black"/>
<path d="M125.338 35.1311L116.886 39.6197L110.18 26.9929L118.538 22.5546L119.051 23.5206L111.953 27.2902L114.307 31.7234L120.482 28.4439L121.009 29.4358L114.834 32.7152L117.628 37.9764L124.821 34.1565L125.338 35.1311Z" fill="black"/>
<path d="M133.016 31.5544L125.139 35.2966L119.004 22.383L120.292 21.7712L125.953 33.6881L132.542 30.5576L133.016 31.5544Z" fill="black"/>
<path d="M134.842 30.8432L133.534 31.4114L127.837 18.2987L129.145 17.7305L134.842 30.8432Z" fill="black"/>
<path d="M144.741 26.8242L135.853 30.3725L130.552 17.0947L139.341 13.5861L139.746 14.6019L132.282 17.5818L134.143 22.2436L140.637 19.6511L141.053 20.6941L134.559 23.2866L136.768 28.819L144.332 25.7993L144.741 26.8242Z" fill="black"/>
<path d="M148.634 25.5353L139.364 13.6025L140.795 13.1109L146.255 20.1986C146.39 20.3724 146.742 20.8365 147.311 21.5911C147.884 22.3374 148.321 22.9099 148.624 23.3087C148.619 22.8146 148.617 22.1167 148.617 21.2149C148.617 20.3131 148.618 19.7037 148.619 19.3866L148.526 10.4561L149.893 9.9867L149.909 25.0975L148.634 25.5353Z" fill="black"/>
<path d="M162.734 21.2003L153.55 23.8934L149.527 10.1743L158.608 7.5114L158.915 8.56095L151.203 10.8226L152.616 15.6393L159.325 13.6717L159.641 14.7494L152.932 16.717L154.608 22.4333L162.423 20.1414L162.734 21.2003Z" fill="black"/>
<path d="M167.333 20.1692L165.946 20.4967L162.661 6.58228L164.049 6.25471L167.333 20.1692Z" fill="black"/>
<path d="M169.752 19.5456L167.058 5.50502L168.621 5.205L179.569 15.464L178.846 11.6949L177.281 3.5429L178.519 3.30546L181.213 17.3461L179.947 17.589L168.654 6.92898C168.654 6.92898 168.908 8.25568 169.417 10.9091L171.028 19.3008L169.752 19.5456Z" fill="black"/>
<path d="M188.025 11.0973L182.021 2.80252L183.554 2.62341L188.592 9.72332L191.847 1.65419L193.37 1.47621L189.442 10.9415L190.063 16.2568L188.647 16.4223L188.025 11.0973Z" fill="black"/>
<path d="M199.701 0.834312C200.65 0.775309 201.49 0.860035 202.222 1.08849C202.96 1.31654 203.61 1.70011 204.172 2.23919C204.734 2.77826 205.178 3.51386 205.503 4.44598C205.834 5.3712 206.04 6.48034 206.121 7.77342C206.282 10.3726 205.897 12.298 204.964 13.5498C204.03 14.8015 202.579 15.4886 200.61 15.6111C199.655 15.6705 198.812 15.5859 198.08 15.3575C197.348 15.129 196.704 14.7386 196.148 14.1861C195.592 13.6336 195.151 12.8848 194.824 11.9397C194.505 10.9942 194.303 9.85539 194.221 8.52333C194.14 7.22375 194.203 6.09459 194.411 5.13583C194.625 4.17017 194.974 3.38526 195.458 2.78112C195.942 2.17048 196.533 1.70973 197.231 1.39886C197.936 1.08109 198.759 0.892911 199.701 0.834312ZM199.762 1.97529C199.087 2.01732 198.498 2.14852 197.996 2.36888C197.501 2.58884 197.095 2.88152 196.779 3.24693C196.469 3.60542 196.226 4.05106 196.05 4.58382C195.874 5.11658 195.76 5.69444 195.708 6.31739C195.661 6.93344 195.662 7.63459 195.711 8.42083C195.847 10.6106 196.285 12.1913 197.024 13.163C197.762 14.1281 198.937 14.5606 200.549 14.4603C202.167 14.3597 203.282 13.788 203.896 12.7453C204.509 11.7026 204.748 10.0799 204.611 7.87712C204.562 7.09088 204.473 6.39194 204.343 5.7803C204.22 5.16826 204.036 4.60899 203.789 4.1025C203.549 3.5956 203.249 3.18372 202.89 2.86684C202.531 2.54347 202.089 2.30353 201.564 2.14702C201.045 1.9901 200.445 1.93286 199.762 1.97529Z" fill="black"/>
<path d="M205.692 9.47671L205.625 0.78557L207.187 0.773432L207.253 9.23021C207.257 9.84217 207.291 10.379 207.353 10.8408C207.415 11.3026 207.533 11.7476 207.705 12.176C207.878 12.5978 208.105 12.9444 208.387 13.2157C208.669 13.4869 209.039 13.7021 209.496 13.8614C209.959 14.014 210.503 14.0879 211.128 14.0831C211.753 14.0782 212.293 13.9959 212.748 13.8361C213.202 13.6698 213.565 13.4489 213.836 13.1733C214.114 12.8977 214.333 12.5477 214.492 12.1233C214.658 11.6923 214.769 11.2455 214.824 10.7828C214.879 10.3201 214.904 9.78277 214.899 9.17081L214.833 0.714032L216.366 0.702122L216.433 9.32491C216.449 11.3626 216.021 12.8634 215.15 13.8272C214.278 14.7845 212.922 15.2703 211.079 15.2847C209.282 15.2986 207.938 14.8435 207.045 13.9195C206.159 12.9888 205.708 11.5079 205.692 9.47671Z" fill="black"/>
<path d="M228.737 5.11684C228.688 6.09216 228.394 6.87261 227.856 7.45819C227.325 8.03759 226.529 8.44065 225.468 8.66735L228.442 15.6133L226.92 15.5365L224.014 8.809L219.556 8.58383L219.225 15.1477L217.811 15.0763L218.532 0.797613L223.691 1.05826C225.545 1.15188 226.865 1.52823 227.653 2.18732C228.442 2.83991 228.803 3.81642 228.737 5.11684ZM219.893 1.9224L219.612 7.48172L223.036 7.65466C223.504 7.67831 223.914 7.68275 224.267 7.66798C224.626 7.65353 224.997 7.59732 225.38 7.49933C225.77 7.40167 226.09 7.26139 226.34 7.07848C226.597 6.8959 226.812 6.63624 226.986 6.29951C227.16 5.95628 227.259 5.54409 227.283 5.06293C227.308 4.56877 227.254 4.14561 227.122 3.79344C226.99 3.43477 226.816 3.1554 226.597 2.95535C226.386 2.74911 226.098 2.58462 225.733 2.46186C225.374 2.33293 225.036 2.24741 224.719 2.20531C224.402 2.16321 224.012 2.13049 223.55 2.10717L219.893 1.9224Z" fill="black"/>
<path d="M243.208 4.06174L235.229 3.09794L234.617 8.1588L241.549 8.99613L241.416 10.1014L234.484 9.26405L233.645 16.2058L232.23 16.0348L233.944 1.8411L243.339 2.97588L243.208 4.06174Z" fill="black"/>
<path d="M241.874 11.5745L243.348 3.00891L244.888 3.27384L243.454 11.6084C243.35 12.2115 243.288 12.7458 243.267 13.2113C243.247 13.6768 243.283 14.1356 243.377 14.5878C243.472 15.0335 243.635 15.4149 243.864 15.7318C244.094 16.0488 244.419 16.3261 244.841 16.5638C245.27 16.7961 245.792 16.9653 246.408 17.0713C247.024 17.1772 247.57 17.1919 248.046 17.1151C248.522 17.032 248.919 16.8789 249.234 16.6558C249.557 16.4338 249.834 16.128 250.066 15.7386C250.306 15.3438 250.494 14.9236 250.63 14.478C250.766 14.0324 250.886 13.508 250.989 12.9049L252.423 4.57033L253.934 4.83029L252.472 13.3285C252.127 15.3367 251.44 16.7379 250.411 17.5321C249.384 18.3198 247.963 18.5575 246.147 18.2451C244.376 17.9404 243.133 17.2543 242.418 16.1867C241.711 15.1137 241.53 13.5763 241.874 11.5745Z" fill="black"/>
<path d="M253.092 5.80585L253.333 4.72901L263.825 7.07882L263.584 8.15566L259.067 7.14402L256.181 20.028L254.723 19.7014L257.609 6.81748L253.092 5.80585Z" fill="black"/>
<path d="M261.29 15.4351L263.609 7.05861L265.115 7.4754L262.859 15.626C262.695 16.2158 262.58 16.7413 262.514 17.2024C262.447 17.6635 262.438 18.1237 262.486 18.583C262.536 19.036 262.66 19.4316 262.857 19.7698C263.054 20.108 263.35 20.4163 263.746 20.6947C264.15 20.9686 264.653 21.1889 265.255 21.3556C265.857 21.5224 266.399 21.5912 266.88 21.5622C267.363 21.5269 267.772 21.4139 268.109 21.2234C268.451 21.0345 268.758 20.7579 269.027 20.3934C269.305 20.0245 269.534 19.6251 269.714 19.1952C269.893 18.7653 270.065 18.2555 270.228 17.6657L272.484 9.51509L273.962 9.92407L271.662 18.2347C271.118 20.1986 270.295 21.5245 269.193 22.2124C268.092 22.8941 266.654 22.9891 264.878 22.4977C263.146 22.0183 261.978 21.212 261.373 20.0785C260.776 18.9406 260.749 17.3927 261.29 15.4351Z" fill="black"/>
<path d="M284.385 17.4728C284.071 18.3976 283.575 19.0683 282.898 19.4847C282.229 19.8971 281.353 20.0675 280.27 19.9959L281.235 27.4899L279.792 27.0005L278.833 19.7351L274.606 18.3016L272.495 24.5256L271.154 24.0707L275.746 10.5315L280.639 12.1908C282.396 12.7868 283.563 13.5094 284.142 14.3586C284.722 15.2017 284.803 16.2397 284.385 17.4728ZM276.749 11.9851L274.961 17.2565L278.207 18.3576C278.651 18.5081 279.044 18.6245 279.388 18.7066C279.737 18.7907 280.11 18.838 280.505 18.8483C280.906 18.8607 281.252 18.8131 281.543 18.7055C281.84 18.6 282.118 18.409 282.377 18.1324C282.638 17.8497 282.846 17.4802 283 17.0239C283.159 16.5554 283.223 16.1337 283.192 15.7588C283.163 15.3778 283.071 15.0612 282.916 14.8093C282.769 14.5532 282.537 14.3162 282.219 14.0984C281.909 13.8765 281.608 13.702 281.314 13.5748C281.02 13.4477 280.654 13.3099 280.217 13.1614L276.749 11.9851Z" fill="black"/>
<path d="M289.671 30.9144L280.77 27.3995L286.021 14.1018L294.822 17.5773L294.42 18.5946L286.945 15.6428L285.102 20.3115L291.605 22.8795L291.193 23.9241L284.689 21.3561L282.501 26.8968L290.077 29.888L289.671 30.9144Z" fill="black"/>
<path d="M311.801 27.0413L309.32 31.4722L311.263 32.5599C311.604 32.7508 311.888 32.9098 312.115 33.037C312.351 33.1617 312.606 33.2932 312.879 33.4313C313.161 33.5669 313.394 33.6711 313.577 33.7438C313.766 33.8197 313.971 33.8934 314.192 33.9649C314.413 34.0365 314.599 34.0773 314.75 34.0873C314.907 34.1004 315.07 34.1022 315.24 34.0927C315.412 34.0774 315.566 34.0365 315.7 33.97C315.834 33.9034 315.97 33.815 316.106 33.7048C316.248 33.5977 316.378 33.4654 316.496 33.3077C316.623 33.1475 316.745 32.9623 316.863 32.7521C316.994 32.5192 317.088 32.2963 317.148 32.0834C317.216 31.868 317.252 31.6715 317.254 31.4938C317.266 31.3136 317.239 31.1345 317.174 30.9566C317.119 30.7762 317.049 30.6141 316.966 30.4703C316.888 30.3297 316.769 30.1813 316.61 30.0252C316.46 29.8666 316.312 29.7314 316.166 29.6197C316.028 29.5054 315.845 29.3729 315.616 29.2223C315.393 29.0749 315.193 28.9518 315.017 28.8532C314.85 28.7521 314.633 28.6268 314.366 28.4773L311.801 27.0413ZM308.818 32.3887L305.846 37.6972L308.521 39.1952C308.845 39.3765 309.119 39.5264 309.344 39.6447C309.572 39.7574 309.843 39.8794 310.158 40.0107C310.481 40.1395 310.761 40.2255 310.998 40.2687C311.238 40.3061 311.501 40.3228 311.787 40.3187C312.076 40.3089 312.337 40.2497 312.569 40.1411C312.802 40.0325 313.034 39.8641 313.266 39.636C313.507 39.4053 313.725 39.1167 313.919 38.7702C314.078 38.4862 314.195 38.2162 314.271 37.9604C314.356 37.7021 314.411 37.4642 314.436 37.2467C314.461 37.0293 314.442 36.817 314.378 36.6101C314.318 36.3974 314.249 36.209 314.169 36.045C314.089 35.8809 313.964 35.7104 313.795 35.5334C313.629 35.3508 313.467 35.1931 313.31 35.0604C313.159 34.9309 312.96 34.7861 312.714 34.6259C312.468 34.4657 312.247 34.3271 312.051 34.2101C311.861 34.0963 311.621 33.9583 311.332 33.7961L308.818 32.3887ZM304.091 37.9123L311.076 25.4378L314.816 27.5322C315.214 27.7549 315.568 27.9682 315.88 28.1722C316.199 28.3737 316.52 28.6015 316.84 28.8555C317.16 29.1095 317.427 29.3595 317.64 29.6056C317.859 29.8548 318.048 30.129 318.209 30.428C318.37 30.727 318.47 31.0289 318.508 31.3338C318.552 31.6419 318.534 31.9792 318.456 32.3457C318.381 32.7066 318.237 33.0773 318.024 33.4579C317.203 34.9235 315.948 35.3588 314.259 34.7638C315.053 35.4393 315.516 36.1838 315.65 36.9975C315.784 37.8111 315.616 38.6383 315.145 39.479C314.754 40.1778 314.323 40.6939 313.852 41.0275C313.382 41.3611 312.831 41.5262 312.199 41.5228C311.569 41.5138 310.887 41.374 310.15 41.1034C309.417 40.8272 308.542 40.4044 307.525 39.835L304.091 37.9123Z" fill="black"/>
<path d="M320.883 47.9008L312.766 42.8299L320.341 30.7049L328.367 35.7188L327.787 36.6464L320.971 32.3879L318.312 36.645L324.242 40.3498L323.647 41.3022L317.717 37.5974L314.56 42.6495L321.467 46.9649L320.883 47.9008Z" fill="black"/>
<path d="M327.758 52.7176L320.573 47.7753L328.675 35.9961L329.85 36.8041L322.373 47.6742L328.383 51.8084L327.758 52.7176Z" fill="black"/>
<path d="M328.1 53.068L326.949 52.2259L335.394 40.6892L336.544 41.5313L328.1 53.068Z" fill="black"/>
<path d="M337.585 60.3815L330.053 54.478L338.872 43.2252L346.32 49.0624L345.645 49.9233L339.319 44.9656L336.223 48.9164L341.726 53.2295L341.034 54.1134L335.53 49.8003L331.856 54.489L338.266 59.5129L337.585 60.3815Z" fill="black"/>
<path d="M340.386 62.8714L346.025 48.852L347.171 49.8411L343.798 58.1273C343.716 58.3318 343.492 58.8699 343.127 59.7414C342.771 60.6122 342.496 61.2786 342.304 61.7405C342.729 61.4877 343.33 61.1343 344.11 60.6801C344.889 60.226 345.415 59.9196 345.69 59.761L353.358 55.1823L354.452 56.1267L341.406 63.752L340.386 62.8714Z" fill="black"/>
<path d="M351.029 72.6528L344.065 66.0889L353.87 55.6846L360.757 62.1748L360.007 62.9708L354.158 57.4585L350.715 61.1113L355.803 65.907L355.033 66.7243L349.945 61.9286L345.859 66.2637L351.786 71.8498L351.029 72.6528Z" fill="black"/>
<path d="M354.843 76.7052L353.86 75.6722L364.218 65.8176L365.2 66.8505L354.843 76.7052Z" fill="black"/>
<path d="M356.284 78.1441L367.028 68.7111L368.078 69.9073L364.775 84.5428L367.659 82.0106L373.896 76.5338L374.728 77.4804L363.984 86.9134L363.134 85.9448L366.608 70.8083C366.608 70.8083 365.593 71.6996 363.562 73.4822L357.141 79.1201L356.284 78.1441Z" fill="black"/>
<path d="M373.801 90.9094L377.944 81.5453L378.87 82.7791L375.274 90.7073L383.884 89.4554L384.805 90.6814L374.65 92.0553L370.371 95.2691L369.515 94.1291L373.801 90.9094Z" fill="black"/>
<path d="M387.915 94.9431C388.446 95.7312 388.799 96.4987 388.972 97.2453C389.149 97.9974 389.148 98.7522 388.968 99.5097C388.787 100.267 388.378 101.022 387.739 101.775C387.109 102.529 386.257 103.269 385.182 103.993C383.023 105.448 381.167 106.091 379.615 105.92C378.063 105.749 376.736 104.846 375.633 103.21C375.099 102.416 374.744 101.646 374.571 100.9C374.397 100.153 374.408 99.3999 374.603 98.6405C374.797 97.8811 375.22 97.1215 375.869 96.3616C376.523 95.607 377.403 94.8568 378.509 94.1108C379.589 93.383 380.595 92.866 381.527 92.5597C382.468 92.2551 383.322 92.1587 384.088 92.2703C384.859 92.3783 385.556 92.6547 386.178 93.0993C386.808 93.5457 387.387 94.1603 387.915 94.9431ZM386.962 95.5736C386.584 95.0121 386.172 94.571 385.728 94.25C385.288 93.9345 384.83 93.7327 384.355 93.6449C383.889 93.5588 383.381 93.5749 382.833 93.6933C382.285 93.8117 381.728 94.0059 381.165 94.276C380.61 94.5479 380.006 94.904 379.353 95.3443C377.533 96.5706 376.392 97.7484 375.928 98.8775C375.47 100.003 375.692 101.235 376.594 102.574C377.501 103.918 378.558 104.591 379.768 104.592C380.978 104.593 382.498 103.977 384.328 102.743C384.981 102.303 385.539 101.872 386.001 101.451C386.466 101.035 386.855 100.592 387.167 100.123C387.482 99.659 387.686 99.1921 387.777 98.7222C387.874 98.2486 387.857 97.7458 387.726 97.2138C387.599 96.6872 387.344 96.1404 386.962 95.5736Z" fill="black"/>
<path d="M383.631 104.728L391.094 100.273L391.895 101.614L384.634 105.949C384.108 106.263 383.662 106.564 383.295 106.851C382.928 107.138 382.604 107.464 382.322 107.83C382.045 108.192 381.861 108.564 381.77 108.944C381.678 109.325 381.68 109.752 381.774 110.227C381.876 110.704 382.088 111.211 382.408 111.748C382.729 112.284 383.073 112.708 383.441 113.019C383.814 113.327 384.188 113.528 384.563 113.623C384.941 113.723 385.354 113.735 385.801 113.658C386.256 113.583 386.698 113.452 387.125 113.265C387.552 113.079 388.028 112.829 388.553 112.515L395.815 108.18L396.601 109.496L389.197 113.916C387.447 114.961 385.936 115.351 384.664 115.087C383.397 114.82 382.291 113.895 381.347 112.313C380.426 110.77 380.138 109.38 380.484 108.143C380.838 106.907 381.887 105.769 383.631 104.728Z" fill="black"/>
<path d="M398.193 120.725C397.33 121.182 396.509 121.329 395.731 121.166C394.961 121.006 394.208 120.529 393.47 119.733L389.024 125.843L388.312 124.496L392.604 118.556L390.516 114.612L384.708 117.686L384.045 116.434L396.682 109.747L399.098 114.313C399.966 115.953 400.318 117.28 400.155 118.294C399.998 119.306 399.344 120.116 398.193 120.725ZM396.412 111.492L391.492 114.096L393.095 117.125C393.314 117.54 393.521 117.894 393.714 118.19C393.91 118.491 394.148 118.781 394.429 119.06C394.712 119.345 394.996 119.548 395.281 119.67C395.57 119.797 395.903 119.849 396.281 119.826C396.665 119.799 397.07 119.673 397.495 119.448C397.933 119.217 398.269 118.954 398.504 118.66C398.745 118.363 398.895 118.07 398.955 117.78C399.024 117.493 399.018 117.162 398.937 116.785C398.864 116.411 398.765 116.077 398.638 115.783C398.512 115.489 398.341 115.137 398.125 114.729L396.412 111.492Z" fill="black"/>
<path d="M406.651 132.948L403.399 125.598L398.737 127.66L401.562 134.046L400.544 134.496L397.719 128.11L391.325 130.939L390.748 129.635L403.823 123.851L407.651 132.505L406.651 132.948Z" fill="black"/>
<path d="M399.758 136.276L407.879 133.179L408.435 134.638L400.534 137.652C399.962 137.871 399.47 138.089 399.059 138.309C398.648 138.528 398.272 138.794 397.931 139.105C397.596 139.414 397.351 139.748 397.195 140.107C397.039 140.466 396.967 140.887 396.977 141.371C396.996 141.859 397.117 142.395 397.339 142.979C397.562 143.562 397.828 144.04 398.136 144.41C398.451 144.777 398.784 145.04 399.137 145.198C399.492 145.363 399.897 145.445 400.35 145.446C400.812 145.451 401.269 145.399 401.722 145.289C402.175 145.179 402.687 145.015 403.259 144.797L411.161 141.783L411.707 143.215L403.65 146.289C401.746 147.015 400.19 147.138 398.983 146.658C397.782 146.175 396.853 145.073 396.196 143.352C395.556 141.673 395.513 140.254 396.067 139.095C396.63 137.94 397.86 137 399.758 136.276Z" fill="black"/>
<path d="M410.372 142.853L411.421 142.511L414.76 152.731L413.711 153.074L412.273 148.674L399.723 152.774L399.259 151.354L411.809 147.254L410.372 142.853Z" fill="black"/>
<path d="M406.284 154.905L414.668 152.614L415.08 154.121L406.922 156.351C406.332 156.512 405.821 156.682 405.391 156.861C404.961 157.039 404.56 157.266 404.191 157.543C403.827 157.818 403.55 158.126 403.36 158.469C403.17 158.811 403.057 159.223 403.02 159.706C402.991 160.193 403.059 160.738 403.224 161.341C403.389 161.943 403.607 162.444 403.878 162.842C404.155 163.239 404.461 163.533 404.797 163.725C405.135 163.923 405.529 164.045 405.98 164.09C406.439 164.14 406.9 164.132 407.361 164.067C407.822 164.001 408.348 163.888 408.938 163.727L417.096 161.497L417.5 162.976L409.183 165.249C407.217 165.787 405.657 165.758 404.502 165.162C403.353 164.565 402.536 163.378 402.05 161.601C401.576 159.867 401.672 158.451 402.336 157.351C403.009 156.256 404.325 155.441 406.284 154.905Z" fill="black"/>
<path d="M416.114 174.673C415.16 174.88 414.33 174.801 413.624 174.434C412.926 174.073 412.329 173.41 411.833 172.445L405.905 177.13L405.582 175.642L411.316 171.078L410.369 166.717L403.946 168.112L403.646 166.728L417.617 163.693L418.713 168.742C419.107 170.555 419.089 171.928 418.659 172.861C418.235 173.792 417.387 174.396 416.114 174.673ZM416.887 165.301L411.447 166.483L412.175 169.832C412.274 170.29 412.377 170.688 412.484 171.024C412.592 171.367 412.743 171.711 412.937 172.055C413.134 172.406 413.353 172.678 413.595 172.872C413.838 173.072 414.145 173.212 414.515 173.291C414.892 173.369 415.316 173.357 415.786 173.255C416.27 173.15 416.664 172.988 416.97 172.768C417.282 172.547 417.506 172.305 417.642 172.043C417.786 171.785 417.869 171.464 417.892 171.079C417.923 170.699 417.917 170.35 417.875 170.033C417.832 169.716 417.762 169.331 417.664 168.88L416.887 165.301Z" fill="black"/>
<path d="M407.4 186.614L405.833 177.173L419.937 174.832L421.486 184.167L420.407 184.346L419.091 176.418L414.139 177.24L415.285 184.137L414.177 184.321L413.031 177.424L407.155 178.399L408.489 186.434L407.4 186.614Z" fill="black"/>
</svg>
