<svg width="504" height="507" viewBox="0 0 504 507" fill="none" xmlns="http://www.w3.org/2000/svg">
<path d="M499.31 255.307L494.233 255.19L494.182 257.416C494.173 257.806 494.166 258.132 494.16 258.392C494.16 258.659 494.163 258.946 494.169 259.252C494.181 259.565 494.198 259.819 494.22 260.015C494.241 260.217 494.272 260.433 494.313 260.662C494.353 260.891 494.404 261.074 494.466 261.212C494.528 261.357 494.603 261.502 494.69 261.647C494.785 261.793 494.893 261.909 495.014 261.997C495.136 262.084 495.278 262.162 495.439 262.231C495.6 262.306 495.778 262.359 495.972 262.39C496.173 262.427 496.394 262.448 496.635 262.454C496.902 262.46 497.143 262.44 497.359 262.392C497.582 262.352 497.772 262.291 497.93 262.21C498.095 262.136 498.24 262.028 498.367 261.888C498.501 261.754 498.611 261.617 498.699 261.476C498.787 261.341 498.863 261.167 498.926 260.953C498.996 260.747 499.046 260.553 499.076 260.371C499.113 260.196 499.144 259.972 499.17 259.699C499.196 259.433 499.211 259.199 499.215 258.997C499.226 258.802 499.235 258.551 499.242 258.245L499.31 255.307ZM493.188 255.175L487.106 255.035L487.036 258.101C487.027 258.472 487.023 258.784 487.024 259.038C487.031 259.293 487.05 259.589 487.081 259.929C487.119 260.275 487.174 260.562 487.247 260.792C487.326 261.022 487.435 261.262 487.572 261.513C487.716 261.763 487.891 261.966 488.096 262.121C488.3 262.275 488.558 262.401 488.868 262.5C489.185 262.605 489.542 262.662 489.939 262.671C490.264 262.678 490.558 262.656 490.82 262.603C491.088 262.557 491.324 262.494 491.527 262.414C491.731 262.334 491.91 262.218 492.063 262.065C492.223 261.913 492.356 261.763 492.464 261.615C492.571 261.468 492.664 261.278 492.741 261.046C492.824 260.813 492.888 260.596 492.932 260.395C492.975 260.201 493.01 259.958 493.036 259.665C493.063 259.373 493.082 259.113 493.093 258.885C493.105 258.664 493.115 258.387 493.122 258.055L493.188 255.175ZM486.094 253.586L500.387 253.915L500.289 258.201C500.278 258.657 500.256 259.07 500.221 259.44C500.193 259.817 500.142 260.207 500.067 260.609C499.993 261.011 499.897 261.363 499.779 261.667C499.661 261.977 499.508 262.273 499.319 262.555C499.13 262.837 498.91 263.066 498.659 263.243C498.407 263.426 498.101 263.569 497.74 263.671C497.386 263.774 496.991 263.82 496.555 263.81C494.876 263.771 493.904 262.866 493.638 261.096C493.413 262.113 492.972 262.871 492.316 263.37C491.66 263.87 490.85 264.108 489.887 264.086C489.086 264.068 488.428 263.929 487.913 263.67C487.398 263.41 486.994 263 486.701 262.44C486.415 261.88 486.218 261.211 486.112 260.434C486.013 259.657 485.977 258.685 486.004 257.52L486.094 253.586Z" fill="black"/>
<path d="M485.001 276.12L485.698 266.575L499.957 267.616L499.268 277.054L498.177 276.974L498.762 268.958L493.756 268.593L493.247 275.567L492.127 275.485L492.636 268.511L486.695 268.078L486.102 276.201L485.001 276.12Z" fill="black"/>
<path d="M483.863 285.783L484.863 277.12L499.066 278.76L498.902 280.176L485.796 278.663L484.96 285.91L483.863 285.783Z" fill="black"/>
<path d="M483.434 288.377L483.64 286.966L497.786 289.039L497.579 290.449L483.434 288.377Z" fill="black"/>
<path d="M481.215 301.255L482.926 291.839L496.992 294.395L495.301 303.705L494.224 303.51L495.661 295.602L490.723 294.705L489.473 301.584L488.368 301.384L489.618 294.504L483.756 293.439L482.301 301.452L481.215 301.255Z" fill="black"/>
<path d="M480.146 305.875L495.175 304.299L494.837 305.775L485.935 306.67C485.716 306.694 485.136 306.748 484.195 306.833C483.259 306.925 482.541 306.995 482.043 307.041C482.465 307.298 483.059 307.664 483.825 308.141C484.591 308.617 485.108 308.939 485.377 309.107L493.011 313.742L492.688 315.151L479.845 307.188L480.146 305.875Z" fill="black"/>
<path d="M475.938 322.027L478.496 312.805L492.273 316.627L489.743 325.746L488.689 325.453L490.837 317.709L486.001 316.367L484.131 323.104L483.049 322.804L484.918 316.067L479.178 314.474L477.001 322.322L475.938 322.027Z" fill="black"/>
<path d="M473.594 329.125L474.047 327.773L487.603 332.315L487.15 333.667L473.594 329.125Z" fill="black"/>
<path d="M472.638 332.113L485.996 337.208L485.429 338.696L470.945 342.609L474.531 343.977L482.286 346.935L481.837 348.112L468.479 343.017L468.939 341.812L483.946 337.816C483.946 337.816 482.684 337.335 480.159 336.372L472.175 333.327L472.638 332.113Z" fill="black"/>
<path d="M468.702 355.68L478.915 354.949L478.26 356.346L469.571 356.886L474.713 363.905L474.062 365.293L468.087 356.966L463.243 354.693L463.848 353.402L468.702 355.68Z" fill="black"/>
<path d="M470.966 371.69C470.518 372.528 470.005 373.199 469.427 373.702C468.845 374.21 468.177 374.562 467.423 374.758C466.67 374.953 465.811 374.945 464.847 374.732C463.885 374.529 462.833 374.122 461.69 373.512C459.393 372.285 457.956 370.946 457.381 369.495C456.805 368.044 456.982 366.448 457.911 364.708C458.362 363.864 458.876 363.19 459.455 362.687C460.033 362.184 460.704 361.841 461.466 361.658C462.228 361.474 463.097 361.492 464.073 361.71C465.045 361.934 466.12 362.36 467.298 362.989C468.446 363.602 469.374 364.249 470.081 364.929C470.791 365.618 471.276 366.327 471.536 367.056C471.801 367.789 471.883 368.534 471.782 369.291C471.682 370.057 471.41 370.857 470.966 371.69ZM469.963 371.143C470.281 370.546 470.479 369.976 470.554 369.433C470.627 368.896 470.591 368.397 470.446 367.936C470.304 367.484 470.052 367.043 469.691 366.614C469.329 366.185 468.897 365.784 468.395 365.413C467.895 365.05 467.297 364.683 466.602 364.312C464.667 363.278 463.092 362.821 461.877 362.94C460.668 363.062 459.683 363.835 458.923 365.259C458.159 366.689 458.06 367.939 458.626 369.009C459.191 370.078 460.447 371.133 462.394 372.172C463.089 372.543 463.731 372.834 464.319 373.045C464.905 373.262 465.478 373.398 466.039 373.454C466.596 373.515 467.104 373.476 467.562 373.337C468.026 373.201 468.462 372.951 468.871 372.586C469.277 372.227 469.641 371.746 469.963 371.143Z" fill="black"/>
<path d="M459.201 374.518L466.63 379.028L465.82 380.363L458.59 375.975C458.067 375.657 457.593 375.404 457.167 375.214C456.742 375.024 456.301 374.89 455.846 374.812C455.397 374.737 454.982 374.748 454.603 374.846C454.224 374.943 453.847 375.145 453.471 375.45C453.098 375.764 452.749 376.188 452.425 376.722C452.1 377.256 451.887 377.759 451.784 378.23C451.687 378.704 451.684 379.128 451.776 379.504C451.864 379.885 452.047 380.255 452.324 380.614C452.604 380.982 452.926 381.31 453.291 381.6C453.655 381.89 454.099 382.194 454.623 382.512L461.852 386.9L461.056 388.21L453.685 383.736C451.943 382.679 450.891 381.526 450.529 380.278C450.173 379.034 450.472 377.624 451.428 376.049C452.361 374.513 453.455 373.608 454.71 373.334C455.967 373.069 457.464 373.464 459.201 374.518Z" fill="black"/>
<path d="M450.349 397.235C449.543 396.684 449.032 396.025 448.813 395.261C448.597 394.505 448.67 393.616 449.031 392.593L441.555 391.498L442.416 390.241L449.67 391.279L452.192 387.596L446.769 383.883L447.569 382.715L459.365 390.792L456.446 395.055C455.398 396.586 454.387 397.515 453.413 397.842C452.445 398.173 451.424 397.971 450.349 397.235ZM457.695 391.365L453.102 388.22L451.165 391.048C450.901 391.435 450.682 391.782 450.511 392.091C450.335 392.405 450.189 392.751 450.072 393.128C449.952 393.511 449.904 393.858 449.93 394.167C449.951 394.481 450.06 394.8 450.256 395.124C450.458 395.452 450.758 395.752 451.155 396.024C451.563 396.303 451.952 396.479 452.322 396.55C452.696 396.625 453.026 396.622 453.31 396.541C453.597 396.469 453.887 396.309 454.183 396.061C454.48 395.823 454.73 395.58 454.932 395.331C455.133 395.083 455.365 394.768 455.626 394.386L457.695 391.365Z" fill="black"/>
<path d="M441.926 412.579L446.915 406.277L442.918 403.113L438.584 408.587L437.711 407.896L442.045 402.422L436.563 398.082L437.448 396.964L448.657 405.838L442.784 413.257L441.926 412.579Z" fill="black"/>
<path d="M435.264 408.68L441.816 414.391L440.789 415.569L434.414 410.012C433.952 409.61 433.528 409.279 433.141 409.02C432.754 408.76 432.343 408.553 431.908 408.398C431.478 408.248 431.068 408.188 430.678 408.22C430.288 408.251 429.882 408.385 429.459 408.622C429.038 408.867 428.622 409.226 428.211 409.697C427.8 410.168 427.504 410.627 427.323 411.073C427.146 411.524 427.071 411.942 427.097 412.328C427.119 412.718 427.237 413.114 427.449 413.515C427.661 413.925 427.923 414.304 428.233 414.651C428.543 414.999 428.928 415.374 429.39 415.776L435.765 421.333L434.757 422.489L428.257 416.823C426.721 415.484 425.881 414.169 425.737 412.878C425.598 411.591 426.134 410.253 427.344 408.864C428.525 407.509 429.757 406.804 431.041 406.748C432.325 406.702 433.732 407.346 435.264 408.68Z" fill="black"/>
<path d="M432.826 422.947L433.62 423.713L426.153 431.449L425.359 430.682L428.574 427.352L419.075 418.182L420.112 417.107L429.611 426.277L432.826 422.947Z" fill="black"/>
<path d="M419.039 426.216L425 432.541L423.863 433.613L418.063 427.458C417.643 427.013 417.254 426.642 416.894 426.346C416.534 426.05 416.145 425.804 415.728 425.607C415.314 425.415 414.912 425.316 414.52 425.309C414.129 425.302 413.712 425.395 413.269 425.589C412.825 425.793 412.376 426.109 411.921 426.537C411.466 426.966 411.127 427.393 410.902 427.82C410.682 428.251 410.566 428.66 410.555 429.046C410.539 429.437 410.617 429.842 410.788 430.262C410.96 430.691 411.183 431.093 411.457 431.47C411.732 431.847 412.079 432.258 412.498 432.703L418.299 438.857L417.183 439.909L411.269 433.634C409.871 432.151 409.164 430.76 409.147 429.46C409.135 428.166 409.799 426.887 411.14 425.623C412.448 424.391 413.743 423.81 415.026 423.88C416.308 423.959 417.646 424.738 419.039 426.216Z" fill="black"/>
<path d="M404.513 445.691C403.883 444.945 403.564 444.174 403.557 443.379C403.55 442.593 403.856 441.755 404.476 440.865L397.561 437.821L398.725 436.838L405.442 439.768L408.852 436.889L404.612 431.868L405.694 430.954L414.917 441.878L410.97 445.211C409.553 446.408 408.331 447.034 407.305 447.091C406.283 447.153 405.353 446.686 404.513 445.691ZM413.155 441.985L409.564 437.732L406.945 439.944C406.587 440.246 406.284 440.523 406.036 440.775C405.784 441.031 405.551 441.325 405.338 441.658C405.12 441.996 404.982 442.317 404.924 442.621C404.861 442.93 404.881 443.267 404.984 443.631C405.092 444.001 405.301 444.369 405.612 444.738C405.931 445.116 406.259 445.388 406.596 445.555C406.937 445.727 407.256 445.812 407.552 445.809C407.847 445.816 408.17 445.739 408.521 445.579C408.871 445.428 409.176 445.26 409.436 445.074C409.697 444.888 410.004 444.646 410.357 444.348L413.155 441.985Z" fill="black"/>
<path d="M388.27 444.886L395.888 439.094L404.541 450.474L397.009 456.202L396.347 455.331L402.745 450.466L399.706 446.471L394.14 450.703L393.461 449.809L399.027 445.577L395.421 440.835L388.938 445.765L388.27 444.886Z" fill="black"/>
<path d="M376.459 468.372L373.946 463.959L372.011 465.061C371.672 465.255 371.389 465.416 371.163 465.545C370.934 465.682 370.69 465.833 370.43 465.996C370.168 466.167 369.959 466.313 369.802 466.432C369.64 466.555 369.471 466.692 369.295 466.844C369.12 466.997 368.989 467.135 368.902 467.259C368.81 467.387 368.724 467.526 368.645 467.676C368.569 467.831 368.525 467.984 368.512 468.133C368.5 468.283 368.506 468.444 368.53 468.618C368.548 468.795 368.595 468.974 368.669 469.157C368.74 469.349 368.836 469.549 368.955 469.758C369.087 469.99 369.229 470.187 369.38 470.347C369.53 470.517 369.68 470.649 369.831 470.743C369.979 470.846 370.146 470.915 370.332 470.952C370.515 470.997 370.69 471.021 370.856 471.024C371.017 471.03 371.205 471.005 371.421 470.95C371.634 470.903 371.826 470.846 371.997 470.779C372.166 470.72 372.374 470.631 372.622 470.513C372.863 470.398 373.072 470.29 373.247 470.19C373.42 470.099 373.639 469.978 373.905 469.827L376.459 468.372ZM373.42 463.056L370.408 457.77L367.744 459.288C367.422 459.471 367.152 459.629 366.934 459.76C366.72 459.897 366.476 460.066 366.201 460.268C365.924 460.478 365.705 460.674 365.546 460.854C365.39 461.041 365.24 461.257 365.096 461.504C364.955 461.757 364.871 462.011 364.844 462.266C364.817 462.521 364.841 462.807 364.917 463.124C364.99 463.449 365.125 463.784 365.321 464.129C365.482 464.412 365.653 464.652 365.833 464.85C366.01 465.056 366.185 465.226 366.359 465.359C366.532 465.493 366.724 465.586 366.934 465.638C367.147 465.697 367.344 465.734 367.526 465.751C367.708 465.767 367.918 465.748 368.157 465.695C368.399 465.646 368.618 465.589 368.813 465.523C369.002 465.461 369.228 465.365 369.493 465.237C369.757 465.109 369.99 464.992 370.191 464.884C370.386 464.781 370.628 464.646 370.917 464.482L373.42 463.056ZM371.13 456.156L378.207 468.579L374.482 470.701C374.086 470.926 373.72 471.12 373.385 471.281C373.047 471.451 372.687 471.607 372.304 471.75C371.921 471.894 371.569 471.993 371.248 472.048C370.922 472.107 370.589 472.128 370.25 472.111C369.911 472.094 369.601 472.024 369.32 471.899C369.034 471.778 368.754 471.589 368.48 471.332C368.21 471.082 367.967 470.767 367.751 470.388C366.92 468.928 367.195 467.629 368.576 466.49C367.588 466.82 366.711 466.833 365.945 466.527C365.18 466.222 364.558 465.651 364.081 464.813C363.685 464.118 363.465 463.482 363.422 462.907C363.379 462.332 363.523 461.775 363.852 461.235C364.185 460.701 364.657 460.188 365.269 459.697C365.884 459.212 366.698 458.681 367.711 458.104L371.13 456.156Z" fill="black"/>
<path d="M351.577 466.646L360.111 462.316L366.581 475.065L358.142 479.347L357.647 478.372L364.814 474.735L362.543 470.259L356.308 473.423L355.799 472.421L362.035 469.257L359.339 463.945L352.076 467.631L351.577 466.646Z" fill="black"/>
<path d="M342.567 470.681L350.512 467.086L356.405 480.112L355.106 480.7L349.668 468.68L343.021 471.686L342.567 470.681Z" fill="black"/>
<path d="M340.122 471.633L341.438 471.085L346.938 484.281L345.622 484.83L340.122 471.633Z" fill="black"/>
<path d="M328.205 476.234L337.159 472.853L342.209 486.229L333.356 489.571L332.969 488.548L340.488 485.709L338.715 481.013L332.174 483.483L331.777 482.432L338.319 479.962L336.215 474.389L328.595 477.266L328.205 476.234Z" fill="black"/>
<path d="M323.744 477.65L332.833 489.722L331.394 490.192L326.042 483.022C325.91 482.846 325.565 482.377 325.007 481.614C324.446 480.859 324.017 480.28 323.721 479.876C323.718 480.37 323.709 481.068 323.696 481.97C323.682 482.872 323.672 483.481 323.666 483.798L323.624 492.729L322.25 493.178L322.463 478.068L323.744 477.65Z" fill="black"/>
<path d="M307.721 482.323L316.944 479.77L320.758 493.549L311.638 496.073L311.346 495.019L319.092 492.875L317.753 488.037L311.014 489.903L310.715 488.82L317.454 486.955L315.865 481.214L308.015 483.386L307.721 482.323Z" fill="black"/>
<path d="M300.265 483.949L301.659 483.648L304.676 497.622L303.283 497.923L300.265 483.949Z" fill="black"/>
<path d="M297.207 484.654L299.631 498.744L298.062 499.014L287.313 488.546L287.964 492.329L289.372 500.509L288.13 500.723L285.706 486.633L286.976 486.414L298.063 497.29C298.063 497.29 297.834 495.958 297.376 493.296L295.927 484.875L297.207 484.654Z" fill="black"/>
<path d="M274.967 493.271L280.809 501.681L279.274 501.83L274.374 494.634L270.963 502.639L269.437 502.787L273.547 493.4L273.029 488.073L274.448 487.935L274.967 493.271Z" fill="black"/>
<path d="M262.412 503.374C261.462 503.418 260.623 503.32 259.895 503.08C259.161 502.841 258.517 502.447 257.963 501.899C257.41 501.352 256.977 500.609 256.667 499.672C256.349 498.742 256.161 497.63 256.1 496.336C255.979 493.734 256.395 491.815 257.347 490.578C258.3 489.341 259.761 488.676 261.732 488.584C262.688 488.54 263.53 488.637 264.258 488.877C264.986 489.117 265.624 489.517 266.171 490.078C266.719 490.64 267.149 491.395 267.46 492.345C267.765 493.296 267.949 494.437 268.011 495.77C268.071 497.071 267.99 498.199 267.768 499.155C267.539 500.117 267.178 500.896 266.684 501.493C266.191 502.096 265.593 502.547 264.89 502.847C264.181 503.154 263.355 503.33 262.412 503.374ZM262.368 502.232C263.044 502.2 263.635 502.078 264.14 501.866C264.639 501.653 265.049 501.367 265.371 501.007C265.687 500.653 265.937 500.211 266.121 499.681C266.304 499.151 266.427 498.575 266.49 497.953C266.546 497.338 266.555 496.637 266.519 495.85C266.417 493.658 266.004 492.071 265.28 491.088C264.557 490.111 263.389 489.661 261.776 489.736C260.156 489.811 259.032 490.366 258.402 491.399C257.773 492.432 257.509 494.051 257.612 496.255C257.649 497.042 257.727 497.743 257.847 498.356C257.96 498.97 258.136 499.532 258.375 500.042C258.607 500.553 258.901 500.969 259.255 501.292C259.609 501.621 260.047 501.867 260.57 502.032C261.086 502.197 261.685 502.264 262.368 502.232Z" fill="black"/>
<path d="M252.99 494.704L252.855 503.395L251.292 503.37L251.424 494.914C251.433 494.303 251.412 493.765 251.361 493.302C251.309 492.839 251.202 492.391 251.04 491.959C250.877 491.533 250.658 491.181 250.382 490.904C250.107 490.626 249.742 490.402 249.289 490.232C248.829 490.069 248.287 489.982 247.662 489.973C247.037 489.963 246.496 490.033 246.038 490.182C245.579 490.337 245.211 490.55 244.934 490.819C244.65 491.088 244.423 491.433 244.254 491.853C244.078 492.28 243.957 492.725 243.891 493.186C243.825 493.647 243.788 494.184 243.778 494.796L243.647 503.252L242.114 503.228L242.248 494.606C242.279 492.568 242.742 491.078 243.636 490.135C244.529 489.198 245.897 488.744 247.739 488.773C249.536 488.8 250.87 489.287 251.741 490.231C252.605 491.182 253.021 492.673 252.99 494.704Z" fill="black"/>
<path d="M229.11 498.601C229.174 497.627 229.48 496.851 230.027 496.274C230.567 495.703 231.369 495.312 232.434 495.102L229.568 488.111L231.088 488.211L233.89 494.983L238.343 495.277L238.777 488.719L240.19 488.813L239.247 503.079L234.092 502.738C232.241 502.616 230.926 502.219 230.148 501.547C229.37 500.883 229.024 499.901 229.11 498.601ZM237.903 501.933L238.271 496.378L234.85 496.152C234.383 496.122 233.972 496.111 233.619 496.12C233.26 496.129 232.888 496.179 232.503 496.271C232.112 496.363 231.79 496.498 231.537 496.677C231.277 496.856 231.058 497.112 230.879 497.446C230.7 497.787 230.595 498.197 230.563 498.678C230.53 499.172 230.577 499.596 230.704 499.95C230.83 500.31 231.001 500.593 231.216 500.796C231.424 501.005 231.71 501.174 232.073 501.303C232.429 501.437 232.766 501.528 233.083 501.575C233.399 501.622 233.788 501.661 234.249 501.691L237.903 501.933Z" fill="black"/>
<path d="M211.562 499.082L219.521 500.2L220.23 495.152L213.315 494.181L213.47 493.078L220.385 494.05L221.357 487.125L222.769 487.324L220.781 501.482L211.41 500.165L211.562 499.082Z" fill="black"/>
<path d="M211.411 491.351L209.773 499.887L208.239 499.592L209.833 491.287C209.948 490.686 210.021 490.153 210.05 489.688C210.08 489.223 210.052 488.763 209.967 488.309C209.88 487.862 209.725 487.477 209.502 487.156C209.278 486.835 208.958 486.551 208.541 486.305C208.117 486.065 207.598 485.886 206.984 485.768C206.37 485.65 205.825 485.625 205.348 485.693C204.869 485.766 204.47 485.912 204.15 486.129C203.824 486.345 203.541 486.645 203.301 487.03C203.054 487.42 202.858 487.837 202.713 488.279C202.569 488.722 202.439 489.244 202.323 489.845L200.729 498.151L199.224 497.862L200.849 489.393C201.233 487.392 201.947 486.004 202.99 485.23C204.033 484.462 205.458 484.252 207.268 484.599C209.033 484.938 210.262 485.648 210.956 486.729C211.642 487.815 211.794 489.356 211.411 491.351Z" fill="black"/>
<path d="M198.012 496.472L197.751 497.544L187.306 494.994L187.567 493.922L192.064 495.02L195.196 482.194L196.647 482.548L193.516 495.374L198.012 496.472Z" fill="black"/>
<path d="M188.133 486.192L185.655 494.523L184.158 494.077L186.568 485.971C186.743 485.385 186.868 484.861 186.943 484.402C187.019 483.942 187.037 483.482 186.997 483.022C186.955 482.568 186.839 482.17 186.649 481.828C186.459 481.486 186.168 481.172 185.778 480.886C185.379 480.605 184.881 480.375 184.281 480.197C183.682 480.019 183.142 479.94 182.661 479.959C182.178 479.986 181.766 480.091 181.426 480.275C181.08 480.457 180.768 480.728 180.492 481.087C180.207 481.451 179.971 481.846 179.783 482.272C179.595 482.698 179.413 483.205 179.239 483.792L176.828 491.898L175.359 491.461L177.817 483.195C178.398 481.242 179.246 479.932 180.361 479.265C181.474 478.605 182.914 478.537 184.68 479.062C186.402 479.574 187.555 480.403 188.138 481.548C188.714 482.697 188.712 484.245 188.133 486.192Z" fill="black"/>
<path d="M164.114 483.465C164.441 482.545 164.947 481.882 165.631 481.476C166.306 481.073 167.184 480.916 168.266 481.004L167.415 473.497L168.85 474.008L169.699 481.287L173.904 482.784L176.109 476.593L177.443 477.068L172.646 490.536L167.779 488.803C166.031 488.18 164.875 487.44 164.31 486.582C163.742 485.731 163.677 484.691 164.114 483.465ZM171.666 489.067L173.533 483.824L170.304 482.674C169.863 482.516 169.471 482.394 169.129 482.307C168.781 482.217 168.409 482.164 168.014 482.148C167.613 482.13 167.266 482.172 166.973 482.275C166.675 482.376 166.394 482.563 166.131 482.836C165.866 483.114 165.653 483.481 165.491 483.935C165.325 484.401 165.255 484.821 165.28 485.197C165.303 485.578 165.39 485.896 165.542 486.15C165.685 486.409 165.913 486.649 166.228 486.872C166.534 487.098 166.833 487.277 167.125 487.409C167.417 487.54 167.781 487.684 168.216 487.839L171.666 489.067Z" fill="black"/>
<path d="M156.716 469.032L165.55 472.713L160.05 485.91L151.316 482.27L151.737 481.26L159.155 484.352L161.086 479.719L154.632 477.029L155.064 475.992L161.518 478.682L163.81 473.183L156.292 470.05L156.716 469.032Z" fill="black"/>
<path d="M130.593 470.648L133.139 466.254L131.213 465.138C130.875 464.942 130.593 464.779 130.368 464.648C130.134 464.52 129.881 464.385 129.61 464.242C129.329 464.103 129.098 463.995 128.916 463.92C128.729 463.841 128.525 463.764 128.305 463.689C128.085 463.615 127.899 463.571 127.748 463.559C127.592 463.543 127.429 463.539 127.259 463.546C127.086 463.559 126.932 463.597 126.797 463.662C126.662 463.727 126.525 463.813 126.387 463.921C126.244 464.026 126.112 464.157 125.991 464.312C125.862 464.471 125.737 464.654 125.616 464.863C125.482 465.094 125.384 465.315 125.321 465.527C125.25 465.741 125.211 465.937 125.206 466.115C125.192 466.295 125.216 466.474 125.278 466.653C125.331 466.834 125.398 466.998 125.48 467.143C125.556 467.284 125.672 467.434 125.828 467.593C125.976 467.754 126.122 467.891 126.267 468.005C126.402 468.121 126.584 468.256 126.81 468.41C127.032 468.561 127.229 468.687 127.404 468.788C127.57 468.892 127.785 469.02 128.05 469.174L130.593 470.648ZM133.655 465.345L136.705 460.081L134.052 458.544C133.731 458.357 133.459 458.204 133.236 458.082C133.01 457.966 132.741 457.84 132.428 457.704C132.107 457.57 131.828 457.48 131.591 457.434C131.352 457.393 131.089 457.372 130.803 457.372C130.514 457.377 130.253 457.433 130.019 457.538C129.785 457.643 129.55 457.808 129.314 458.033C129.07 458.26 128.848 458.545 128.649 458.889C128.486 459.17 128.364 459.438 128.284 459.693C128.195 459.95 128.137 460.187 128.109 460.404C128.081 460.621 128.097 460.834 128.157 461.042C128.214 461.255 128.281 461.445 128.359 461.61C128.436 461.775 128.558 461.947 128.725 462.127C128.889 462.312 129.048 462.472 129.203 462.607C129.352 462.739 129.549 462.887 129.792 463.05C130.036 463.214 130.255 463.356 130.449 463.476C130.637 463.593 130.875 463.734 131.162 463.901L133.655 465.345ZM138.463 459.892L131.294 472.262L127.585 470.112C127.191 469.884 126.84 469.665 126.532 469.457C126.215 469.25 125.898 469.018 125.581 468.759C125.265 468.5 125.002 468.246 124.793 467.997C124.578 467.745 124.392 467.468 124.236 467.167C124.079 466.865 123.984 466.562 123.95 466.256C123.911 465.948 123.933 465.611 124.017 465.245C124.098 464.886 124.247 464.517 124.466 464.14C125.308 462.686 126.569 462.27 128.249 462.89C127.466 462.202 127.013 461.451 126.892 460.636C126.77 459.82 126.95 458.995 127.433 458.162C127.835 457.469 128.273 456.959 128.749 456.633C129.224 456.306 129.777 456.149 130.41 456.162C131.039 456.18 131.719 456.33 132.452 456.612C133.181 456.899 134.049 457.334 135.058 457.919L138.463 459.892Z" fill="black"/>
<path d="M119.521 448.208L127.543 453.427L119.746 465.411L111.814 460.25L112.411 459.333L119.148 463.717L121.885 459.509L116.024 455.696L116.637 454.755L122.497 458.568L125.746 453.575L118.92 449.133L119.521 448.208Z" fill="black"/>
<path d="M111.515 442.447L118.608 447.52L110.291 459.149L109.132 458.32L116.807 447.588L110.873 443.345L111.515 442.447Z" fill="black"/>
<path d="M109.51 440.852L110.645 441.715L101.991 453.096L100.856 452.233L109.51 440.852Z" fill="black"/>
<path d="M99.561 432.879L106.985 438.919L97.9618 450.009L90.6215 444.037L91.3117 443.188L97.5461 448.26L100.714 444.367L95.2901 439.954L95.9989 439.083L101.423 443.496L105.182 438.875L98.8645 433.735L99.561 432.879Z" fill="black"/>
<path d="M96.0151 429.677L90.1222 443.592L88.9946 442.582L92.5179 434.358C92.6035 434.155 92.8369 433.622 93.218 432.757C93.5899 431.893 93.8762 431.231 94.0769 430.773C93.6478 431.018 93.0396 431.36 92.2524 431.8C91.4652 432.24 90.9329 432.537 90.6555 432.691L82.9055 437.129L81.8288 436.165L95.0112 428.778L96.0151 429.677Z" fill="black"/>
<path d="M83.9842 418.257L90.8284 424.947L80.8353 435.171L74.0679 428.557L74.8324 427.774L80.5801 433.392L84.0887 429.802L79.0882 424.915L79.8732 424.112L84.8736 428.999L89.0374 424.739L83.2129 419.046L83.9842 418.257Z" fill="black"/>
<path d="M78.7577 412.607L79.7215 413.658L69.1863 423.323L68.2225 422.272L78.7577 412.607Z" fill="black"/>
<path d="M76.6627 410.384L65.7497 419.62L64.7214 418.405L68.29 403.832L65.3605 406.311L59.0244 411.674L58.2106 410.712L69.1235 401.476L69.9563 402.46L66.2077 417.531C66.2077 417.531 67.2388 416.658 69.3012 414.913L75.8236 409.393L76.6627 410.384Z" fill="black"/>
<path d="M58.032 395.69L53.7537 404.993L52.8452 403.746L56.5566 395.871L47.9288 396.997L47.026 395.758L57.2003 394.532L61.5258 391.381L62.3653 392.533L58.032 395.69Z" fill="black"/>
<path d="M42.9751 390.046C42.4553 389.251 42.1142 388.478 41.9516 387.729C41.7854 386.974 41.798 386.22 41.9893 385.465C42.1807 384.71 42.6013 383.961 43.2513 383.218C43.8922 382.473 44.755 381.746 45.8398 381.038C48.0202 379.614 49.8851 378.999 51.4344 379.192C52.9837 379.386 54.2976 380.308 55.3762 381.96C55.8994 382.761 56.2424 383.537 56.405 384.286C56.5676 385.035 56.546 385.788 56.3402 386.544C56.1344 387.3 55.701 388.054 55.0402 388.804C54.3758 389.549 53.4849 390.286 52.3674 391.016C51.2772 391.728 50.2639 392.23 49.3276 392.523C48.3822 392.814 47.5273 392.898 46.7628 392.775C45.9929 392.656 45.3004 392.369 44.6854 391.915C44.0613 391.46 43.4912 390.837 42.9751 390.046ZM43.9371 389.43C44.3073 389.997 44.712 390.444 45.1513 390.771C45.587 391.093 46.0419 391.302 46.5159 391.397C46.9809 391.489 47.4884 391.481 48.0384 391.37C48.5884 391.26 49.1473 391.074 49.7149 390.812C50.2736 390.548 50.8827 390.201 51.5423 389.77C53.3793 388.571 54.5379 387.41 55.0181 386.288C55.4928 385.169 55.2888 383.934 54.406 382.582C53.5196 381.225 52.4716 380.537 51.262 380.518C50.0523 380.499 48.5235 381.093 46.6756 382.3C46.016 382.731 45.4522 383.153 44.9842 383.568C44.5126 383.977 44.1175 384.413 43.7989 384.878C43.4767 385.337 43.2664 385.801 43.1681 386.27C43.0643 386.742 43.0739 387.245 43.1971 387.779C43.3166 388.307 43.5633 388.858 43.9371 389.43Z" fill="black"/>
<path d="M46.2014 378.427L38.6741 382.772L37.893 381.419L45.2172 377.191C45.7473 376.885 46.1978 376.591 46.5688 376.309C46.9398 376.028 47.2691 375.706 47.5566 375.345C47.8385 374.986 48.0278 374.618 48.1247 374.239C48.2216 373.859 48.2265 373.432 48.1397 372.956C48.0439 372.477 47.8398 371.967 47.5273 371.426C47.2148 370.885 46.877 370.456 46.5139 370.139C46.1451 369.826 45.7739 369.619 45.4004 369.519C45.0236 369.413 44.6113 369.396 44.1634 369.466C43.7067 369.535 43.2635 369.659 42.8339 369.839C42.4043 370.02 41.9244 370.263 41.3944 370.569L34.0702 374.797L33.3036 373.469L40.7717 369.158C42.5365 368.139 44.053 367.771 45.3213 368.054C46.5839 368.34 47.6758 369.281 48.5969 370.876C49.4952 372.433 49.7626 373.827 49.3989 375.059C49.0264 376.289 47.9606 377.412 46.2014 378.427Z" fill="black"/>
<path d="M30.5482 359.732C31.4196 359.291 32.243 359.159 33.0183 359.336C33.7848 359.51 34.5296 360.002 35.2525 360.811L39.8101 354.784L40.4978 356.144L36.0966 362.004L38.1111 365.986L43.9757 363.019L44.6149 364.283L31.8573 370.736L29.5255 366.126C28.688 364.471 28.36 363.137 28.5416 362.126C28.7175 361.118 29.3863 360.32 30.5482 359.732ZM32.1593 368.997L37.1264 366.484L35.5792 363.425C35.3676 363.007 35.1679 362.648 34.9802 362.349C34.7895 362.045 34.5567 361.75 34.2817 361.466C34.0037 361.176 33.7232 360.968 33.4402 360.841C33.1542 360.709 32.8221 360.65 32.4436 360.667C32.0594 360.686 31.6523 360.804 31.2224 361.022C30.7809 361.245 30.44 361.502 30.1997 361.791C29.9536 362.083 29.7977 362.374 29.7321 362.662C29.6577 362.948 29.6578 363.28 29.7323 363.658C29.7982 364.033 29.8914 364.369 30.0122 364.665C30.133 364.962 30.2977 365.316 30.5063 365.729L32.1593 368.997Z" fill="black"/>
<path d="M21.1452 344.906L24.2597 352.316L28.9591 350.34L26.2533 343.903L27.2796 343.472L29.9854 349.909L36.4312 347.199L36.9837 348.514L23.8039 354.054L20.137 345.33L21.1452 344.906Z" fill="black"/>
<path d="M27.7818 340.992L19.6158 343.967L19.0808 342.499L27.0267 339.604C27.6016 339.394 28.0963 339.183 28.5105 338.969C28.9247 338.756 29.3047 338.496 29.6505 338.19C29.9901 337.886 30.2405 337.556 30.4015 337.199C30.5626 336.843 30.6416 336.422 30.6385 335.938C30.627 335.451 30.5143 334.913 30.3003 334.326C30.0863 333.739 29.8279 333.258 29.525 332.883C29.2161 332.511 28.8863 332.243 28.5358 332.079C28.183 331.91 27.78 331.821 27.3266 331.813C26.865 331.801 26.407 331.847 25.9526 331.95C25.4982 332.053 24.9835 332.21 24.4086 332.419L16.4627 335.315L15.9377 333.874L24.0396 330.922C25.9542 330.224 27.5115 330.125 28.7116 330.623C29.9056 331.123 30.8181 332.239 31.4489 333.97C32.0641 335.658 32.086 337.077 31.5144 338.228C30.9345 339.375 29.6903 340.296 27.7818 340.992Z" fill="black"/>
<path d="M16.5702 332.286L15.5162 332.613L12.3312 322.344L13.3852 322.017L14.7564 326.438L27.3669 322.527L27.8095 323.954L15.199 327.865L16.5702 332.286Z" fill="black"/>
<path d="M20.1516 317.996L11.726 320.129L11.3425 318.614L19.5409 316.539C20.1341 316.389 20.6476 316.228 21.0813 316.058C21.515 315.888 21.9194 315.668 22.2944 315.398C22.6631 315.13 22.9456 314.827 23.142 314.489C23.3383 314.15 23.4595 313.74 23.5054 313.258C23.5434 312.772 23.4857 312.226 23.3323 311.62C23.1789 311.014 22.9706 310.509 22.7072 310.106C22.4376 309.704 22.1367 309.404 21.8045 309.206C21.4707 309.002 21.0787 308.873 20.6286 308.819C20.1705 308.76 19.7102 308.759 19.2477 308.816C18.7852 308.873 18.2574 308.976 17.6641 309.126L9.46575 311.202L9.08944 309.716L17.4487 307.599C19.4241 307.099 20.9836 307.157 22.1271 307.775C23.2642 308.393 24.0589 309.596 24.5111 311.382C24.9522 313.124 24.8301 314.538 24.1449 315.625C23.4518 316.707 22.1207 317.497 20.1516 317.996Z" fill="black"/>
<path d="M10.2005 296.047C11.1586 295.858 11.987 295.953 12.6858 296.333C13.3769 296.707 13.9613 297.382 14.4389 298.356L20.4544 293.784L20.7494 295.278L14.9297 299.732L15.7942 304.11L22.2419 302.837L22.5162 304.227L8.49013 306.996L7.48946 301.928C7.13005 300.107 7.17429 298.735 7.62216 297.81C8.06366 296.887 8.92311 296.299 10.2005 296.047ZM9.25056 305.402L14.7115 304.324L14.0476 300.961C13.9568 300.502 13.8614 300.102 13.7613 299.764C13.66 299.419 13.5153 299.072 13.3272 298.725C13.1378 298.37 12.924 298.094 12.6857 297.896C12.4462 297.691 12.1421 297.545 11.7733 297.459C11.3981 297.373 10.9742 297.378 10.5015 297.471C10.0161 297.567 9.61866 297.721 9.30915 297.935C8.99325 298.15 8.76476 298.388 8.62367 298.648C8.47493 298.903 8.38541 299.223 8.3551 299.607C8.31714 299.986 8.31628 300.334 8.35252 300.652C8.38877 300.97 8.45166 301.356 8.5412 301.81L9.25056 305.402Z" fill="black"/>
<path d="M18.7599 282.294L20.1471 291.763L6.00122 293.835L4.62959 284.472L5.71179 284.314L6.87675 292.266L11.8433 291.539L10.8298 284.62L11.941 284.457L12.9545 291.376L18.8486 290.512L17.668 282.454L18.7599 282.294Z" fill="black"/>
<path d="M3.76989 254.725L8.84787 254.764L8.86495 252.538C8.86795 252.147 8.87044 251.821 8.87244 251.561C8.86798 251.294 8.86041 251.008 8.84974 250.701C8.83261 250.389 8.81177 250.135 8.78723 249.939C8.76273 249.737 8.72858 249.522 8.68475 249.294C8.64093 249.066 8.58699 248.883 8.52294 248.746C8.45894 248.602 8.38191 248.458 8.29187 248.314C8.19531 248.17 8.08551 248.056 7.96247 247.97C7.83942 247.884 7.69677 247.808 7.53452 247.742C7.37231 247.669 7.19365 247.619 6.99855 247.591C6.79698 247.557 6.57576 247.539 6.33488 247.538C6.06796 247.536 5.82688 247.56 5.61164 247.61C5.38995 247.654 5.20065 247.718 5.04376 247.801C4.8804 247.878 4.73633 247.988 4.61153 248.13C4.48028 248.266 4.37179 248.405 4.28606 248.547C4.20037 248.683 4.12741 248.859 4.06717 249.073C4.00047 249.281 3.9534 249.476 3.92596 249.658C3.89206 249.833 3.8643 250.058 3.84267 250.331C3.82109 250.598 3.80953 250.832 3.80798 251.034C3.79997 251.229 3.79479 251.48 3.79244 251.786L3.76989 254.725ZM9.89283 254.762L15.9766 254.809L16.0002 251.743C16.003 251.372 16.0022 251.059 15.9976 250.805C15.9865 250.551 15.9628 250.255 15.9263 249.916C15.8834 249.571 15.8237 249.284 15.7473 249.055C15.6645 248.827 15.5524 248.588 15.411 248.34C15.2632 248.091 15.0857 247.891 14.8785 247.74C14.6713 247.589 14.4118 247.466 14.1 247.373C13.7818 247.272 13.4241 247.221 13.027 247.218C12.7015 247.215 12.4083 247.242 12.1474 247.299C11.8801 247.349 11.6452 247.416 11.4427 247.499C11.2403 247.582 11.0636 247.701 10.9126 247.856C10.7552 248.011 10.6238 248.163 10.5185 248.312C10.4132 248.461 10.3238 248.652 10.2504 248.886C10.1705 249.12 10.1102 249.337 10.0696 249.539C10.0291 249.734 9.9979 249.978 9.97613 250.271C9.95435 250.563 9.93933 250.824 9.93107 251.052C9.92286 251.273 9.91748 251.55 9.91494 251.882L9.89283 254.762ZM17.0106 256.243L2.71413 256.133L2.74703 251.846C2.75052 251.39 2.76672 250.977 2.79561 250.606C2.81803 250.229 2.86335 249.838 2.93155 249.435C2.99975 249.032 3.09036 248.678 3.20338 248.373C3.31645 248.061 3.46523 247.763 3.64971 247.478C3.8342 247.193 4.05083 246.96 4.29962 246.78C4.54846 246.593 4.85233 246.445 5.21124 246.338C5.56364 246.23 5.95794 246.177 6.39412 246.181C8.07376 246.193 9.0598 247.083 9.35224 248.85C9.5619 247.829 9.99096 247.064 10.6394 246.555C11.2879 246.046 12.0939 245.795 13.0574 245.802C13.8581 245.808 14.518 245.937 15.0369 246.188C15.5558 246.44 15.9661 246.843 16.2679 247.399C16.5631 247.955 16.7696 248.62 16.8873 249.396C16.9986 250.172 17.0497 251.142 17.0408 252.307L17.0106 256.243Z" fill="black"/>
<path d="M17.6828 234.631L17.1693 244.188L2.893 243.421L3.4008 233.971L4.49297 234.03L4.06168 242.056L9.07398 242.325L9.4492 235.343L10.5706 235.403L10.1954 242.385L16.1439 242.705L16.5809 234.572L17.6828 234.631Z" fill="black"/>
<path d="M18.7433 224.001L17.8759 232.679L3.64989 231.257L3.79171 229.838L16.9196 231.15L17.6452 223.891L18.7433 224.001Z" fill="black"/>
<path d="M19.1307 221.408L18.9456 222.822L4.76972 220.966L4.95484 219.552L19.1307 221.408Z" fill="black"/>
<path d="M20.9791 209.412L19.4478 218.859L5.33511 216.571L6.8493 207.23L7.92896 207.405L6.64291 215.339L11.5978 216.142L12.7166 209.24L13.8252 209.42L12.7063 216.322L18.5866 217.275L19.8899 209.235L20.9791 209.412Z" fill="black"/>
<path d="M21.9548 204.747L6.95886 206.607L7.26896 205.125L16.1519 204.061C16.3705 204.034 16.9495 203.969 17.8889 203.866C18.8233 203.756 19.539 203.673 20.0362 203.617C19.6094 203.368 19.0086 203.013 18.2339 202.552C17.4591 202.09 16.9359 201.778 16.6641 201.614L8.94347 197.125L9.23956 195.71L22.2309 203.428L21.9548 204.747Z" fill="black"/>
<path d="M25.8507 188.519L23.4667 197.787L9.62052 194.226L11.9778 185.061L13.037 185.334L11.035 193.117L15.8963 194.368L17.638 187.596L18.7257 187.876L16.9839 194.647L22.7532 196.131L24.782 188.244L25.8507 188.519Z" fill="black"/>
<path d="M28.0016 181.525L27.5741 182.885L13.9349 178.598L14.3624 177.238L28.0016 181.525Z" fill="black"/>
<path d="M28.8706 178.559L15.4197 173.714L15.9591 172.217L30.3679 168.034L26.7571 166.733L18.9474 163.92L19.3743 162.735L32.8253 167.58L32.3885 168.793L17.4585 173.068C17.4585 173.068 18.7295 173.526 21.2714 174.442L29.3108 177.337L28.8706 178.559Z" fill="black"/>
<path d="M32.3218 154.94L22.1239 155.86L22.7534 154.451L31.4308 153.751L26.1596 146.828L26.7851 145.428L32.9124 153.643L37.7984 155.826L37.2168 157.128L32.3218 154.94Z" fill="black"/>
<path d="M29.7443 138.952C30.1765 138.106 30.6771 137.426 31.2463 136.912C31.8184 136.393 32.4795 136.029 33.2295 135.82C33.9795 135.61 34.8385 135.603 35.8065 135.797C36.7716 135.983 37.8311 136.37 38.985 136.959C41.3045 138.144 42.7653 139.456 43.3677 140.896C43.97 142.337 43.8227 143.935 42.9258 145.692C42.4906 146.545 41.9885 147.228 41.4193 147.741C40.8502 148.255 40.1863 148.61 39.4276 148.808C38.6689 149.005 37.7998 149.004 36.8202 148.803C35.8437 148.597 34.761 148.191 33.5723 147.584C32.4126 146.992 31.473 146.362 30.7536 145.696C30.0313 145.02 29.5335 144.32 29.26 143.595C28.9807 142.868 28.885 142.125 28.9729 141.366C29.0579 140.598 29.3151 139.793 29.7443 138.952ZM30.7575 139.481C30.4496 140.084 30.2629 140.657 30.1972 141.201C30.1344 141.739 30.1798 142.238 30.3332 142.696C30.4837 143.146 30.7436 143.582 31.1128 144.004C31.4819 144.426 31.9212 144.819 32.4306 145.181C32.9372 145.535 33.5413 145.891 34.243 146.249C36.1971 147.246 37.7803 147.674 38.9928 147.533C40.1994 147.389 41.1698 146.598 41.9039 145.16C42.6409 143.716 42.7169 142.465 42.1318 141.406C41.5466 140.347 40.2712 139.316 38.3055 138.312C37.6039 137.954 36.9569 137.675 36.3646 137.475C35.7753 137.269 35.1998 137.143 34.6383 137.098C34.0796 137.047 33.5726 137.095 33.1172 137.242C32.6559 137.387 32.2243 137.645 31.8223 138.018C31.4232 138.384 31.0683 138.872 30.7575 139.481Z" fill="black"/>
<path d="M41.3599 136.012L33.8486 131.639L34.6347 130.289L41.9434 134.544C42.4723 134.852 42.9513 135.097 43.3802 135.279C43.8092 135.461 44.2519 135.586 44.7084 135.656C45.1593 135.723 45.5733 135.704 45.9505 135.6C46.3276 135.495 46.7012 135.287 47.0711 134.975C47.4387 134.654 47.7797 134.224 48.0942 133.684C48.4086 133.144 48.613 132.637 48.7072 132.165C48.7959 131.689 48.7908 131.264 48.6921 130.89C48.5966 130.511 48.407 130.144 48.1231 129.791C47.837 129.428 47.5089 129.106 47.1389 128.822C46.7689 128.539 46.3194 128.244 45.7906 127.936L38.4819 123.681L39.2532 122.356L46.7054 126.694C48.4665 127.719 49.5395 128.853 49.9243 130.094C50.3036 131.331 50.0297 132.746 49.1028 134.339C48.1987 135.892 47.1217 136.816 45.8716 137.113C44.6192 137.401 43.1153 137.034 41.3599 136.012Z" fill="black"/>
<path d="M49.9591 112.819C50.7748 113.356 51.2987 114.004 51.5306 114.765C51.7607 115.517 51.7046 116.407 51.3621 117.437L58.8568 118.395L58.0192 119.667L50.7469 118.762L48.2931 122.49L53.7828 126.103L53.0042 127.286L41.0623 119.425L43.9027 115.11C44.9229 113.561 45.9168 112.613 46.8844 112.268C47.8466 111.919 48.8715 112.103 49.9591 112.819ZM42.7218 118.823L47.3713 121.883L49.256 119.02C49.5137 118.628 49.7256 118.277 49.8917 117.965C50.0614 117.648 50.2011 117.3 50.3109 116.92C50.4242 116.535 50.4655 116.188 50.4348 115.879C50.4077 115.565 50.2929 115.248 50.0906 114.928C49.8829 114.604 49.5778 114.31 49.1754 114.045C48.7621 113.773 48.3702 113.604 47.9996 113.54C47.6237 113.472 47.2942 113.481 47.0112 113.567C46.7263 113.645 46.4384 113.81 46.1473 114.063C45.8544 114.306 45.6094 114.554 45.4123 114.806C45.2151 115.058 44.9895 115.378 44.7353 115.764L42.7218 118.823Z" fill="black"/>
<path d="M57.9849 97.4414L53.1117 103.833L57.1654 106.923L61.3991 101.371L62.2844 102.046L58.0507 107.599L63.6109 111.838L62.7464 112.972L51.3775 104.303L57.1152 96.7782L57.9849 97.4414Z" fill="black"/>
<path d="M65.2099 100.566L58.5756 94.9515L59.5851 93.7588L66.0404 99.2224C66.5075 99.6177 66.9364 99.9423 67.3271 100.196C67.7178 100.45 68.1318 100.651 68.5692 100.8C69.0015 100.944 69.4125 100.997 69.8021 100.96C70.1917 100.923 70.5958 100.783 71.0144 100.541C71.4323 100.289 71.8431 99.9244 72.2469 99.4473C72.6507 98.9702 72.9401 98.5073 73.1153 98.0585C73.2855 97.6055 73.3545 97.1863 73.3225 96.8009C73.2946 96.4106 73.1717 96.0166 72.9539 95.619C72.7352 95.2122 72.4684 94.8371 72.1534 94.4938C71.8385 94.1504 71.4474 93.7811 70.9803 93.3857L64.5249 87.9222L65.5154 86.7519L72.0975 92.3227C73.6529 93.6391 74.512 94.9419 74.6747 96.2311C74.8325 97.516 74.3162 98.8617 73.1259 100.268C71.9651 101.64 70.7433 102.363 69.4607 102.437C68.1773 102.502 66.7604 101.879 65.2099 100.566Z" fill="black"/>
<path d="M66.7619 86.9787L65.9542 86.2268L73.28 78.3569L74.0877 79.1088L70.9338 82.4969L80.5979 91.4929L79.5799 92.5865L69.9158 83.5906L66.7619 86.9787Z" fill="black"/>
<path d="M81.0117 82.8783L74.9593 76.6406L76.0807 75.5526L81.9699 81.622C82.396 82.0612 82.7911 82.4263 83.155 82.7173C83.519 83.0082 83.9113 83.2489 84.332 83.4394C84.7482 83.6253 85.1519 83.7188 85.5432 83.7201C85.9346 83.7214 86.3504 83.6218 86.7909 83.4212C87.2314 83.2115 87.676 82.889 88.1245 82.4538C88.5731 82.0185 88.9065 81.5862 89.1247 81.1567C89.3385 80.7225 89.4482 80.3121 89.4541 79.9254C89.4646 79.5343 89.3809 79.1301 89.203 78.7131C89.0253 78.2868 88.7965 77.8874 88.5166 77.5149C88.2368 77.1423 87.8838 76.7365 87.4576 76.2973L81.5684 70.2278L82.6688 69.1601L88.6736 75.3487C90.0926 76.8112 90.82 78.1919 90.8557 79.4908C90.8868 80.785 90.2412 82.0736 88.9189 83.3566C87.6293 84.6079 86.3427 85.2078 85.0589 85.1562C83.7753 85.0954 82.4262 84.3361 81.0117 82.8783Z" fill="black"/>
<path d="M94.3329 63.9195C94.9764 64.6541 95.3088 65.4188 95.3301 66.2138C95.3519 66.9995 95.0609 67.843 94.4569 68.7443L101.427 71.6616L100.281 72.6655L93.5114 69.8583L90.1544 72.7991L94.4851 77.7427L93.42 78.6757L83.9992 67.9217L87.8851 64.5176C89.2807 63.295 90.4909 62.646 91.5154 62.5707C92.5357 62.4905 93.4749 62.9401 94.3329 63.9195ZM85.7593 67.782L89.4272 71.969L92.0056 69.7103C92.3582 69.4014 92.656 69.1189 92.8989 68.8628C93.1468 68.6023 93.3742 68.3036 93.581 67.9667C93.7927 67.6254 93.9248 67.302 93.9773 66.9963C94.0347 66.6864 94.0085 66.3502 93.8986 65.9877C93.7845 65.6203 93.5687 65.2554 93.2512 64.893C92.9252 64.5208 92.5922 64.2543 92.2522 64.0934C91.9079 63.9276 91.5878 63.8488 91.292 63.8569C90.9968 63.8559 90.6753 63.9385 90.3276 64.1046C89.9804 64.2616 89.6783 64.4354 89.4211 64.626C89.164 64.8167 88.8616 65.0643 88.5139 65.3689L85.7593 67.782Z" fill="black"/>
<path d="M111.02 64.0213L103.509 69.9522L94.6493 58.7316L102.076 52.8673L102.754 53.7257L96.4461 58.7065L99.5568 62.6459L105.044 58.3127L105.74 59.1941L100.253 63.5273L103.945 68.2025L110.337 63.1552L111.02 64.0213Z" fill="black"/>
<path d="M122.269 40.337L124.864 44.7022L126.778 43.5645C127.114 43.3649 127.394 43.1985 127.617 43.0655C127.844 42.9235 128.085 42.7687 128.341 42.6012C128.6 42.4247 128.806 42.2754 128.961 42.1532C129.121 42.0277 129.288 41.8872 129.46 41.7316C129.633 41.576 129.761 41.4352 129.845 41.3094C129.935 41.1803 130.018 41.0399 130.095 40.8884C130.168 40.7313 130.21 40.5779 130.219 40.4283C130.229 40.2788 130.22 40.1174 130.193 39.9442C130.171 39.7677 130.122 39.5889 130.044 39.4077C129.969 39.2175 129.87 39.0189 129.747 38.8119C129.61 38.5824 129.465 38.3887 129.31 38.2306C129.158 38.0636 129.006 37.9346 128.853 37.8435C128.703 37.7435 128.534 37.6769 128.348 37.6438C128.164 37.6017 127.989 37.5809 127.823 37.5813C127.662 37.5784 127.474 37.6067 127.259 37.6661C127.047 37.7166 126.856 37.7772 126.686 37.848C126.518 37.9098 126.312 38.0022 126.067 38.1251C125.827 38.2447 125.621 38.3561 125.447 38.4592C125.276 38.5534 125.059 38.6787 124.796 38.835L122.269 40.337ZM125.406 45.5954L128.515 50.8252L131.151 49.2584C131.47 49.0688 131.737 48.9063 131.952 48.771C132.163 48.6301 132.405 48.4563 132.676 48.2497C132.949 48.0343 133.164 47.8347 133.32 47.6511C133.472 47.462 133.618 47.2426 133.758 46.9931C133.894 46.738 133.973 46.4826 133.995 46.227C134.018 45.9714 133.988 45.686 133.907 45.3708C133.828 45.0467 133.687 44.7139 133.484 44.3726C133.318 44.0927 133.143 43.8559 132.959 43.662C132.778 43.4591 132.6 43.2926 132.424 43.1623C132.248 43.0321 132.054 42.9425 131.844 42.8936C131.629 42.8392 131.431 42.8054 131.249 42.7924C131.068 42.7794 130.858 42.8019 130.619 42.8601C130.378 42.9127 130.161 42.9738 129.967 43.0433C129.779 43.1096 129.555 43.2091 129.293 43.342C129.031 43.4749 128.8 43.5968 128.601 43.7076C128.408 43.8151 128.168 43.9537 127.883 44.1234L125.406 45.5954ZM127.823 52.4519L120.518 40.1623L124.203 37.9717C124.595 37.7389 124.957 37.5388 125.289 37.3716C125.624 37.1955 125.981 37.0322 126.362 36.882C126.742 36.7317 127.092 36.6259 127.411 36.5647C127.737 36.5002 128.069 36.4731 128.408 36.4834C128.748 36.4937 129.059 36.5587 129.342 36.6782C129.631 36.7944 129.914 36.9781 130.192 37.2293C130.467 37.475 130.716 37.7853 130.939 38.1603C131.797 39.6041 131.546 40.9083 130.186 42.0729C131.167 41.7241 132.044 41.6953 132.815 41.9866C133.587 42.2778 134.219 42.8376 134.711 43.6658C135.12 44.3542 135.352 44.9854 135.405 45.5595C135.458 46.1337 135.326 46.6936 135.006 47.2394C134.683 47.7796 134.221 48.3008 133.618 48.803C133.012 49.2996 132.208 49.8456 131.206 50.441L127.823 52.4519Z" fill="black"/>
<path d="M146.495 41.9346L138.043 46.4232L131.337 33.7964L139.695 29.3581L140.208 30.3241L133.109 34.0937L135.464 38.5269L141.639 35.2474L142.166 36.2393L135.99 39.5187L138.784 44.7799L145.978 40.96L146.495 41.9346Z" fill="black"/>
<path d="M155.735 37.5249L147.858 41.2672L141.723 28.3536L143.011 27.7418L148.673 39.6586L155.262 36.5282L155.735 37.5249Z" fill="black"/>
<path d="M159.122 36.0809L157.814 36.649L152.117 23.5363L153.425 22.9682L159.122 36.0809Z" fill="black"/>
<path d="M169.496 31.8398L160.608 35.3882L155.307 22.1103L164.096 18.6018L164.501 19.6176L157.037 22.5975L158.898 27.2593L165.392 24.6668L165.808 25.7098L159.315 28.3023L161.523 33.8347L169.087 30.815L169.496 31.8398Z" fill="black"/>
<path d="M175.176 29.8409L165.905 17.9082L167.336 17.4165L172.796 24.5042C172.931 24.678 173.283 25.1422 173.852 25.8968C174.425 26.6431 174.863 27.2156 175.165 27.6143C175.16 27.1202 175.158 26.4223 175.158 25.5205C175.158 24.6187 175.159 24.0093 175.16 23.6922L175.067 14.7618L176.434 14.2923L176.45 29.4032L175.176 29.8409Z" fill="black"/>
<path d="M190.846 24.9652L181.663 27.6583L177.64 13.9391L186.72 11.2763L187.028 12.3258L179.316 14.5875L180.728 19.4042L187.438 17.4366L187.754 18.5142L181.044 20.4818L182.721 26.1981L190.536 23.9063L190.846 24.9652Z" fill="black"/>
<path d="M197.767 23.2797L196.38 23.6073L193.095 9.69284L194.483 9.36528L197.767 23.2797Z" fill="black"/>
<path d="M200.95 22.458L198.255 8.41742L199.818 8.11739L210.767 18.3764L210.043 14.6073L208.479 6.45529L209.716 6.21785L212.411 20.2585L211.145 20.5014L199.851 9.84138C199.851 9.84138 200.106 11.1681 200.615 13.8215L202.225 22.2132L200.95 22.458Z" fill="black"/>
<path d="M222.146 13.4744L216.142 5.17962L217.675 5.00051L222.713 12.1004L225.968 4.03129L227.491 3.85332L223.563 13.3186L224.184 18.6339L222.768 18.7994L222.146 13.4744Z" fill="black"/>
<path d="M235.696 2.98573C236.645 2.92673 237.485 3.01145 238.217 3.23991C238.955 3.46796 239.605 3.85152 240.167 4.3906C240.729 4.92968 241.173 5.66528 241.498 6.5974C241.83 7.52261 242.036 8.63176 242.116 9.92483C242.278 12.524 241.892 14.4494 240.959 15.7012C240.026 16.9529 238.575 17.64 236.606 17.7625C235.65 17.8219 234.807 17.7374 234.075 17.5089C233.344 17.2804 232.7 16.89 232.143 16.3375C231.587 15.785 231.146 15.0362 230.82 14.0911C230.5 13.1456 230.299 12.0068 230.216 10.6747C230.135 9.37517 230.199 8.246 230.406 7.28724C230.62 6.32158 230.969 5.53668 231.454 4.93254C231.937 4.3219 232.528 3.86115 233.227 3.55028C233.931 3.23251 234.754 3.04433 235.696 2.98573ZM235.758 4.12671C235.082 4.16874 234.493 4.29994 233.991 4.5203C233.496 4.74026 233.091 5.03294 232.774 5.39834C232.464 5.75684 232.221 6.20247 232.045 6.73523C231.87 7.26799 231.755 7.84585 231.703 8.46881C231.656 9.08486 231.658 9.78601 231.707 10.5722C231.843 12.762 232.28 14.3427 233.019 15.3144C233.757 16.2795 234.932 16.712 236.544 16.6117C238.162 16.5111 239.278 15.9395 239.891 14.8968C240.505 13.8541 240.743 12.2313 240.606 10.0285C240.557 9.2423 240.468 8.54336 240.339 7.93172C240.216 7.31968 240.031 6.76041 239.784 6.25391C239.544 5.74702 239.244 5.33513 238.885 5.01826C238.526 4.69489 238.084 4.45494 237.559 4.29843C237.04 4.14152 236.44 4.08428 235.758 4.12671Z" fill="black"/>
<path d="M243.776 11.4933L243.708 2.80211L245.271 2.78997L245.337 11.2467C245.341 11.8587 245.375 12.3956 245.437 12.8573C245.499 13.3191 245.617 13.7642 245.789 14.1925C245.962 14.6144 246.189 14.9609 246.471 15.2322C246.753 15.5035 247.123 15.7187 247.58 15.8779C248.043 16.0306 248.587 16.1045 249.212 16.0996C249.837 16.0947 250.377 16.0124 250.832 15.8526C251.286 15.6863 251.649 15.4654 251.92 15.1899C252.198 14.9143 252.417 14.5642 252.576 14.1398C252.742 13.7088 252.852 13.262 252.907 12.7993C252.962 12.3366 252.988 11.7993 252.983 11.1873L252.917 2.73057L254.45 2.71866L254.517 11.3414C254.533 13.3791 254.105 14.8799 253.234 15.8437C252.362 16.8011 251.005 17.2869 249.163 17.3012C247.366 17.3152 246.022 16.8601 245.129 15.936C244.243 15.0054 243.792 13.5244 243.776 11.4933Z" fill="black"/>
<path d="M269.069 7.1182C269.02 8.09352 268.726 8.87397 268.188 9.45954C267.657 10.0389 266.861 10.442 265.8 10.6687L268.773 17.6147L267.252 17.5378L264.345 10.8104L259.888 10.5852L259.557 17.1491L258.142 17.0776L258.864 2.79897L264.023 3.05962C265.876 3.15324 267.197 3.52959 267.985 4.18868C268.773 4.84127 269.135 5.81777 269.069 7.1182ZM260.225 3.92376L259.944 9.48308L263.367 9.65602C263.835 9.67967 264.246 9.68411 264.599 9.66934C264.958 9.65489 265.329 9.59868 265.712 9.50069C266.102 9.40303 266.422 9.26275 266.672 9.07984C266.929 8.89726 267.144 8.6376 267.318 8.30087C267.491 7.95764 267.59 7.54545 267.615 7.06429C267.64 6.57013 267.586 6.14696 267.454 5.7948C267.322 5.43613 267.147 5.15676 266.929 4.9567C266.718 4.75047 266.43 4.58598 266.064 4.46322C265.706 4.33429 265.368 4.24877 265.051 4.20667C264.733 4.16456 264.344 4.13185 263.882 4.10853L260.225 3.92376Z" fill="black"/>
<path d="M286.282 6.22602L278.303 5.26221L277.692 10.3231L284.624 11.1604L284.49 12.2657L277.558 11.4283L276.72 18.3701L275.304 18.1991L277.019 4.00538L286.414 5.14016L286.282 6.22602Z" fill="black"/>
<path d="M286.654 13.9361L288.128 5.37058L289.668 5.63551L288.234 13.9701C288.13 14.5732 288.068 15.1075 288.047 15.573C288.027 16.0385 288.063 16.4973 288.157 16.9495C288.252 17.3952 288.415 17.7766 288.644 18.0935C288.874 18.4104 289.199 18.6878 289.621 18.9254C290.05 19.1578 290.572 19.327 291.188 19.4329C291.804 19.5389 292.35 19.5535 292.826 19.4768C293.302 19.3937 293.699 19.2406 294.014 19.0174C294.337 18.7954 294.614 18.4897 294.846 18.1002C295.086 17.7055 295.274 17.2853 295.41 16.8397C295.546 16.3941 295.666 15.8697 295.77 15.2666L297.203 6.932L298.714 7.19196L297.252 15.6901C296.907 17.6984 296.22 19.0996 295.191 19.8938C294.164 20.6815 292.743 20.9192 290.927 20.6068C289.156 20.3021 287.913 19.616 287.198 18.5483C286.491 17.4754 286.31 15.938 286.654 13.9361Z" fill="black"/>
<path d="M299.844 8.5075L300.085 7.43066L310.577 9.78047L310.336 10.8573L305.819 9.84568L302.933 22.7296L301.475 22.4031L304.361 9.51914L299.844 8.5075Z" fill="black"/>
<path d="M309.667 18.4915L311.985 10.115L313.491 10.5318L311.235 18.6824C311.072 19.2722 310.957 19.7977 310.89 20.2588C310.823 20.7199 310.814 21.1801 310.863 21.6394C310.913 22.0924 311.037 22.488 311.234 22.8262C311.43 23.1644 311.727 23.4727 312.122 23.7512C312.526 24.0251 313.029 24.2454 313.632 24.4121C314.234 24.5788 314.776 24.6476 315.257 24.6186C315.739 24.5833 316.149 24.4704 316.485 24.2798C316.828 24.0909 317.134 23.8143 317.404 23.4499C317.682 23.0809 317.911 22.6815 318.09 22.2516C318.27 21.8218 318.442 21.3119 318.605 20.7221L320.861 12.5715L322.338 12.9805L320.038 21.2911C319.495 23.255 318.672 24.581 317.569 25.2689C316.469 25.9505 315.031 26.0456 313.255 25.5541C311.523 25.0748 310.355 24.2684 309.75 23.135C309.153 21.997 309.125 20.4492 309.667 18.4915Z" fill="black"/>
<path d="M334.881 21.1159C334.567 22.0407 334.072 22.7113 333.394 23.1277C332.725 23.5401 331.849 23.7105 330.767 23.6389L331.731 31.1329L330.288 30.6436L329.329 23.3781L325.102 21.9446L322.991 28.1686L321.65 27.7138L326.243 14.1745L331.135 15.8339C332.892 16.4299 334.06 17.1525 334.638 18.0017C335.218 18.8447 335.299 19.8828 334.881 21.1159ZM327.245 15.6282L325.457 20.8996L328.703 22.0006C329.147 22.1512 329.541 22.2675 329.884 22.3496C330.233 22.4338 330.606 22.481 331.001 22.4914C331.403 22.5038 331.749 22.4562 332.039 22.3486C332.337 22.2431 332.614 22.052 332.873 21.7755C333.134 21.4927 333.342 21.1232 333.497 20.667C333.656 20.1984 333.72 19.7767 333.689 19.4018C333.66 19.0208 333.568 18.7043 333.413 18.4523C333.266 18.1962 333.033 17.9593 332.715 17.7414C332.406 17.5195 332.104 17.345 331.81 17.2179C331.516 17.0907 331.151 16.9529 330.713 16.8045L327.245 15.6282Z" fill="black"/>
<path d="M341.998 35.1789L333.097 31.664L338.348 18.3663L347.149 21.8418L346.747 22.8591L339.272 19.9073L337.429 24.576L343.932 27.1441L343.52 28.1886L337.016 25.6206L334.828 31.1613L342.404 34.1526L341.998 35.1789Z" fill="black"/>
<path d="M368.582 33.2746L366.101 37.7055L368.043 38.7933C368.384 38.9841 368.668 39.1432 368.896 39.2704C369.132 39.3951 369.386 39.5265 369.66 39.6647C369.942 39.8003 370.175 39.9045 370.358 39.9771C370.547 40.053 370.751 40.1267 370.973 40.1983C371.194 40.2699 371.38 40.3106 371.531 40.3206C371.688 40.3338 371.851 40.3356 372.02 40.326C372.193 40.3108 372.346 40.2699 372.481 40.2033C372.615 40.1367 372.75 40.0483 372.887 39.9381C373.029 39.8311 373.159 39.6987 373.277 39.541C373.404 39.3808 373.526 39.1957 373.644 38.9855C373.774 38.7526 373.869 38.5297 373.929 38.3168C373.997 38.1014 374.033 37.9048 374.035 37.7271C374.046 37.5469 374.02 37.3679 373.955 37.19C373.9 37.0096 373.83 36.8475 373.746 36.7037C373.668 36.563 373.55 36.4147 373.391 36.2586C373.241 36.1 373.093 35.9648 372.947 35.853C372.809 35.7387 372.626 35.6063 372.397 35.4557C372.173 35.3082 371.974 35.1852 371.798 35.0866C371.63 34.9855 371.413 34.8602 371.146 34.7107L368.582 33.2746ZM365.599 38.622L362.626 43.9305L365.302 45.4286C365.626 45.6099 365.9 45.7597 366.125 45.8781C366.353 45.9908 366.624 46.1128 366.938 46.2441C367.262 46.3729 367.542 46.4589 367.779 46.502C368.019 46.5395 368.282 46.5562 368.568 46.5521C368.857 46.5423 369.118 46.4831 369.35 46.3745C369.582 46.2658 369.815 46.0975 370.047 45.8693C370.288 45.6387 370.506 45.3501 370.7 45.0036C370.859 44.7195 370.976 44.4496 371.052 44.1938C371.137 43.9354 371.192 43.6975 371.217 43.4801C371.242 43.2626 371.222 43.0504 371.159 42.8434C371.099 42.6307 371.029 42.4424 370.95 42.2783C370.87 42.1143 370.745 41.9438 370.576 41.7668C370.409 41.5841 370.248 41.4264 370.091 41.2938C369.939 41.1643 369.741 41.0194 369.494 40.8593C369.248 40.6991 369.027 40.5605 368.832 40.4435C368.642 40.3297 368.402 40.1917 368.112 40.0294L365.599 38.622ZM360.872 44.1457L367.857 31.6711L371.597 33.7656C371.995 33.9882 372.349 34.2015 372.66 34.4056C372.98 34.6071 373.3 34.8348 373.621 35.0889C373.941 35.3429 374.208 35.5929 374.421 35.8389C374.639 36.0882 374.829 36.3623 374.99 36.6613C375.151 36.9603 375.25 37.2623 375.289 37.5672C375.332 37.8753 375.315 38.2126 375.237 38.5791C375.162 38.9399 375.017 39.3106 374.804 39.6912C373.984 41.1568 372.729 41.5921 371.04 40.9972C371.833 41.6726 372.297 42.4172 372.431 43.2308C372.565 44.0445 372.396 44.8717 371.926 45.7124C371.534 46.4111 371.104 46.9273 370.633 47.2609C370.163 47.5944 369.612 47.7595 368.979 47.7562C368.35 47.7471 367.667 47.6073 366.931 47.3368C366.198 47.0605 365.323 46.6377 364.306 46.0684L360.872 44.1457Z" fill="black"/>
<path d="M379.32 55.0608L371.204 49.99L378.779 37.8649L386.804 42.8789L386.225 43.8065L379.409 39.548L376.749 43.805L382.679 47.5098L382.084 48.4623L376.154 44.7575L372.998 49.8096L379.905 54.1249L379.32 55.0608Z" fill="black"/>
<path d="M387.683 60.8068L380.498 55.8645L388.6 44.0853L389.775 44.8933L382.298 55.7634L388.308 59.8976L387.683 60.8068Z" fill="black"/>
<path d="M389.215 61.9768L388.064 61.1347L396.508 49.598L397.659 50.4401L389.215 61.9768Z" fill="black"/>
<path d="M399.327 69.7349L391.795 63.8315L400.614 52.5787L408.062 58.4159L407.387 59.2767L401.061 54.3191L397.965 58.2698L403.468 62.583L402.776 63.4669L397.272 59.1538L393.598 63.8424L400.008 68.8664L399.327 69.7349Z" fill="black"/>
<path d="M403.587 73.3677L409.226 59.3484L410.371 60.3375L406.998 68.6237C406.917 68.8282 406.693 69.3662 406.328 70.2378C405.971 71.1086 405.697 71.775 405.505 72.2368C405.93 71.9841 406.531 71.6307 407.31 71.1765C408.09 70.7223 408.616 70.416 408.891 70.2573L416.559 65.6786L417.653 66.6231L404.607 74.2484L403.587 73.3677Z" fill="black"/>
<path d="M415.452 84.1971L408.488 77.6332L418.294 67.2289L425.18 73.7192L424.43 74.5151L418.581 69.0028L415.138 72.6557L420.227 77.4513L419.456 78.2686L414.368 73.4729L410.282 77.8081L416.209 83.3941L415.452 84.1971Z" fill="black"/>
<path d="M421.111 90.033L420.129 89L430.486 79.1454L431.469 80.1783L421.111 90.033Z" fill="black"/>
<path d="M423.052 91.9705L433.795 82.5375L434.846 83.7337L431.542 98.3692L434.426 95.837L440.664 90.3602L441.495 91.3069L430.752 100.74L429.901 99.7712L433.375 84.6347C433.375 84.6347 432.36 85.526 430.33 87.3087L423.909 92.9465L423.052 91.9705Z" fill="black"/>
<path d="M442.692 107.222L446.835 97.8577L447.761 99.0915L444.165 107.02L452.775 105.768L453.696 106.994L443.541 108.368L439.262 111.582L438.406 110.441L442.692 107.222Z" fill="black"/>
<path d="M457.83 112.604C458.361 113.392 458.714 114.16 458.887 114.906C459.064 115.658 459.063 116.413 458.882 117.171C458.702 117.928 458.292 118.683 457.654 119.436C457.024 120.19 456.171 120.929 455.097 121.654C452.938 123.109 451.082 123.751 449.53 123.581C447.978 123.41 446.651 122.507 445.548 120.871C445.013 120.077 444.659 119.307 444.486 118.56C444.312 117.814 444.323 117.061 444.517 116.301C444.712 115.542 445.134 114.782 445.784 114.022C446.438 113.268 447.318 112.518 448.424 111.772C449.504 111.044 450.51 110.527 451.442 110.221C452.383 109.916 453.236 109.82 454.003 109.931C454.774 110.039 455.471 110.316 456.092 110.76C456.723 111.207 457.302 111.821 457.83 112.604ZM456.877 113.234C456.499 112.673 456.087 112.232 455.643 111.911C455.203 111.595 454.745 111.394 454.27 111.306C453.803 111.22 453.296 111.236 452.748 111.354C452.199 111.473 451.643 111.667 451.08 111.937C450.525 112.209 449.921 112.565 449.268 113.005C447.448 114.231 446.307 115.409 445.843 116.538C445.385 117.664 445.607 118.896 446.509 120.235C447.415 121.579 448.473 122.252 449.683 122.253C450.893 122.254 452.413 121.637 454.243 120.404C454.896 119.964 455.454 119.533 455.916 119.111C456.381 118.696 456.77 118.253 457.082 117.784C457.397 117.32 457.601 116.853 457.692 116.383C457.789 115.909 457.772 115.407 457.641 114.875C457.514 114.348 457.259 113.801 456.877 113.234Z" fill="black"/>
<path d="M454.742 124.166L462.205 119.711L463.006 121.053L455.744 125.388C455.219 125.701 454.773 126.002 454.406 126.289C454.039 126.576 453.715 126.903 453.432 127.268C453.156 127.631 452.972 128.002 452.881 128.383C452.789 128.763 452.791 129.191 452.884 129.665C452.987 130.142 453.199 130.649 453.519 131.186C453.84 131.723 454.184 132.146 454.551 132.458C454.925 132.766 455.299 132.967 455.674 133.061C456.052 133.162 456.465 133.173 456.912 133.096C457.367 133.021 457.809 132.89 458.235 132.704C458.662 132.517 459.139 132.267 459.664 131.953L466.925 127.618L467.711 128.934L460.307 133.355C458.558 134.399 457.047 134.789 455.775 134.525C454.508 134.258 453.402 133.333 452.458 131.751C451.537 130.208 451.249 128.818 451.594 127.581C451.949 126.346 452.998 125.207 454.742 124.166Z" fill="black"/>
<path d="M470.287 141.8C469.424 142.257 468.603 142.404 467.825 142.241C467.055 142.082 466.301 141.604 465.564 140.808L461.118 146.918L460.405 145.571L464.698 139.631L462.61 135.687L456.801 138.761L456.139 137.51L468.775 130.822L471.192 135.388C472.06 137.028 472.412 138.355 472.249 139.37C472.092 140.381 471.438 141.191 470.287 141.8ZM468.505 132.567L463.585 135.171L465.189 138.2C465.408 138.615 465.614 138.97 465.807 139.265C466.004 139.566 466.242 139.856 466.522 140.135C466.805 140.42 467.09 140.623 467.375 140.745C467.663 140.872 467.997 140.924 468.375 140.901C468.758 140.874 469.163 140.749 469.589 140.523C470.026 140.292 470.363 140.029 470.597 139.735C470.838 139.439 470.989 139.145 471.049 138.856C471.118 138.569 471.112 138.237 471.03 137.86C470.958 137.486 470.858 137.152 470.732 136.858C470.606 136.564 470.435 136.212 470.218 135.804L468.505 132.567Z" fill="black"/>
<path d="M480.035 156.52L476.783 149.17L472.121 151.232L474.946 157.617L473.928 158.068L471.103 151.682L464.709 154.511L464.132 153.207L477.206 147.423L481.035 156.077L480.035 156.52Z" fill="black"/>
<path d="M473.889 161.534L482.01 158.436L482.567 159.896L474.665 162.91C474.093 163.128 473.602 163.347 473.191 163.567C472.78 163.786 472.404 164.051 472.063 164.363C471.728 164.672 471.482 165.006 471.326 165.365C471.171 165.724 471.098 166.145 471.108 166.629C471.127 167.117 471.248 167.652 471.471 168.236C471.693 168.82 471.959 169.297 472.267 169.667C472.582 170.035 472.916 170.298 473.268 170.456C473.624 170.62 474.028 170.703 474.481 170.704C474.943 170.709 475.401 170.657 475.853 170.547C476.306 170.437 476.818 170.273 477.39 170.055L485.292 167.041L485.838 168.473L477.781 171.546C475.878 172.272 474.322 172.396 473.114 171.915C471.913 171.433 470.984 170.331 470.327 168.61C469.687 166.931 469.644 165.512 470.198 164.353C470.761 163.197 471.991 162.258 473.889 161.534Z" fill="black"/>
<path d="M485.205 169.957L486.254 169.614L489.593 179.835L488.544 180.177L487.107 175.777L474.556 179.877L474.092 178.457L486.643 174.357L485.205 169.957Z" fill="black"/>
<path d="M481.645 183.6L490.029 181.308L490.441 182.815L482.283 185.045C481.693 185.207 481.182 185.377 480.752 185.555C480.321 185.733 479.921 185.961 479.551 186.237C479.188 186.512 478.911 186.821 478.721 187.163C478.531 187.505 478.418 187.917 478.381 188.4C478.352 188.887 478.42 189.432 478.585 190.035C478.75 190.638 478.968 191.138 479.239 191.537C479.516 191.933 479.822 192.228 480.158 192.419C480.496 192.617 480.89 192.739 481.341 192.784C481.8 192.834 482.26 192.827 482.722 192.761C483.183 192.696 483.709 192.582 484.299 192.421L492.457 190.191L492.861 191.67L484.543 193.944C482.578 194.481 481.018 194.452 479.863 193.857C478.714 193.26 477.897 192.072 477.411 190.295C476.937 188.562 477.032 187.145 477.697 186.046C478.37 184.951 479.685 184.135 481.645 183.6Z" fill="black"/>
<path d="M492.002 205.291C491.047 205.498 490.217 205.418 489.512 205.052C488.814 204.691 488.216 204.028 487.72 203.063L481.793 207.748L481.469 206.26L487.204 201.696L486.256 197.335L479.834 198.73L479.533 197.346L493.504 194.311L494.601 199.36C494.995 201.173 494.976 202.546 494.546 203.479C494.122 204.41 493.274 205.014 492.002 205.291ZM492.774 195.919L487.335 197.101L488.062 200.45C488.162 200.908 488.265 201.306 488.371 201.642C488.479 201.985 488.63 202.329 488.825 202.673C489.021 203.024 489.24 203.296 489.482 203.49C489.725 203.69 490.032 203.83 490.403 203.909C490.779 203.987 491.203 203.975 491.674 203.873C492.157 203.768 492.552 203.606 492.857 203.386C493.169 203.165 493.393 202.923 493.529 202.66C493.673 202.403 493.756 202.081 493.779 201.697C493.81 201.317 493.804 200.968 493.762 200.651C493.72 200.334 493.65 199.949 493.552 199.498L492.774 195.919Z" fill="black"/>
<path d="M483.714 219.214L482.147 209.772L496.251 207.431L497.8 216.766L496.722 216.945L495.405 209.017L490.453 209.839L491.599 216.736L490.491 216.92L489.346 210.023L483.469 210.998L484.803 219.033L483.714 219.214Z" fill="black"/>
</svg>
