<svg width="40" height="40" viewBox="0 0 40 40" fill="none" xmlns="http://www.w3.org/2000/svg">
<path fill-rule="evenodd" clip-rule="evenodd" d="M21.6667 27.5H24.5834C30.3367 27.5 35 22.8367 35 17.0833C35 11.33 30.3367 6.66667 24.5834 6.66667H15.4167C9.66337 6.66667 5.00004 11.33 5.00004 17.0833C5.00004 23.6792 9.34754 27.7117 14.1034 30.1883C16.4659 31.4192 18.845 32.2133 20.6442 32.7008C21.0125 32.8008 21.355 32.8875 21.6667 32.9617V27.5ZM23.3334 35C23.3334 35 22.7034 34.9083 21.6667 34.6733C16.8634 33.5833 3.33337 29.4208 3.33337 17.0833C3.33337 10.41 8.74337 5 15.4167 5H24.5834C31.2567 5 36.6667 10.41 36.6667 17.0833C36.6667 23.7567 31.2567 29.1667 24.5834 29.1667H23.3334V35Z" fill="white"/>
<path fill-rule="evenodd" clip-rule="evenodd" d="M20 18.3333C20.2211 18.3333 20.433 18.2455 20.5893 18.0893C20.7456 17.933 20.8334 17.721 20.8334 17.5C20.8334 17.279 20.7456 17.067 20.5893 16.9107C20.433 16.7545 20.2211 16.6667 20 16.6667C19.779 16.6667 19.5671 16.7545 19.4108 16.9107C19.2545 17.067 19.1667 17.279 19.1667 17.5C19.1667 17.721 19.2545 17.933 19.4108 18.0893C19.5671 18.2455 19.779 18.3333 20 18.3333ZM20 20C20.6631 20 21.299 19.7366 21.7678 19.2678C22.2366 18.7989 22.5 18.163 22.5 17.5C22.5 16.837 22.2366 16.2011 21.7678 15.7322C21.299 15.2634 20.6631 15 20 15C19.337 15 18.7011 15.2634 18.2323 15.7322C17.7634 16.2011 17.5 16.837 17.5 17.5C17.5 18.163 17.7634 18.7989 18.2323 19.2678C18.7011 19.7366 19.337 20 20 20ZM26.6667 18.3333C26.8877 18.3333 27.0997 18.2455 27.256 18.0893C27.4122 17.933 27.5 17.721 27.5 17.5C27.5 17.279 27.4122 17.067 27.256 16.9107C27.0997 16.7545 26.8877 16.6667 26.6667 16.6667C26.4457 16.6667 26.2337 16.7545 26.0775 16.9107C25.9212 17.067 25.8334 17.279 25.8334 17.5C25.8334 17.721 25.9212 17.933 26.0775 18.0893C26.2337 18.2455 26.4457 18.3333 26.6667 18.3333ZM26.6667 20C27.3298 20 27.9656 19.7366 28.4345 19.2678C28.9033 18.7989 29.1667 18.163 29.1667 17.5C29.1667 16.837 28.9033 16.2011 28.4345 15.7322C27.9656 15.2634 27.3298 15 26.6667 15C26.0037 15 25.3678 15.2634 24.8989 15.7322C24.4301 16.2011 24.1667 16.837 24.1667 17.5C24.1667 18.163 24.4301 18.7989 24.8989 19.2678C25.3678 19.7366 26.0037 20 26.6667 20ZM13.3334 18.3333C13.5544 18.3333 13.7664 18.2455 13.9226 18.0893C14.0789 17.933 14.1667 17.721 14.1667 17.5C14.1667 17.279 14.0789 17.067 13.9226 16.9107C13.7664 16.7545 13.5544 16.6667 13.3334 16.6667C13.1124 16.6667 12.9004 16.7545 12.7441 16.9107C12.5878 17.067 12.5 17.279 12.5 17.5C12.5 17.721 12.5878 17.933 12.7441 18.0893C12.9004 18.2455 13.1124 18.3333 13.3334 18.3333ZM13.3334 20C13.9964 20 14.6323 19.7366 15.1011 19.2678C15.57 18.7989 15.8334 18.163 15.8334 17.5C15.8334 16.837 15.57 16.2011 15.1011 15.7322C14.6323 15.2634 13.9964 15 13.3334 15C12.6703 15 12.0344 15.2634 11.5656 15.7322C11.0968 16.2011 10.8334 16.837 10.8334 17.5C10.8334 18.163 11.0968 18.7989 11.5656 19.2678C12.0344 19.7366 12.6703 20 13.3334 20Z" fill="white"/>
</svg>
