<svg width="70" height="38" viewBox="0 0 70 38" fill="none" xmlns="http://www.w3.org/2000/svg">
<rect y="0.5" width="70" height="37" rx="18.5" fill="#FF9900"/>
<path d="M31.25 23L29.0625 20.8125C29.3403 20.4306 29.5313 20.0396 29.6355 19.6396C29.7396 19.2396 29.7917 18.8319 29.7917 18.4167C29.7917 18 29.7396 17.5917 29.6355 17.1917C29.5313 16.7917 29.3403 16.4187 29.0625 16.0729L31.25 13.8333C31.8056 14.4931 32.2223 15.2222 32.5 16.0208C32.7778 16.8194 32.9167 17.6181 32.9167 18.4167C32.9167 19.2153 32.7778 20.0056 32.5 20.7875C32.2223 21.5694 31.8056 22.3069 31.25 23ZM35.6771 27.4792L33.4375 25.2396C34.3056 24.2674 34.957 23.191 35.3917 22.0104C35.8264 20.8299 36.0431 19.6319 36.0417 18.4167C36.0417 17.2014 35.825 16.0125 35.3917 14.85C34.9584 13.6875 34.307 12.6194 33.4375 11.6458L35.6771 9.40625C36.8577 10.691 37.7348 12.1063 38.3084 13.6521C38.882 15.1979 39.1681 16.7861 39.1667 18.4167C39.1667 20.0486 38.8799 21.6458 38.3063 23.2083C37.7327 24.7708 36.8563 26.1944 35.6771 27.4792ZM20.4167 20.5C19.2709 20.5 18.2896 20.0917 17.473 19.275C16.6563 18.4583 16.2487 17.4778 16.25 16.3333C16.25 15.1875 16.6584 14.2062 17.475 13.3896C18.2917 12.5729 19.2723 12.1653 20.4167 12.1667C21.5625 12.1667 22.5438 12.575 23.3605 13.3917C24.1771 14.2083 24.5848 15.1889 24.5834 16.3333C24.5834 17.4792 24.175 18.4604 23.3584 19.2771C22.5417 20.0937 21.5612 20.5014 20.4167 20.5ZM12.0834 28.8333V27.6354C12.0834 26.8021 12.3091 26.0382 12.7605 25.3437C13.2118 24.6493 13.8368 24.1285 14.6355 23.7812C15.5382 23.3993 16.4674 23.1042 17.423 22.8958C18.3785 22.6875 19.3764 22.5833 20.4167 22.5833C21.4584 22.5833 22.457 22.6875 23.4125 22.8958C24.3681 23.1042 25.2966 23.3993 26.198 23.7812C26.9966 24.1285 27.6216 24.6493 28.073 25.3437C28.5243 26.0382 28.75 26.8021 28.75 27.6354V28.8333H12.0834ZM49.5834 20.5C48.4375 20.5 47.4563 20.0917 46.6396 19.275C45.823 18.4583 45.4153 17.4778 45.4167 16.3333C45.4167 15.1875 45.825 14.2062 46.6417 13.3896C47.4584 12.5729 48.4389 12.1653 49.5834 12.1667C50.7292 12.1667 51.7105 12.575 52.5271 13.3917C53.3438 14.2083 53.7514 15.1889 53.75 16.3333C53.75 17.4792 53.3417 18.4604 52.525 19.2771C51.7084 20.0937 50.7278 20.5014 49.5834 20.5ZM41.25 28.8333V27.6354C41.25 26.8021 41.4757 26.0382 41.9271 25.3437C42.3785 24.6493 43.0035 24.1285 43.8021 23.7812C44.7049 23.3993 45.6334 23.1042 46.5875 22.8958C47.5417 22.6875 48.5403 22.5833 49.5834 22.5833C50.625 22.5833 51.623 22.6875 52.5771 22.8958C53.5313 23.1042 54.4605 23.3993 55.3646 23.7812C56.1632 24.1285 56.7882 24.6493 57.2396 25.3437C57.691 26.0382 57.9167 26.8021 57.9167 27.6354V28.8333H41.25Z" fill="white"/>
</svg>
