<svg width="47" height="29" viewBox="0 0 47 29" fill="none" xmlns="http://www.w3.org/2000/svg">
<path d="M14.7185 28.7795C12.1505 28.7795 9.79855 28.1555 7.66255 26.9075C5.52655 25.6355 3.83455 23.9315 2.58655 21.7955C1.36255 19.6355 0.750547 17.2955 0.750547 14.7755C0.750547 12.3275 1.37455 10.0355 2.62255 7.89952C3.89455 5.76352 5.59855 4.07152 7.73455 2.82352C9.89455 1.55152 12.2225 0.915522 14.7185 0.915522C17.2385 0.915522 19.5665 1.55152 21.7025 2.82352C23.8385 4.07152 25.5305 5.76352 26.7785 7.89952C28.0505 10.0355 28.6865 12.3635 28.6865 14.8835C28.6865 17.3795 28.0625 19.6955 26.8145 21.8315C25.5665 23.9435 23.8745 25.6355 21.7385 26.9075C19.6025 28.1555 17.2625 28.7795 14.7185 28.7795ZM14.7185 27.7355C17.0225 27.7355 19.1465 27.1595 21.0905 26.0075C23.0585 24.8315 24.6185 23.2595 25.7705 21.2915C26.9225 19.3235 27.4985 17.1755 27.4985 14.8475C27.4985 12.5435 26.9225 10.4075 25.7705 8.43952C24.6185 6.44752 23.0585 4.87552 21.0905 3.72352C19.1465 2.54752 17.0225 1.95952 14.7185 1.95952C12.4145 1.95952 10.2785 2.54752 8.31055 3.72352C6.36655 4.87552 4.81855 6.44752 3.66655 8.43952C2.51455 10.4075 1.93855 12.5435 1.93855 14.8475C1.93855 17.1755 2.51455 19.3235 3.66655 21.2915C4.81855 23.2595 6.36655 24.8315 8.31055 26.0075C10.2785 27.1595 12.4145 27.7355 14.7185 27.7355ZM46.8826 23.9915V25.0355H43.7506V28.3115H42.5626V25.0355H29.3146L43.7506 0.951522V23.9915H46.8826ZM42.5626 23.9915V5.09152L31.1146 23.9915H42.5626Z" fill="#FF9900"/>
</svg>
