<svg width="52" height="29" viewBox="0 0 52 29" fill="none" xmlns="http://www.w3.org/2000/svg">
<path d="M14.908 28.7795C12.34 28.7795 9.988 28.1555 7.852 26.9075C5.716 25.6355 4.024 23.9315 2.776 21.7955C1.552 19.6355 0.94 17.2955 0.94 14.7755C0.94 12.3275 1.564 10.0355 2.812 7.89952C4.084 5.76352 5.788 4.07152 7.924 2.82352C10.084 1.55152 12.412 0.915522 14.908 0.915522C17.428 0.915522 19.756 1.55152 21.892 2.82352C24.028 4.07152 25.72 5.76352 26.968 7.89952C28.24 10.0355 28.876 12.3635 28.876 14.8835C28.876 17.3795 28.252 19.6955 27.004 21.8315C25.756 23.9435 24.064 25.6355 21.928 26.9075C19.792 28.1555 17.452 28.7795 14.908 28.7795ZM14.908 27.7355C17.212 27.7355 19.336 27.1595 21.28 26.0075C23.248 24.8315 24.808 23.2595 25.96 21.2915C27.112 19.3235 27.688 17.1755 27.688 14.8475C27.688 12.5435 27.112 10.4075 25.96 8.43952C24.808 6.44752 23.248 4.87552 21.28 3.72352C19.336 2.54752 17.212 1.95952 14.908 1.95952C12.604 1.95952 10.468 2.54752 8.5 3.72352C6.556 4.87552 5.008 6.44752 3.856 8.43952C2.704 10.4075 2.128 12.5435 2.128 14.8475C2.128 17.1755 2.704 19.3235 3.856 21.2915C5.008 23.2595 6.556 24.8315 8.5 26.0075C10.468 27.1595 12.604 27.7355 14.908 27.7355ZM40.988 28.6715C39.476 28.6715 38.024 28.3475 36.632 27.6995C35.264 27.0275 34.088 26.1155 33.104 24.9635C32.12 23.7875 31.46 22.4795 31.124 21.0395H32.24C32.816 22.9835 33.92 24.5795 35.552 25.8275C37.184 27.0515 38.996 27.6635 40.988 27.6635C42.644 27.6635 44.168 27.2555 45.56 26.4395C46.952 25.5995 48.056 24.4835 48.872 23.0915C49.688 21.6755 50.096 20.1395 50.096 18.4835C50.096 16.8275 49.712 15.2915 48.944 13.8755C48.2 12.4595 47.18 11.3435 45.884 10.5275C44.612 9.68752 43.22 9.26752 41.708 9.26752C40.244 9.26752 38.876 9.62752 37.604 10.3475C36.332 11.0675 35.204 12.0635 34.22 13.3355H32.96L34.22 1.31152H48.26V2.35552H35.192L34.22 11.6075C35.156 10.5275 36.272 9.69952 37.568 9.12352C38.864 8.54752 40.244 8.25952 41.708 8.25952C43.46 8.25952 45.056 8.72752 46.496 9.66352C47.96 10.5755 49.112 11.8115 49.952 13.3715C50.816 14.9315 51.248 16.6355 51.248 18.4835C51.248 20.3315 50.78 22.0355 49.844 23.5955C48.932 25.1555 47.684 26.3915 46.1 27.3035C44.54 28.2155 42.836 28.6715 40.988 28.6715Z" fill="#FF9900"/>
</svg>
