<svg width="51" height="29" viewBox="0 0 51 29" fill="none" xmlns="http://www.w3.org/2000/svg">
<path d="M14.5115 28.7795C11.9435 28.7795 9.59152 28.1555 7.45552 26.9075C5.31952 25.6355 3.62752 23.9315 2.37952 21.7955C1.15552 19.6355 0.543516 17.2955 0.543516 14.7755C0.543516 12.3275 1.16752 10.0355 2.41552 7.89952C3.68752 5.76352 5.39152 4.07152 7.52752 2.82352C9.68752 1.55152 12.0155 0.915522 14.5115 0.915522C17.0315 0.915522 19.3595 1.55152 21.4955 2.82352C23.6315 4.07152 25.3235 5.76352 26.5715 7.89952C27.8435 10.0355 28.4795 12.3635 28.4795 14.8835C28.4795 17.3795 27.8555 19.6955 26.6075 21.8315C25.3595 23.9435 23.6675 25.6355 21.5315 26.9075C19.3955 28.1555 17.0555 28.7795 14.5115 28.7795ZM14.5115 27.7355C16.8155 27.7355 18.9395 27.1595 20.8835 26.0075C22.8515 24.8315 24.4115 23.2595 25.5635 21.2915C26.7155 19.3235 27.2915 17.1755 27.2915 14.8475C27.2915 12.5435 26.7155 10.4075 25.5635 8.43952C24.4115 6.44752 22.8515 4.87552 20.8835 3.72352C18.9395 2.54752 16.8155 1.95952 14.5115 1.95952C12.2075 1.95952 10.0715 2.54752 8.10352 3.72352C6.15952 4.87552 4.61152 6.44752 3.45952 8.43952C2.30752 10.4075 1.73152 12.5435 1.73152 14.8475C1.73152 17.1755 2.30752 19.3235 3.45952 21.2915C4.61152 23.2595 6.15952 24.8315 8.10352 26.0075C10.0715 27.1595 12.2075 27.7355 14.5115 27.7355ZM40.4835 28.7435C38.6355 28.7435 36.9195 28.2875 35.3355 27.3755C33.7755 26.4635 32.5275 25.2395 31.5915 23.7035C30.6795 22.1675 30.2235 20.4875 30.2235 18.6635C30.2235 15.9515 31.4595 13.1795 33.9315 10.3475L41.8155 1.31152H43.1835L35.6235 9.77152C36.2475 9.33952 37.0395 8.99152 37.9995 8.72752C38.9595 8.46352 39.8835 8.33152 40.7715 8.33152C42.4995 8.33152 44.1195 8.79952 45.6315 9.73552C47.1675 10.6715 48.3795 11.9315 49.2675 13.5155C50.1795 15.0995 50.6355 16.8035 50.6355 18.6275C50.6355 20.4515 50.1795 22.1435 49.2675 23.7035C48.3555 25.2395 47.1195 26.4635 45.5595 27.3755C44.0235 28.2875 42.3315 28.7435 40.4835 28.7435ZM40.4835 27.7355C42.1155 27.7355 43.6155 27.3275 44.9835 26.5115C46.3515 25.6955 47.4315 24.5915 48.2235 23.1995C49.0395 21.7835 49.4475 20.2475 49.4475 18.5915C49.4475 16.9355 49.0395 15.3995 48.2235 13.9835C47.4075 12.5675 46.3155 11.4515 44.9475 10.6355C43.5795 9.79552 42.0915 9.37552 40.4835 9.37552C38.8755 9.37552 37.3755 9.79552 35.9835 10.6355C34.5915 11.4755 33.4755 12.6035 32.6355 14.0195C31.8195 15.4355 31.4115 16.9595 31.4115 18.5915C31.4115 20.2475 31.8195 21.7835 32.6355 23.1995C33.4515 24.5915 34.5555 25.6955 35.9475 26.5115C37.3395 27.3275 38.8515 27.7355 40.4835 27.7355Z" fill="#FF9900"/>
</svg>
