<svg width="33" height="29" viewBox="0 0 33 29" fill="none" xmlns="http://www.w3.org/2000/svg">
<path d="M14.908 28.7795C12.34 28.7795 9.988 28.1555 7.852 26.9075C5.716 25.6355 4.024 23.9315 2.776 21.7955C1.552 19.6355 0.94 17.2955 0.94 14.7755C0.94 12.3275 1.564 10.0355 2.812 7.89952C4.084 5.76352 5.788 4.07152 7.924 2.82352C10.084 1.55152 12.412 0.915522 14.908 0.915522C17.428 0.915522 19.756 1.55152 21.892 2.82352C24.028 4.07152 25.72 5.76352 26.968 7.89952C28.24 10.0355 28.876 12.3635 28.876 14.8835C28.876 17.3795 28.252 19.6955 27.004 21.8315C25.756 23.9435 24.064 25.6355 21.928 26.9075C19.792 28.1555 17.452 28.7795 14.908 28.7795ZM14.908 27.7355C17.212 27.7355 19.336 27.1595 21.28 26.0075C23.248 24.8315 24.808 23.2595 25.96 21.2915C27.112 19.3235 27.688 17.1755 27.688 14.8475C27.688 12.5435 27.112 10.4075 25.96 8.43952C24.808 6.44752 23.248 4.87552 21.28 3.72352C19.336 2.54752 17.212 1.95952 14.908 1.95952C12.604 1.95952 10.468 2.54752 8.5 3.72352C6.556 4.87552 5.008 6.44752 3.856 8.43952C2.704 10.4075 2.128 12.5435 2.128 14.8475C2.128 17.1755 2.704 19.3235 3.856 21.2915C5.008 23.2595 6.556 24.8315 8.5 26.0075C10.468 27.1595 12.604 27.7355 14.908 27.7355ZM31.4092 2.42752H27.1612V1.38352H32.5972V28.3115H31.4092V2.42752Z" fill="#FF9900"/>
</svg>
