<svg width="46" height="29" viewBox="0 0 46 29" fill="none" xmlns="http://www.w3.org/2000/svg">
<path d="M14.6153 28.7795C12.0473 28.7795 9.69528 28.1555 7.55928 26.9075C5.42328 25.6355 3.73128 23.9315 2.48328 21.7955C1.25928 19.6355 0.647275 17.2955 0.647275 14.7755C0.647275 12.3275 1.27128 10.0355 2.51928 7.89952C3.79128 5.76352 5.49528 4.07152 7.63128 2.82352C9.79128 1.55152 12.1193 0.915522 14.6153 0.915522C17.1353 0.915522 19.4633 1.55152 21.5993 2.82352C23.7353 4.07152 25.4273 5.76352 26.6753 7.89952C27.9473 10.0355 28.5833 12.3635 28.5833 14.8835C28.5833 17.3795 27.9593 19.6955 26.7113 21.8315C25.4633 23.9435 23.7713 25.6355 21.6353 26.9075C19.4993 28.1555 17.1593 28.7795 14.6153 28.7795ZM14.6153 27.7355C16.9193 27.7355 19.0433 27.1595 20.9873 26.0075C22.9553 24.8315 24.5153 23.2595 25.6673 21.2915C26.8193 19.3235 27.3953 17.1755 27.3953 14.8475C27.3953 12.5435 26.8193 10.4075 25.6673 8.43952C24.5153 6.44752 22.9553 4.87552 20.9873 3.72352C19.0433 2.54752 16.9193 1.95952 14.6153 1.95952C12.3113 1.95952 10.1753 2.54752 8.20728 3.72352C6.26328 4.87552 4.71528 6.44752 3.56328 8.43952C2.41128 10.4075 1.83528 12.5435 1.83528 14.8475C1.83528 17.1755 2.41128 19.3235 3.56328 21.2915C4.71528 23.2595 6.26328 24.8315 8.20728 26.0075C10.1753 27.1595 12.3113 27.7355 14.6153 27.7355ZM43.7038 2.35552H27.5758V1.31152H45.3958L31.4998 28.3115H30.3478L43.7038 2.35552Z" fill="#FF9900"/>
</svg>
