<svg width="49" height="29" viewBox="0 0 49 29" fill="none" xmlns="http://www.w3.org/2000/svg">
<path d="M14.115 28.7795C11.547 28.7795 9.19503 28.1555 7.05903 26.9075C4.92303 25.6355 3.23103 23.9315 1.98303 21.7955C0.759031 19.6355 0.147031 17.2955 0.147031 14.7755C0.147031 12.3275 0.771031 10.0355 2.01903 7.89952C3.29103 5.76352 4.99503 4.07152 7.13103 2.82352C9.29103 1.55152 11.619 0.915522 14.115 0.915522C16.635 0.915522 18.963 1.55152 21.099 2.82352C23.235 4.07152 24.927 5.76352 26.175 7.89952C27.447 10.0355 28.083 12.3635 28.083 14.8835C28.083 17.3795 27.459 19.6955 26.211 21.8315C24.963 23.9435 23.271 25.6355 21.135 26.9075C18.999 28.1555 16.659 28.7795 14.115 28.7795ZM14.115 27.7355C16.419 27.7355 18.543 27.1595 20.487 26.0075C22.455 24.8315 24.015 23.2595 25.167 21.2915C26.319 19.3235 26.895 17.1755 26.895 14.8475C26.895 12.5435 26.319 10.4075 25.167 8.43952C24.015 6.44752 22.455 4.87552 20.487 3.72352C18.543 2.54752 16.419 1.95952 14.115 1.95952C11.811 1.95952 9.67503 2.54752 7.70703 3.72352C5.76303 4.87552 4.21503 6.44752 3.06303 8.43952C1.91103 10.4075 1.33503 12.5435 1.33503 14.8475C1.33503 17.1755 1.91103 19.3235 3.06303 21.2915C4.21503 23.2595 5.76303 24.8315 7.70703 26.0075C9.67503 27.1595 11.811 27.7355 14.115 27.7355ZM39.0071 28.6715C37.2551 28.6715 35.6711 28.2875 34.2551 27.5195C32.8631 26.7275 31.7711 25.6715 30.9791 24.3515C30.1871 23.0315 29.7911 21.5795 29.7911 19.9955V19.2395H30.9071V19.8155C30.9071 21.2555 31.2431 22.5755 31.9151 23.7755C32.5871 24.9755 33.5351 25.9235 34.7591 26.6195C36.0071 27.3155 37.4111 27.6635 38.9711 27.6635C40.5551 27.6635 41.9591 27.3515 43.1831 26.7275C44.4311 26.0795 45.3911 25.1915 46.0631 24.0635C46.7591 22.9355 47.1071 21.6635 47.1071 20.2475C47.1071 18.1595 46.6271 16.4195 45.6671 15.0275C44.7071 13.6115 43.2671 12.6515 41.3471 12.1475C42.3551 11.5235 43.1111 10.7675 43.6151 9.87952C44.1191 8.96752 44.3711 8.01952 44.3711 7.03552C44.3711 6.12352 44.1551 5.28352 43.7231 4.51552C43.3151 3.72352 42.7151 3.09952 41.9231 2.64352C41.1311 2.16352 40.2071 1.92352 39.1511 1.92352C38.0471 1.92352 37.0631 2.17552 36.1991 2.67952C35.3351 3.18352 34.6511 3.86752 34.1471 4.73152C33.6671 5.59552 33.4031 6.55552 33.3551 7.61152H32.2031C32.2511 6.36352 32.5631 5.23552 33.1391 4.22752C33.7151 3.19552 34.5191 2.39152 35.5511 1.81552C36.6071 1.21552 37.8071 0.915522 39.1511 0.915522C40.4231 0.915522 41.5391 1.20352 42.4991 1.77952C43.4591 2.35552 44.2031 3.12352 44.7311 4.08352C45.2591 5.01952 45.5231 6.00352 45.5231 7.03552C45.5231 7.97152 45.3191 8.85952 44.9111 9.69952C44.5031 10.5395 43.8911 11.2595 43.0751 11.8595C44.8031 12.5315 46.0991 13.5875 46.9631 15.0275C47.8511 16.4675 48.2951 18.2675 48.2951 20.4275C48.2951 21.9395 47.8991 23.3315 47.1071 24.6035C46.3151 25.8515 45.2111 26.8475 43.7951 27.5915C42.3791 28.3115 40.7831 28.6715 39.0071 28.6715Z" fill="#FF9900"/>
</svg>
