<svg width="51" height="29" viewBox="0 0 51 29" fill="none" xmlns="http://www.w3.org/2000/svg">
<path d="M14.5115 28.7795C11.9435 28.7795 9.59152 28.1555 7.45552 26.9075C5.31952 25.6355 3.62752 23.9315 2.37952 21.7955C1.15552 19.6355 0.543516 17.2955 0.543516 14.7755C0.543516 12.3275 1.16752 10.0355 2.41552 7.89952C3.68752 5.76352 5.39152 4.07152 7.52752 2.82352C9.68752 1.55152 12.0155 0.915522 14.5115 0.915522C17.0315 0.915522 19.3595 1.55152 21.4955 2.82352C23.6315 4.07152 25.3235 5.76352 26.5715 7.89952C27.8435 10.0355 28.4795 12.3635 28.4795 14.8835C28.4795 17.3795 27.8555 19.6955 26.6075 21.8315C25.3595 23.9435 23.6675 25.6355 21.5315 26.9075C19.3955 28.1555 17.0555 28.7795 14.5115 28.7795ZM14.5115 27.7355C16.8155 27.7355 18.9395 27.1595 20.8835 26.0075C22.8515 24.8315 24.4115 23.2595 25.5635 21.2915C26.7155 19.3235 27.2915 17.1755 27.2915 14.8475C27.2915 12.5435 26.7155 10.4075 25.5635 8.43952C24.4115 6.44752 22.8515 4.87552 20.8835 3.72352C18.9395 2.54752 16.8155 1.95952 14.5115 1.95952C12.2075 1.95952 10.0715 2.54752 8.10352 3.72352C6.15952 4.87552 4.61152 6.44752 3.45952 8.43952C2.30752 10.4075 1.73152 12.5435 1.73152 14.8475C1.73152 17.1755 2.30752 19.3235 3.45952 21.2915C4.61152 23.2595 6.15952 24.8315 8.10352 26.0075C10.0715 27.1595 12.2075 27.7355 14.5115 27.7355ZM42.9675 20.3555C45.0795 19.0355 46.6275 17.6435 47.6115 16.1795C48.6195 14.6915 49.1235 12.9755 49.1235 11.0315C49.1235 9.39952 48.7635 7.89952 48.0435 6.53152C47.3235 5.16352 46.3035 4.07152 44.9835 3.25552C43.6875 2.43952 42.1995 2.03152 40.5195 2.03152C38.8155 2.03152 37.2555 2.46352 35.8395 3.32752C34.4475 4.19152 33.3435 5.35552 32.5275 6.81952C31.7115 8.28352 31.3035 9.90352 31.3035 11.6795H30.1155C30.1155 9.68752 30.5715 7.87552 31.4835 6.24352C32.3955 4.61152 33.6435 3.32752 35.2275 2.39152C36.8115 1.45552 38.5755 0.987521 40.5195 0.987521C42.4155 0.987521 44.1075 1.44352 45.5955 2.35552C47.0835 3.26752 48.2355 4.49152 49.0515 6.02752C49.8915 7.56352 50.3115 9.24352 50.3115 11.0675C50.3115 14.9795 48.1875 18.2915 43.9395 21.0035L34.1475 27.2675H50.2035V28.3115H30.4035L42.9675 20.3555Z" fill="#FF9900"/>
</svg>
