<svg width="56" height="56" viewBox="0 0 56 56" fill="none" xmlns="http://www.w3.org/2000/svg">
<g clip-path="url(#clip0_390_112)">
<path d="M39.3744 14.2503H21.8997C20.8174 14.2503 20.8174 15.892 21.8997 15.892H39.3743C40.4709 15.8921 40.471 14.2503 39.3744 14.2503ZM18.0799 14.2503H15.312C14.2117 14.2503 14.2117 15.892 15.312 15.892H18.0799C19.1704 15.892 19.1704 14.2503 18.0799 14.2503ZM23.8982 39.4123H15.312C14.2119 39.4123 14.2119 41.054 15.312 41.054H23.8982C25.0021 41.054 25.0021 39.4123 23.8982 39.4123ZM27.3433 31.025H15.312C14.2401 31.025 14.2401 32.6668 15.312 32.6668H27.3433C28.4365 32.6668 28.4365 31.025 27.3433 31.025ZM33.1998 22.6375H15.312C14.2047 22.6375 14.2047 24.2792 15.312 24.2792H33.1998C34.3086 24.2792 34.3086 22.6375 33.1998 22.6375ZM43.2855 11.5769V18.5873C43.2855 19.6847 44.9272 19.6847 44.9272 18.5873V12.3978H53.3716C53.9051 12.3828 54.2092 11.95 54.1925 11.5688C54.1601 8.30944 51.8177 5.85156 48.7352 5.85156H14.8092C11.8041 5.85156 9.35946 8.29632 9.35946 11.3014V43.6014H0.820752C0.364657 43.614 0.0115938 43.9604 0 44.4304C0.0323751 47.6898 2.37475 50.1477 5.44853 50.1477H39.4778C42.4829 50.1477 44.9276 47.7029 44.9276 44.6978V34.7506C44.9276 33.6597 43.2857 33.6598 43.2857 34.7507V44.6979C43.0641 49.7025 35.7362 49.9157 35.5677 44.4142C35.5656 44.1979 35.4781 43.9912 35.3244 43.839C35.1707 43.6868 34.9632 43.6015 34.7469 43.6014H11.0016V11.3013C11.0016 9.20151 12.7099 7.49328 14.8095 7.49328H44.8403C43.8157 8.56407 43.2455 9.93126 43.2855 11.5769ZM35.5045 48.5059H5.44831C3.56432 48.5059 2.07343 47.1513 1.72058 45.2433H33.983C34.182 46.565 34.6822 47.6577 35.5044 48.5059H35.5045ZM29.4544 40.357C29.2225 41.4717 30.7133 41.8176 31.0349 40.8019L32.3216 36.2317C37.6753 33.8178 39.6492 35.0896 46.3048 30.2721C48.8963 28.3963 51.9154 25.5991 55.7037 21.6205C56.286 21.103 55.9531 20.2086 55.2021 20.1669C48.3333 19.9892 39.3767 21.6426 34.8486 26.8119C32.5183 29.4011 31.1237 34.1829 29.4544 40.3569V40.357ZM48.0562 22.2978C43.119 24.7215 38.3918 27.9401 33.7663 31.9152C35.4412 26.9605 39.9701 23.6527 48.0562 22.2978ZM34.2163 33.738C39.8779 28.7486 46.0765 24.5228 52.4531 22.2759C49.678 25.0374 47.2717 27.539 44.7976 29.3002C40.1376 32.6171 37.4922 32.6374 34.2163 33.738ZM52.4724 10.7558H44.9678C45.6981 6.45783 51.6809 6.35863 52.4724 10.7558Z" fill="#FF9900"/>
</g>
<defs>
<clipPath id="clip0_390_112">
<rect width="56" height="56" fill="white"/>
</clipPath>
</defs>
</svg>
