<svg width="36" height="35" viewBox="0 0 36 35" fill="none" xmlns="http://www.w3.org/2000/svg">
<path d="M17.5058 12.9434C14.997 12.9434 12.9497 14.9908 12.9497 17.4996C12.9497 20.0083 14.997 22.0557 17.5058 22.0557C20.0146 22.0557 22.062 20.0083 22.062 17.4996C22.062 14.9908 20.0146 12.9434 17.5058 12.9434ZM31.1709 17.4996C31.1709 15.6128 31.188 13.7432 31.082 11.8599C30.9761 9.6724 30.477 7.731 28.8774 6.13139C27.2744 4.52836 25.3364 4.03275 23.1489 3.9268C21.2622 3.82084 19.3926 3.83793 17.5093 3.83793C15.6225 3.83793 13.7529 3.82084 11.8696 3.9268C9.68211 4.03275 7.7407 4.53178 6.14109 6.13139C4.53806 7.73441 4.04246 9.6724 3.9365 11.8599C3.83055 13.7466 3.84764 15.6163 3.84764 17.4996C3.84764 19.3829 3.83055 21.2559 3.9365 23.1392C4.04246 25.3267 4.54148 27.2681 6.14109 28.8677C7.74412 30.4707 9.68211 30.9663 11.8696 31.0723C13.7563 31.1783 15.626 31.1612 17.5093 31.1612C19.396 31.1612 21.2656 31.1783 23.1489 31.0723C25.3364 30.9663 27.2778 30.4673 28.8774 28.8677C30.4804 27.2647 30.9761 25.3267 31.082 23.1392C31.1914 21.2559 31.1709 19.3863 31.1709 17.4996ZM17.5058 24.5098C13.6264 24.5098 10.4956 21.3789 10.4956 17.4996C10.4956 13.6202 13.6264 10.4893 17.5058 10.4893C21.3852 10.4893 24.5161 13.6202 24.5161 17.4996C24.5161 21.3789 21.3852 24.5098 17.5058 24.5098ZM24.8032 11.8394C23.8974 11.8394 23.166 11.108 23.166 10.2022C23.166 9.29643 23.8974 8.56498 24.8032 8.56498C25.709 8.56498 26.4404 9.29643 26.4404 10.2022C26.4407 10.4173 26.3985 10.6303 26.3163 10.829C26.2342 11.0278 26.1136 11.2084 25.9615 11.3605C25.8094 11.5126 25.6288 11.6331 25.4301 11.7153C25.2313 11.7975 25.0183 11.8397 24.8032 11.8394Z" fill="white"/>
</svg>
