<svg width="56" height="56" viewBox="0 0 56 56" fill="none" xmlns="http://www.w3.org/2000/svg">
<g clip-path="url(#clip0_390_103)">
<path d="M46.6666 4.66699H21.7778V12.4448H24.8889V7.7781H46.6666C47.6 7.7781 48.2222 8.40033 48.2222 9.33366V26.4448C48.2222 27.3781 47.6 28.0003 46.6666 28.0003H26.4444V38.8892H18.2L12.4444 43.4003V38.8892H7.77775C6.84442 38.8892 6.2222 38.267 6.2222 37.3337V20.2225C6.2222 19.2892 6.84442 18.667 7.77775 18.667H28V15.5559H7.77775C5.13331 15.5559 3.11108 17.5781 3.11108 20.2225V37.3337C3.11108 39.9781 5.13331 42.0003 7.77775 42.0003H9.33331V49.9337L19.1333 42.0003H29.5555V31.1114H46.6666C49.3111 31.1114 51.3333 29.0892 51.3333 26.4448V9.33366C51.3333 6.68921 49.3111 4.66699 46.6666 4.66699Z" fill="#FF9900"/>
<path d="M9.64447 35.6218H13.3778L14.3111 33.1329H19.1334L20.0667 35.6218H23.8L18.5111 21.7773H14.7778L9.64447 35.6218ZM16.6445 25.6662L18.2 30.4885H15.0889L16.6445 25.6662Z" fill="#FF9900"/>
<path d="M31.1111 26.4441C32.8222 26.4441 35.1555 25.9775 37.3333 24.8886C39.5111 25.9775 42 26.4441 43.5555 26.4441V23.333C43.5555 23.333 42 23.333 40.2889 22.7108C42.1555 20.8441 43.5555 18.0441 43.5555 13.9997V12.4441H38.8889V9.33301H35.7778V12.4441H31.1111V15.5552H40.2889C39.9777 18.3552 38.7333 20.0663 37.3333 21.1552C36.4 20.3775 35.4666 19.2886 34.8444 17.8886H31.5777C32.2 19.9108 33.1333 21.4663 34.3778 22.7108C32.8222 23.333 31.4222 23.333 31.1111 23.333V26.4441Z" fill="#FF9900"/>
</g>
<defs>
<clipPath id="clip0_390_103">
<rect width="56" height="56" fill="white"/>
</clipPath>
</defs>
</svg>
