<svg width="208" height="114" viewBox="0 0 208 114" fill="none" xmlns="http://www.w3.org/2000/svg">
<path d="M0.355925 111C0.355925 112.473 1.54983 113.667 3.02259 113.667C4.49535 113.667 5.68926 112.473 5.68926 111C5.68926 109.527 4.49535 108.333 3.02259 108.333C1.54983 108.333 0.355925 109.527 0.355925 111ZM204.977 111L207.877 106.007L202.103 105.993L204.977 111ZM3.52252 110.991C2.90437 74.8263 15.0632 47.6527 33.6376 29.4264C52.2187 11.1937 77.2514 1.88379 102.428 1.51162C127.604 1.13945 152.901 9.70557 172.008 27.1951C191.108 44.6782 204.054 71.1054 204.489 106.52L205.489 106.507C205.05 70.8393 192.003 44.1417 172.683 26.4575C153.37 8.77979 127.82 0.136149 102.413 0.511727C77.0057 0.887308 51.7193 10.2827 32.9373 28.7127C14.1486 47.1492 1.90028 74.5959 2.52266 111.009L3.52252 110.991Z" fill="black" fill-opacity="0.38"/>
<path d="M161.32 102C161.32 103.473 162.514 104.667 163.987 104.667C165.459 104.667 166.653 103.473 166.653 102C166.653 100.527 165.459 99.3333 163.987 99.3333C162.514 99.3333 161.32 100.527 161.32 102ZM44.5133 101.991C43.0361 18.6696 164.964 18.6696 163.487 101.991L164.486 102.009C165.988 17.3304 42.0122 17.3304 43.5135 102.009L44.5133 101.991Z" fill="#C4C4C4"/>
</svg>
