<svg width="208" height="114" viewBox="0 0 208 114" fill="none" xmlns="http://www.w3.org/2000/svg">
<path d="M0.355925 3C0.355925 1.52724 1.54983 0.333336 3.02259 0.333336C4.49535 0.333336 5.68926 1.52724 5.68926 3C5.68926 4.47276 4.49535 5.66666 3.02259 5.66666C1.54983 5.66666 0.355925 4.47276 0.355925 3ZM204.977 3L207.877 7.99275L202.103 8.00722L204.977 3ZM3.52252 3.00854C2.90437 39.1737 15.0632 66.3473 33.6376 84.5736C52.2187 102.806 77.2514 112.116 102.428 112.488C127.604 112.861 152.901 104.294 172.008 86.8049C191.108 69.3218 204.054 42.8946 204.489 7.48035L205.489 7.49264C205.05 43.1607 192.003 69.8583 172.683 87.5425C153.37 105.22 127.82 113.864 102.413 113.488C77.0057 113.113 51.7193 103.717 32.9373 85.2873C14.1486 66.8508 1.90028 39.4041 2.52266 2.99146L3.52252 3.00854Z" fill="black" fill-opacity="0.38"/>
<path d="M161.32 12C161.32 10.5272 162.514 9.33334 163.987 9.33334C165.459 9.33334 166.653 10.5272 166.653 12C166.653 13.4728 165.459 14.6667 163.987 14.6667C162.514 14.6667 161.32 13.4728 161.32 12ZM44.5133 12.0089C43.0361 95.3304 164.964 95.3304 163.487 12.0089L164.486 11.9911C165.988 96.6696 42.0122 96.6696 43.5135 11.9911L44.5133 12.0089Z" fill="#C4C4C4"/>
</svg>
