<svg width="24" height="24" viewBox="0 0 24 24" fill="none" xmlns="http://www.w3.org/2000/svg">
<path d="M18 20.75H6C5.27065 20.75 4.57118 20.4603 4.05546 19.9445C3.53973 19.4288 3.25 18.7293 3.25 18V6C3.25 5.27065 3.53973 4.57118 4.05546 4.05546C4.57118 3.53973 5.27065 3.25 6 3.25H12C12.1989 3.25 12.3897 3.32902 12.5303 3.46967C12.671 3.61032 12.75 3.80109 12.75 4C12.75 4.19891 12.671 4.38968 12.5303 4.53033C12.3897 4.67098 12.1989 4.75 12 4.75H6C5.66848 4.75 5.35054 4.8817 5.11612 5.11612C4.8817 5.35054 4.75 5.66848 4.75 6V18C4.75 18.3315 4.8817 18.6495 5.11612 18.8839C5.35054 19.1183 5.66848 19.25 6 19.25H18C18.3315 19.25 18.6495 19.1183 18.8839 18.8839C19.1183 18.6495 19.25 18.3315 19.25 18V12C19.25 11.8011 19.329 11.6103 19.4697 11.4697C19.6103 11.329 19.8011 11.25 20 11.25C20.1989 11.25 20.3897 11.329 20.5303 11.4697C20.671 11.6103 20.75 11.8011 20.75 12V18C20.75 18.7293 20.4603 19.4288 19.9445 19.9445C19.4288 20.4603 18.7293 20.75 18 20.75ZM20 8.75C19.8019 8.74741 19.6126 8.66756 19.4725 8.52747C19.3324 8.38737 19.2526 8.19811 19.25 8V4.75H16C15.8011 4.75 15.6103 4.67098 15.4697 4.53033C15.329 4.38968 15.25 4.19891 15.25 4C15.25 3.80109 15.329 3.61032 15.4697 3.46967C15.6103 3.32902 15.8011 3.25 16 3.25H20C20.1981 3.25259 20.3874 3.33244 20.5275 3.47253C20.6676 3.61263 20.7474 3.80189 20.75 4V8C20.7474 8.19811 20.6676 8.38737 20.5275 8.52747C20.3874 8.66756 20.1981 8.74741 20 8.75Z" fill="#FF9900"/>
<path d="M13.5001 11.2504C13.3071 11.2357 13.1276 11.1459 13.0001 11.0004C12.8771 10.8629 12.8091 10.6849 12.8091 10.5004C12.8091 10.3159 12.8771 10.1379 13.0001 10.0004L19.5001 3.50043C19.5687 3.42674 19.6515 3.36764 19.7435 3.32665C19.8355 3.28565 19.9348 3.26361 20.0355 3.26184C20.1362 3.26006 20.2363 3.27858 20.3297 3.3163C20.4231 3.35403 20.5079 3.41017 20.5791 3.48139C20.6503 3.55261 20.7065 3.63744 20.7442 3.73083C20.7819 3.82422 20.8004 3.92425 20.7987 4.02495C20.7969 4.12565 20.7748 4.22497 20.7338 4.31697C20.6929 4.40896 20.6338 4.49177 20.5601 4.56043L14.0001 11.0004C13.8725 11.1459 13.693 11.2357 13.5001 11.2504Z" fill="#FF9900"/>
</svg>
