<svg width="88" height="88" viewBox="0 0 88 88" fill="none" xmlns="http://www.w3.org/2000/svg">
<path d="M43.9999 7.33301C23.7819 7.33301 7.33325 23.7817 7.33325 43.9997V59.1907C7.33325 62.9453 10.6223 65.9997 14.6666 65.9997H18.3333C19.3057 65.9997 20.2383 65.6134 20.926 64.9257C21.6136 64.2381 21.9999 63.3055 21.9999 62.333V43.4753C21.9999 42.5029 21.6136 41.5702 20.926 40.8826C20.2383 40.195 19.3057 39.8087 18.3333 39.8087H15.0039C17.0426 25.6187 29.2526 14.6663 43.9999 14.6663C58.7473 14.6663 70.9573 25.6187 72.9959 39.8087H69.6666C68.6941 39.8087 67.7615 40.195 67.0739 40.8826C66.3862 41.5702 65.9999 42.5029 65.9999 43.4753V65.9997C65.9999 70.044 62.7109 73.333 58.6666 73.333H51.3333V69.6663H36.6666V80.6663H58.6666C66.7553 80.6663 73.3333 74.0883 73.3333 65.9997C77.3776 65.9997 80.6666 62.9453 80.6666 59.1907V43.9997C80.6666 23.7817 64.2179 7.33301 43.9999 7.33301Z" fill="#FF9900"/>
</svg>
