<svg width="88" height="88" viewBox="0 0 88 88" fill="none" xmlns="http://www.w3.org/2000/svg">
<path d="M43.9999 83.4163C65.7691 83.4163 83.4166 65.7689 83.4166 43.9997C83.4166 22.2305 65.7691 4.58301 43.9999 4.58301C22.2307 4.58301 4.58325 22.2305 4.58325 43.9997C4.58325 65.7689 22.2307 83.4163 43.9999 83.4163Z" stroke="#FF9900" stroke-width="5" stroke-linecap="round" stroke-linejoin="round"/>
<path d="M44 50.1089C47.3737 50.1089 50.1087 47.374 50.1087 44.0003C50.1087 40.6265 47.3737 37.8916 44 37.8916C40.6263 37.8916 37.8914 40.6265 37.8914 44.0003C37.8914 47.374 40.6263 50.1089 44 50.1089Z" stroke="#FF9900" stroke-width="5" stroke-linecap="round" stroke-linejoin="round"/>
<path d="M44.0001 70.7924V50.1087M45.8389 38.1737L66.7646 23.8609C66.8726 23.7838 67.0056 23.7502 67.1372 23.7668C67.2689 23.7834 67.3894 23.849 67.4749 23.9504C67.5604 24.0519 67.6046 24.1818 67.5987 24.3143C67.5927 24.4468 67.5371 24.5723 67.4429 24.6657L49.9437 42.5957M38.1737 42.163L26.6787 28.5267C26.5912 28.4276 26.5437 28.2995 26.5455 28.1673C26.5473 28.0351 26.5982 27.9084 26.6885 27.8117C26.7787 27.7151 26.9017 27.6556 27.0334 27.6447C27.1652 27.6338 27.2962 27.6725 27.4011 27.753L41.7487 38.3222" stroke="#FF9900" stroke-width="5" stroke-linecap="round" stroke-linejoin="round"/>
</svg>
