<svg width="88" height="88" viewBox="0 0 88 88" fill="none" xmlns="http://www.w3.org/2000/svg">
<path d="M69.223 27.5L55 13.277V27.5H69.223ZM71.5 33H49.5V11H16.5V77H71.5V33ZM13.75 5.5H55L77 27.5V79.75C77 80.4793 76.7103 81.1788 76.1945 81.6945C75.6788 82.2103 74.9793 82.5 74.25 82.5H13.75C13.0207 82.5 12.3212 82.2103 11.8055 81.6945C11.2897 81.1788 11 80.4793 11 79.75V8.25C11 7.52065 11.2897 6.82118 11.8055 6.30546C12.3212 5.78973 13.0207 5.5 13.75 5.5ZM41.1125 55.528L56.6665 39.974L60.555 43.8625L41.1125 63.305L27.5 49.698L31.3885 45.804L41.1125 55.528Z" fill="#FF9900"/>
</svg>
