<svg width="36" height="35" viewBox="0 0 36 35" fill="none" xmlns="http://www.w3.org/2000/svg">
<path d="M17.5059 2.91699C9.45588 2.91699 2.92255 9.45033 2.92255 17.5003C2.92255 25.5503 9.45588 32.0837 17.5059 32.0837C25.5559 32.0837 32.0892 25.5503 32.0892 17.5003C32.0892 9.45033 25.5559 2.91699 17.5059 2.91699ZM24.2725 12.8337C24.0538 15.1378 23.1059 20.7378 22.6246 23.3191C22.4205 24.4128 22.0121 24.7774 21.633 24.8212C20.7871 24.8941 20.1455 24.267 19.3288 23.7274C18.0455 22.8816 17.3163 22.3566 16.0767 21.5399C14.633 20.592 15.5663 20.067 16.3975 19.2212C16.6163 19.0024 20.3496 15.6045 20.4225 15.2982C20.4327 15.2519 20.4313 15.2037 20.4186 15.158C20.4059 15.1122 20.3822 15.0703 20.3496 15.0357C20.2621 14.9628 20.1455 14.992 20.0434 15.0066C19.9121 15.0357 17.8705 16.392 13.8892 19.0753C13.3059 19.4691 12.7809 19.6732 12.3142 19.6587C11.7892 19.6441 10.7975 19.367 10.0538 19.1191C9.13505 18.8274 8.42046 18.667 8.4788 18.1566C8.50796 17.8941 8.87255 17.6316 9.55796 17.3545C13.8163 15.5024 16.6455 14.2774 18.06 13.6941C22.1142 12.0024 22.9455 11.7107 23.4996 11.7107C23.6163 11.7107 23.8934 11.7399 24.0684 11.8857C24.2142 12.0024 24.258 12.1628 24.2725 12.2795C24.258 12.367 24.2871 12.6295 24.2725 12.8337Z" fill="white"/>
</svg>
