<svg width="36" height="35" viewBox="0 0 36 35" fill="none" xmlns="http://www.w3.org/2000/svg">
<path d="M17.5073 2.91699C25.5617 2.91699 32.0906 9.44595 32.0906 17.5003C32.0906 25.5547 25.5617 32.0837 17.5073 32.0837C14.9301 32.0878 12.3983 31.4058 10.1719 30.1076L2.9298 32.0837L4.90147 24.8387C3.60223 22.6116 2.91967 20.0787 2.92397 17.5003C2.92397 9.44595 9.45293 2.91699 17.5073 2.91699ZM12.5373 10.6462L12.2456 10.6578C12.0568 10.6693 11.8723 10.7189 11.7031 10.8037C11.5449 10.8932 11.4005 11.0052 11.2744 11.1362C11.0994 11.301 11.0002 11.4439 10.8938 11.5824C10.3544 12.2837 10.0639 13.1447 10.0683 14.0295C10.0713 14.7441 10.2579 15.4397 10.5496 16.0901C11.1461 17.4055 12.1275 18.7982 13.4225 20.0889C13.7346 20.3995 14.0408 20.7116 14.3704 21.0018C15.9795 22.4185 17.897 23.4402 19.9704 23.9855L20.7988 24.1124C21.0686 24.127 21.3383 24.1066 21.6096 24.0935C22.0343 24.0715 22.449 23.9565 22.8244 23.7566C23.0154 23.6582 23.2017 23.5511 23.3829 23.4357C23.3829 23.4357 23.4456 23.3949 23.5652 23.3045C23.7621 23.1587 23.8831 23.0551 24.0465 22.8845C24.1675 22.7591 24.2725 22.6118 24.3527 22.4441C24.4665 22.2064 24.5802 21.7528 24.6269 21.3751C24.6619 21.0864 24.6517 20.9289 24.6473 20.8312C24.6415 20.6751 24.5117 20.5132 24.3702 20.4447L23.5215 20.0641C23.5215 20.0641 22.2527 19.5114 21.4769 19.1585C21.3957 19.123 21.3087 19.1027 21.2202 19.0987C21.1204 19.0884 21.0196 19.0996 20.9245 19.1316C20.8295 19.1635 20.7423 19.2155 20.669 19.2839C20.6617 19.281 20.564 19.3641 19.5096 20.6416C19.4491 20.7229 19.3657 20.7844 19.2701 20.8181C19.1746 20.8519 19.0711 20.8564 18.9729 20.8312C18.8779 20.8057 18.7848 20.7735 18.6944 20.7349C18.5136 20.6591 18.4508 20.6299 18.3269 20.5774C17.4899 20.2122 16.715 19.7187 16.03 19.1147C15.8463 18.9543 15.6756 18.7793 15.5006 18.6101C14.9269 18.0607 14.4269 17.4391 14.0131 16.761L13.9271 16.6224C13.8653 16.5293 13.8153 16.4289 13.7783 16.3235C13.7229 16.1091 13.8673 15.937 13.8673 15.937C13.8673 15.937 14.2217 15.5491 14.3865 15.3391C14.5469 15.1349 14.6825 14.9366 14.77 14.7951C14.9421 14.518 14.9961 14.2337 14.9056 14.0135C14.4973 13.016 14.0744 12.0228 13.6398 11.037C13.5538 10.8416 13.2986 10.7016 13.0667 10.6739C12.9879 10.6651 12.9092 10.6564 12.8304 10.6505C12.6346 10.6408 12.4383 10.6428 12.2427 10.6564L12.5358 10.6447L12.5373 10.6462Z" fill="white"/>
</svg>
